<svg width="100" height="105" viewBox="0 0 100 105" fill="none" xmlns="http://www.w3.org/2000/svg">
<path d="M48.2403 0.327255C30.8318 2.31979 17.8978 10.1151 12.0251 22.1752C9.71797 26.8944 8.66927 31.2989 8.63431 36.6823C8.5644 40.947 8.59935 41.0868 9.54319 42.4851C10.3122 43.6037 10.4521 44.0581 10.1724 44.7223C9.99762 45.1767 7.65552 48.9171 4.9289 53.007C2.20227 57.1319 0 60.8373 0 61.2568C0 63.0396 3.00628 65.2769 5.34838 65.3118C7.69048 65.3118 8.24979 66.745 7.16613 69.8562C6.43204 71.9885 6.50195 72.8974 7.58561 73.9112C8.45953 74.7152 8.49448 74.855 8.075 75.9037C7.20109 78.1409 7.20109 78.2458 8.5644 79.6441L9.89275 81.0074L9.33345 83.1397C7.79535 88.593 9.64806 92.2634 14.7517 93.9064C17.5133 94.8153 18.5271 94.9551 24.8892 95.3746C31.1115 95.7591 32.2651 96.1786 33.2089 98.241C33.5585 99.08 33.9779 100.723 34.1178 101.911L34.3625 104.114H60.3353H86.3082L85.609 102.086C83.197 95.2348 82.2881 86.4606 83.3368 80.3432C84.5254 73.6315 86.3082 69.5066 92.7052 58.7399C97.1797 51.2242 98.3682 48.7423 99.312 45.1068C100.955 38.7097 99.5567 27.978 96.1659 20.707C90.8875 9.45097 80.9598 2.59944 66.9421 0.467087C63.1318 -0.0922241 52.7147 -0.16214 48.2403 0.327255ZM71.7312 13.471C72.1157 13.8206 72.3604 14.5197 72.3604 15.3936C72.3604 16.4073 72.6051 16.9667 73.2693 17.5959C74.5277 18.7495 75.8211 18.6795 77.4291 17.4211C78.1632 16.8268 78.9672 16.3724 79.2469 16.3724C79.8062 16.3724 81.7987 18.2251 81.7987 18.7495C81.7987 18.9242 81.3443 19.7632 80.75 20.6022C79.2469 22.8394 79.3518 24.3775 81.1346 25.2864C81.6589 25.566 82.5328 25.8107 83.0572 25.8107C84.3506 25.8107 85.2944 26.7545 85.2944 28.013C85.2944 29.3763 84.3855 30.3551 83.1271 30.3551C82.5678 30.3551 81.6589 30.5998 81.1346 30.8794C79.3867 31.7883 79.2469 33.3264 80.7151 35.5287C81.8686 37.2066 81.7987 38.0456 80.4704 39.0943C79.3168 40.0031 78.9672 39.9682 77.4291 38.7447C75.8211 37.4863 74.5277 37.4163 73.2693 38.5699C72.6051 39.1991 72.3604 39.7584 72.3604 40.7023C72.3604 42.3452 71.5215 43.2891 70.0882 43.2891C68.5501 43.2891 67.9209 42.6599 67.7112 40.8421C67.5014 39.0943 66.243 37.696 64.8797 37.696C64.4252 37.696 63.4814 38.1504 62.7473 38.7447C61.1393 40.0381 60.8247 40.0381 59.4614 38.8845C58.2729 37.9057 58.0631 36.6473 58.937 35.9132C59.6012 35.3539 60.4751 33.7109 60.4751 32.9768C60.4751 31.8932 58.5525 30.3551 57.1892 30.3551C55.6511 30.3551 54.8821 29.586 54.8821 28.0829C54.8821 26.5798 55.6511 25.8107 57.1892 25.8107C59.007 25.8107 60.6499 24.0978 60.3353 22.5597C60.2304 21.9655 59.7061 21.0566 59.2516 20.5672C58.0981 19.3437 58.168 18.3649 59.4614 17.2813C60.8247 16.1277 61.1393 16.1277 62.7473 17.4211C63.4814 17.9804 64.4252 18.4698 64.8797 18.4698C66.208 18.4698 67.4315 17.1065 67.7811 15.1839C67.9559 14.24 68.3054 13.3661 68.5501 13.1913C69.3541 12.7019 71.0321 12.8418 71.7312 13.471ZM39.571 17.2813C40.8994 19.5535 42.787 19.5535 44.3251 17.2463C44.8495 16.3724 45.3738 16.0228 45.9681 16.0228C47.0867 16.0228 48.3801 17.2813 48.0655 18.0503C47.5411 19.4136 47.5062 20.7769 48.0305 21.4411C48.45 22.0354 48.9394 22.1403 50.9319 22.1403C53.1692 22.1403 53.309 22.2102 53.7634 23.0841C54.3228 24.2726 54.0431 24.797 52.4351 25.8806C51.3864 26.5798 51.2116 26.8944 51.2116 28.0829C51.2116 29.2714 51.3864 29.586 52.4351 30.2852C54.0431 31.3688 54.3228 31.8932 53.7634 33.0817C53.309 33.9556 53.1692 34.0255 50.9669 34.0255C49.0443 34.0255 48.5199 34.1654 48.0655 34.7247C47.5411 35.3889 47.5411 36.7871 48.0655 38.1155C48.3801 38.8845 47.0867 40.143 45.9681 40.143C45.3389 40.143 44.8844 39.7934 44.395 38.9894C42.9968 36.6473 40.8994 36.6123 39.571 38.8845C38.9767 39.8633 38.5922 40.143 37.7882 40.143C36.2501 40.143 35.551 39.2691 35.8656 37.7309C36.2152 35.9482 36.1103 35.249 35.4112 34.48C34.8868 33.8857 34.5372 33.8158 32.8244 34.0255C30.9367 34.2353 30.7969 34.2003 30.2376 33.3614C29.3986 32.1029 29.7831 30.9493 31.2513 30.2502C33.3837 29.2365 33.3837 26.8944 31.2513 25.8806C29.7831 25.2164 29.3986 24.0629 30.2376 22.8044C30.7969 21.9655 30.9367 21.9305 32.8244 22.1403C34.4673 22.315 34.8868 22.2801 35.3762 21.7208C36.1103 20.9168 36.1802 20.3575 35.8306 18.7145C35.516 17.1065 36.2851 16.0228 37.8232 16.0228C38.5922 16.0228 38.9767 16.3025 39.571 17.2813ZM56.7697 42.4152C57.0494 42.6948 57.364 43.2192 57.5038 43.6037C57.7835 44.5126 59.2516 45.1068 60.2304 44.7223C60.6849 44.5475 61.419 43.8134 61.8035 43.1492C62.6075 41.7859 63.3765 41.5762 64.635 42.4501C65.3341 42.9395 65.404 43.2192 65.1943 44.5475C65.0894 45.4214 65.0894 46.4002 65.1943 46.8197C65.5439 47.8684 66.9421 48.2879 68.3754 47.7635C69.3891 47.414 69.6338 47.4489 70.263 48.0082C71.4166 49.0569 71.1719 50.3853 69.6687 51.3641C67.6063 52.6924 67.6413 54.4403 69.7387 55.8036C71.0321 56.6076 71.2768 57.4465 70.5776 58.7399C70.2281 59.3692 69.9834 59.4041 68.2705 59.1944C66.6974 59.0196 66.243 59.0895 65.6487 59.5789C65.0545 60.1382 64.9846 60.4878 65.1943 62.2007C65.404 63.9835 65.3691 64.2631 64.7399 64.5777C63.4465 65.2769 62.6075 65.0322 61.8035 63.7388C60.4402 61.6413 58.6923 61.6064 57.364 63.6688C56.3852 65.172 55.0568 65.4167 54.0081 64.2631C53.4488 63.6339 53.4139 63.3892 53.7634 62.3754C54.2878 60.9422 53.8683 59.5439 52.8196 59.1944C52.4001 59.0895 51.4213 59.0895 50.5474 59.1944C49.2191 59.4041 48.9394 59.3342 48.45 58.6351C47.5761 57.3766 47.7858 56.6076 49.1492 55.8036C51.3514 54.5102 51.4213 52.203 49.254 51.3291C46.6323 50.2105 48.1354 46.9246 50.862 47.8334C52.9594 48.5326 54.5674 46.9945 53.8683 44.967C53.344 43.5338 53.3789 43.3939 54.1829 42.5899C55.0219 41.751 56.0356 41.6811 56.7697 42.4152Z" fill="#CB9E00"/>
<path d="M67.1519 22.9094C65.404 23.7833 64.2155 25.7759 64.1806 28.048C64.1106 33.8509 71.4166 36.0531 74.9472 31.299C75.5065 30.53 75.6813 29.7959 75.6813 28.083C75.6813 25.6011 75.087 24.4825 73.0596 23.0842C71.6613 22.1404 68.8997 22.0355 67.1519 22.9094Z" fill="#CB9E00"/>
<path d="M40.0255 23.5035C35.7258 25.496 35.9705 31.3338 40.4449 32.837C44.6747 34.2352 48.485 29.3762 46.1429 25.566C44.8495 23.4336 42.1578 22.5247 40.0255 23.5035Z" fill="#CB9E00"/>
<path d="M56.2454 50.2455C55.0219 51.4341 54.8821 51.7836 54.8821 53.2868C54.8821 55.4541 55.756 56.9572 57.5038 57.7612C61.4539 59.6489 65.6488 55.4541 63.7611 51.504C62.9571 49.7561 61.4539 48.8822 59.2866 48.8822C57.7835 48.8822 57.4339 49.022 56.2454 50.2455Z" fill="#CB9E00"/>
</svg>
