<svg width="350" height="188" viewBox="0 0 350 188" fill="none" xmlns="http://www.w3.org/2000/svg">
<path d="M36.8783 0.68692C20.6601 4.20116 10.7949 12.9613 6.45629 27.6804C5.73319 30.1761 4.75183 35.9313 4.13203 41.1772C3.20232 49.4281 2.27262 53.5535 0.929706 55.2851C0.619804 55.6417 0.568154 56.151 0.774755 56.4566C1.18796 57.1187 2.22097 56.5584 5.16503 53.9609C7.54095 51.8728 8.26406 51.4653 8.26406 52.3821C8.26406 53.3498 5.62989 59.7671 4.33863 61.9571C3.04737 64.0962 3.04737 64.1472 4.02873 65.5223C5.78484 67.967 6.92115 72.2962 6.9728 76.4216C6.9728 78.5607 7.1794 80.4961 7.386 80.6998C7.5926 80.9035 6.8695 81.5656 5.83649 82.1259C3.71882 83.2973 0 87.7792 0 89.1544C0 90.5805 0.826406 90.2239 1.54951 88.5941C2.37592 86.506 5.83649 83.2464 7.5926 82.8898C8.36736 82.6861 11.2081 82.5333 13.8423 82.4824L18.5941 82.4315L19.937 85.3855C20.6601 86.9643 21.3832 88.8997 21.5382 89.6637C21.9514 91.8028 20.4019 91.4972 18.6974 89.1035C17.0963 86.8115 16.8897 86.7606 12.6543 86.7606C9.03881 86.7606 8.41901 87.7792 11.3114 89.0525C17.4578 91.7519 19.3689 92.9233 19.5238 93.9928C19.7821 95.5717 18.7491 95.4698 15.0819 93.6363C12.0862 92.1593 9.60696 91.7009 9.09046 92.5158C8.62561 93.2798 9.50366 93.9419 13.0159 95.6226C16.4765 97.3034 17.5611 98.4239 16.5281 99.4425C16.1666 99.799 15.2369 99.6971 13.584 99.086C12.1895 98.6276 10.6916 98.2201 10.2268 98.2201C8.41901 98.2201 9.34871 99.7481 11.8279 101.021C14.772 102.498 15.2369 102.957 14.2555 103.772C13.739 104.179 13.0159 104.128 11.3631 103.568C8.57396 102.6 7.02445 102.6 6.19804 103.568C5.16503 104.79 4.18368 104.485 3.04737 102.549C2.42757 101.582 1.75611 100.919 1.49786 101.072C0.774755 101.531 0.929706 102.091 2.37592 103.772C3.87378 105.503 5.37164 105.758 6.7662 104.536C7.64425 103.721 7.74755 103.772 8.26406 105.147C9.29706 107.897 9.96852 108.865 11.3114 109.425C12.1895 109.782 12.9642 110.647 13.3774 111.768C14.1522 113.805 16.0633 115.282 17.5611 114.875C18.3875 114.671 18.8524 115.027 19.6271 116.555C20.8667 118.949 22.5196 120.171 24.0691 119.815C24.9988 119.56 25.257 119.764 25.5669 121.088C25.7735 121.954 26.4966 123.38 27.2197 124.195C28.9758 126.283 31.3518 126.283 33.831 124.144L35.6387 122.565V124.297C35.6387 125.316 36.1552 126.843 36.8267 127.811C37.8081 129.288 38.3762 129.594 40.2356 129.696C42.1983 129.848 42.6115 129.645 44.161 128.066C46.1238 125.978 47.3117 125.723 47.7766 127.302C47.9832 127.862 48.8096 129.135 49.6876 130.103C50.9272 131.529 51.5987 131.835 53.1999 131.835C54.9043 131.835 55.4725 131.529 56.867 129.848L58.5715 127.862L59.9661 129.339C61.4639 130.969 63.2717 131.224 64.8212 130.103C65.441 129.696 66.5256 129.492 67.7653 129.696C70.2445 130.001 72.1039 128.881 72.5687 126.742C72.7753 125.876 73.2402 125.01 73.6534 124.857C74.0149 124.755 74.4798 124.195 74.6348 123.635C74.893 122.82 75.1513 122.769 76.0293 123.227C78.1986 124.348 80.5745 122.463 80.5745 119.611C80.5745 118.847 80.9361 118.593 82.0724 118.593C83.8802 118.593 84.6549 117.727 85.0681 115.333C85.3264 113.754 85.533 113.55 86.5143 113.805C88.1671 114.213 89.8716 112.277 89.8716 110.087C89.8716 108.559 89.9749 108.406 91.1112 108.712C92.6091 109.068 94.0036 107.795 94.0036 106.114C94.0036 105.452 94.5718 104.332 95.2949 103.619C96.3279 102.6 96.5861 101.836 96.5861 99.7481V97.2015L92.9706 94.9096C84.4483 89.409 71.7423 85.4873 62.6519 85.4873C61.2057 85.4873 59.8628 85.3345 59.7595 85.0799C59.6045 84.8762 60.0694 83.501 60.7408 81.9731C61.9804 79.2228 61.9804 79.2228 63.9431 79.5793C64.9761 79.7321 67.2487 80.0377 68.9532 80.1905C72.8786 80.5979 73.6017 79.8849 74.0149 75.5048C74.1699 73.7732 74.5831 71.8378 74.9446 71.1757C75.3062 70.5136 75.6678 68.5782 75.7711 66.8975C75.9777 62.8739 76.1326 62.5683 77.8887 62.5683C81.2976 62.5683 81.3493 60.0727 78.0437 51.9237C76.9074 48.9697 75.926 46.3213 75.926 46.0157C75.926 45.7101 77.6821 44.3349 79.9031 42.9598C84.5516 40.0567 91.4211 34.7599 91.4211 34.0468C91.4211 33.4866 89.4067 32.1624 73.3435 22.3836C65.6992 17.7489 59.5012 13.5725 57.6934 11.8918L54.6977 9.09055L57.3319 5.32165C58.7264 3.23346 59.7594 1.39995 59.5012 1.29808C57.2802 -0.0770569 42.3533 -0.484497 36.8783 0.68692ZM56.7121 1.70552C58.1583 2.16391 58.1066 2.36763 56.4022 4.30302C55.1626 5.72909 54.7494 5.88188 52.8383 5.67816C50.9272 5.47443 50.6173 5.27071 50.6173 4.20116C50.6173 2.92787 49.6876 2.57137 48.7063 3.53906C48.2931 3.94651 47.8282 3.94651 47.1051 3.53906C45.6073 2.77509 45.4523 2.82602 45.4523 4.20116C45.4523 5.16885 45.0908 5.52538 43.9028 5.78003C41.9917 6.18748 41.3203 5.78003 41.3203 4.20116C41.3203 2.67322 40.5972 2.6223 39.6158 4.04837C38.996 4.9142 38.6345 5.01605 37.8081 4.55767C36.2585 3.74277 36.1552 3.84464 36.2585 5.5763C36.4135 7.00237 36.2069 7.25703 34.4508 7.8682C32.5397 8.53031 32.5397 8.53032 31.8166 6.90052L31.1452 5.27071L30.4221 6.69679C29.8539 7.91914 29.544 8.12286 28.2527 7.8682C26.7549 7.56261 26.7032 7.71541 27.7362 10.4148C27.8395 10.6694 27.4263 11.3825 26.8582 11.8918C25.8252 12.8085 25.7735 12.8085 24.6372 11.739L23.4493 10.6185L22.8811 12.1974C22.3646 13.4706 22.1063 13.6744 20.97 13.3688C19.3689 13.0123 19.3172 13.3178 20.6085 15.1514C21.5898 16.4756 21.5898 16.5265 20.6085 17.6979C19.6788 18.8184 19.5755 18.8693 18.3359 18.0544C17.0446 17.2395 17.0446 17.2395 17.0446 18.7675C17.0446 19.9898 16.7347 20.4482 15.6501 20.8557L14.2038 21.365L15.4435 22.2817C16.5798 23.1476 16.6314 23.3513 16.0116 25.0829C15.5984 26.4072 15.1852 26.9165 14.6687 26.7127C14.2555 26.56 13.584 26.2544 13.1708 26.1016C12.3444 25.7451 12.2411 26.1016 12.8609 27.6804C13.1192 28.3425 12.9642 29.0046 12.2928 29.7177C11.3114 30.6854 11.3631 30.7363 12.6543 31.1438C14.0489 31.6021 14.2038 32.2643 13.4291 34.2506C13.0159 35.371 12.706 35.5238 11.3114 35.2183L9.65862 34.9127L10.5883 36.4915C11.518 37.9685 11.518 38.1213 10.6916 39.0381C9.65861 40.1586 10.0202 40.6679 11.7246 40.6679C12.8093 40.6679 12.9126 40.8716 12.9126 43.3672C12.9126 45.8629 12.2928 47.2889 11.2598 47.2889C11.0532 47.2889 10.8466 46.8306 10.8466 46.2194C10.8466 44.4368 9.60696 45.4554 9.24541 47.5436C8.93551 49.4281 8.52231 49.8864 4.95843 52.4839L3.46057 53.5535L3.77048 52.0765C3.97708 51.2616 4.59688 46.8306 5.16503 42.1958C5.73319 37.5611 6.71454 31.7549 7.33435 29.2593C9.45201 20.3463 14.9786 12.4011 22.5196 7.56262C26.29 5.11792 33.676 2.36765 38.8411 1.50182C41.7851 0.941574 54.801 1.14528 56.7121 1.70552ZM49.0678 6.13654C49.0678 6.79865 48.6546 7.05331 47.7766 7.05331C46.8469 7.05331 46.4853 6.79865 46.4853 6.08562C46.4853 5.37258 46.8469 5.11793 47.7766 5.21979C48.6546 5.27072 49.0678 5.5763 49.0678 6.13654ZM40.8038 7.10424C40.8038 7.76634 38.5312 8.021 38.118 7.40983C37.4982 6.44213 37.6531 6.13654 38.8927 5.93282C39.9257 5.78002 40.7521 6.28934 40.8038 7.10424ZM50.514 8.42845C49.4294 8.53031 47.57 8.53031 46.382 8.42845C45.1424 8.32658 46.0205 8.22472 48.2931 8.22472C50.5657 8.22472 51.547 8.32658 50.514 8.42845ZM31.7133 9.39614C32.0749 10.3638 32.1265 10.3129 30.6287 11.0259C29.7506 11.4843 29.4923 11.4843 29.2341 10.8222C28.7176 9.54893 28.8725 9.09055 29.6989 9.39614C30.1122 9.59987 30.4737 9.44707 30.4737 9.14149C30.4737 8.27566 31.3518 8.47938 31.7133 9.39614ZM42.7148 8.88683C42.5599 9.03962 42.095 9.09055 41.7335 8.93777C41.3203 8.78497 41.4752 8.63217 42.0434 8.63217C42.6115 8.58124 42.9214 8.73403 42.7148 8.88683ZM52.735 10.1092C53.768 10.4148 55.5241 11.4843 56.7121 12.5539C58.7781 14.4893 58.8814 14.6421 58.8814 17.647C58.8814 26.9165 52.0119 37.8667 42.1983 44.1312C37.8597 46.8815 32.1782 49.6318 31.7133 49.1734C31.5584 49.0206 31.5584 47.9001 31.765 46.6778C32.0749 45.048 32.7463 43.9275 34.6574 41.9921C36.1552 40.5151 37.3949 38.6306 37.7048 37.612C38.3246 35.3201 40.0807 33.6394 42.25 33.2319C44.7808 32.7226 47.8282 29.8195 48.8096 26.9674C49.5843 24.6246 51.2371 22.3327 52.1152 22.3327C52.3735 22.3327 52.9416 22.8929 53.4065 23.6059C54.4911 25.2357 55.6791 25.2357 56.0923 23.6059C56.5055 21.9761 55.2659 20.0917 53.1999 19.0221C51.4954 18.1563 50.514 18.411 48.8612 20.2445C47.7249 21.4668 47.0018 21.2122 47.0018 19.6333C47.0018 18.8184 47.4667 18.3091 48.5513 17.9016C50.9272 17.0358 50.669 15.1004 47.9315 13.1651C45.194 11.1787 43.6962 11.2297 41.6302 13.2669C40.2873 14.5911 39.8741 15.5079 39.6158 17.5961C39.4609 19.0731 38.996 20.8047 38.6345 21.4159C38.0663 22.4345 37.9114 21.9252 37.6531 16.9849C37.4465 13.8781 37.3949 11.2806 37.4981 11.1787C37.6015 11.0259 39.151 10.6694 40.9587 10.3129C44.9875 9.54893 50.3074 9.44707 52.735 10.1092ZM36.2585 17.3414C36.4135 20.0917 36.4651 22.3327 36.3618 22.3327C36.2585 22.3327 35.1222 21.6196 33.831 20.7029C31.4034 19.0221 31.0419 18.2582 32.2298 17.2905C32.643 16.9849 33.4694 15.5079 34.0892 14.0818C34.709 12.6557 35.3805 11.739 35.6387 11.9427C35.8453 12.1974 36.1552 14.6421 36.2585 17.3414ZM33.0562 13.5725C33.0562 14.3365 30.2155 17.9016 26.3933 21.9252C21.5382 27.0183 19.0073 28.037 21.0733 24.0134C22.5196 21.2631 26.5483 16.9849 29.6473 14.8967C32.3331 13.1141 33.0562 12.8595 33.0562 13.5725ZM47.0018 14.0309C48.3447 14.9476 49.0678 15.7116 49.0678 16.3228C49.0678 16.934 47.1051 16.8321 46.7436 16.2209C46.1238 15.2532 45.4523 15.7116 45.4523 17.0867C45.4523 19.2259 46.4337 22.1799 47.2084 22.4855C47.6216 22.6382 48.5513 22.078 49.3777 21.2631C50.1525 20.4482 51.2371 19.7861 51.7536 19.7861C52.89 19.7861 55.3692 22.2308 54.956 22.9438C54.801 23.1985 54.2845 22.9438 53.8713 22.3836C52.9933 21.0594 51.0822 21.0085 49.9459 22.2308C49.5327 22.6892 48.448 24.6246 47.57 26.509C45.9688 30.0742 44.2643 31.6531 41.217 32.2642C39.2026 32.7226 36.6717 35.2182 36.6717 36.7971C36.6717 37.612 35.742 39.14 33.8826 41.1263C31.5584 43.7238 31.0419 44.6915 30.5254 47.238C30.1638 49.0715 29.5956 50.3448 29.1308 50.5485C27.5296 51.1597 29.2857 43.3163 31.2485 41.1772C32.6947 39.5983 32.6947 37.8667 31.1968 36.135C29.9056 34.6071 29.8022 34.5562 29.1824 35.422C28.8209 35.9313 28.2527 37.2046 27.8912 38.3251C27.2714 40.2095 24.1207 44.2331 23.2427 44.2331C23.0361 44.2331 23.6042 42.3486 24.4823 40.0058C25.7735 36.7462 26.5483 35.5748 27.8912 34.658C28.8725 34.0468 29.6989 33.181 29.7506 32.7226C29.9055 31.8059 37.6015 23.7587 38.7894 23.2494C39.8224 22.842 40.1323 21.9761 40.8038 17.9016C41.5269 13.5216 44.0061 11.9936 47.0018 14.0309ZM24.9988 14.1327C25.1537 14.3365 24.7922 14.9986 24.224 15.5079C23.346 16.3228 23.0877 16.3228 22.7262 15.7116C22.3646 15.1514 22.4679 14.8967 22.9844 14.7948C23.3976 14.693 23.7592 14.3874 23.7592 14.1327C23.7592 13.5725 24.6372 13.5216 24.9988 14.1327ZM61.5156 17.0867C62.2387 25.796 57.2802 35.9822 48.9645 42.9598C47.6733 44.0803 46.537 45.3026 46.537 45.6591C46.4853 46.0157 47.1051 47.4417 47.8282 48.8678C48.5513 50.2939 49.0162 51.5672 48.9129 51.669C48.8096 51.7709 48.0865 51.4144 47.3634 50.8541C45.2974 49.2243 42.8698 49.0206 41.2686 50.2939C39.2543 51.8218 38.2729 54.2665 37.3949 60.0727C36.5684 65.726 35.9486 67.203 33.7277 69.2912C31.9716 70.921 29.9572 71.7359 27.5813 71.7359C25.7219 71.7359 21.6931 70.0043 21.6931 69.1894C21.6931 68.2726 22.7262 68.1707 24.0174 68.9856C24.7405 69.444 26.3933 69.8515 27.7879 69.8515C32.3331 69.9024 34.4508 67.4068 35.8453 60.2255C36.5684 56.3038 37.2915 50.8541 37.0333 50.8541C36.93 50.8541 34.6574 51.5162 32.0232 52.3821C26.5483 54.0628 26.1867 54.1137 26.445 53.4007C26.5483 53.0951 29.0275 51.8728 32.0232 50.7013C35.0189 49.5299 39.3059 47.3908 41.5785 46.0157C46.537 42.9598 53.3032 36.4406 55.7307 32.3152C57.7967 28.9028 59.8111 22.5873 60.0177 18.8184C60.121 17.1377 60.4309 16.2209 60.8441 16.2209C61.154 16.2209 61.5156 16.6284 61.5156 17.0867ZM63.3233 21.365C63.1167 23.0457 62.7552 24.9302 62.4969 25.5413C62.0321 26.6618 62.187 23.9115 62.8068 19.888C63.2717 16.9849 63.6849 18.1563 63.3233 21.365ZM71.5874 22.842C75.2029 25.0829 77.8371 26.9674 77.4239 27.1202C75.2029 27.7823 74.0666 27.7823 72.7753 27.1202C70.7093 26.1016 68.0235 26.2034 66.474 27.4258C64.9761 28.5972 63.8398 31.5003 64.253 33.0282C64.408 33.5885 64.6662 34.4543 64.8212 35.0145C65.0794 35.7785 64.7695 36.0331 63.3233 36.2878C61.0507 36.6953 59.7078 38.7834 58.933 43.1635C58.3132 46.7796 57.6934 47.7983 56.0923 47.7983C53.0449 47.7473 52.4768 44.284 55.1109 41.5846C59.8628 36.5425 63.5299 28.75 64.3563 21.6706C64.5629 20.0917 64.7695 18.7675 64.8728 18.7675C64.9761 18.7675 68.0235 20.601 71.5874 22.842ZM19.6271 21.0085C19.6271 22.1289 18.2326 23.0457 17.7677 22.2817C17.5611 21.9252 17.6644 21.5178 17.9743 21.4159C18.3359 21.314 18.5941 20.9066 18.5941 20.4991C18.5941 20.0408 18.8524 19.888 19.1106 20.0408C19.4205 20.1936 19.6271 20.6519 19.6271 21.0085ZM71.6907 27.8332C72.1555 28.1388 71.9489 28.4444 70.9676 29.0046C70.1928 29.4121 69.2631 30.4307 68.8499 31.3475C68.0235 33.3847 68.0235 33.5375 68.8499 33.5375C69.2115 33.5375 69.7796 32.8754 70.0895 32.0096C70.3994 31.1947 71.2775 30.227 72.0522 29.8705C73.2918 29.3102 73.5501 29.3612 74.1699 30.227C75.1513 31.5003 75.0996 34.8108 74.0666 35.7785C72.4654 37.4083 67.9719 37.4592 66.6806 35.8804C65.6992 34.7599 65.3893 31.6531 66.0608 30.0233C66.9905 27.9351 69.9346 26.7637 71.6907 27.8332ZM15.9083 29.1065C16.0116 29.6158 15.7017 30.1251 15.2369 30.2779C14.1522 30.6854 13.9456 30.4307 14.3071 29.0556C14.617 27.7823 15.6501 27.8332 15.9083 29.1065ZM83.3637 30.0233C85.2231 31.1947 86.7726 32.2133 86.7726 32.2642C86.7726 32.3661 83.467 34.6071 79.4382 37.2555C73.1885 41.33 59.5528 48.6641 59.1396 48.2057C58.8814 47.951 60.4826 41.4319 61.2573 39.7511C62.7552 36.3387 66.3707 36.3387 66.3707 39.7002C66.3707 41.3809 66.319 41.4319 64.3563 41.33C62.6519 41.2281 62.4969 41.2791 63.0134 41.9412C63.375 42.3486 64.3047 42.7051 65.1311 42.7051C66.8355 42.7051 68.4367 40.7698 68.0235 39.1909C67.8169 38.3251 68.1785 38.2232 70.8643 38.0195C75.6678 37.6629 77.114 35.371 75.7711 30.1251C75.3062 28.4444 75.4612 28.3425 79.1283 27.986C79.5932 27.986 81.5042 28.9028 83.3637 30.0233ZM60.9991 29.8195C60.3793 30.8382 60.276 30.5326 60.7408 29.2084C60.9474 28.75 61.2057 28.4953 61.309 28.6481C61.4639 28.75 61.309 29.3102 60.9991 29.8195ZM22.7778 31.2966C28.4593 32.468 28.2527 32.3661 26.445 34.0978C25.5669 34.9636 24.3273 36.9499 23.7592 38.5288C23.1394 40.1077 22.1063 42.4505 21.3832 43.6728L20.1436 45.9138L22.0547 45.6082C24.8955 45.1498 26.3933 43.7747 28.3044 40.0058C29.2857 38.1213 30.2671 36.6953 30.5254 36.899C31.1452 37.2555 31.0935 40.0058 30.4737 40.4132C29.3374 41.1263 27.7879 44.997 27.478 48.002L27.1164 51.1088L24.8438 51.2616C21.7448 51.4653 19.0073 49.6827 17.8194 46.525C17.0446 44.5896 16.9413 43.2654 17.2512 38.7325C17.6128 32.8245 17.9743 30.4817 18.5941 30.4817C18.8007 30.4817 20.7118 30.8382 22.7778 31.2966ZM60.0177 32.1115C59.6561 32.468 59.3979 32.5189 59.3979 32.2133C59.3979 31.5003 60.0177 30.8891 60.3792 31.2456C60.4826 31.3984 60.3276 31.8059 60.0177 32.1115ZM57.0736 37.1536C55.6791 39.14 53.2515 41.8902 51.6503 43.3163L48.7579 45.8119L50.2558 48.9697C51.0822 50.7013 51.8053 52.1783 51.9086 52.2802C51.9602 52.3821 53.6131 51.8218 55.4725 51.0579C57.3835 50.3448 59.0363 49.8355 59.1913 49.9883C59.3462 50.1411 57.6418 50.956 55.4208 51.7709L51.3921 53.3498L49.7393 50.192C48.8096 48.4604 48.0865 46.7287 48.0348 46.3722C48.0348 46.0157 49.8426 43.9784 52.0635 41.7884C54.2845 39.6493 56.7637 36.7462 57.5385 35.422C58.3649 34.0978 59.1396 33.1301 59.2946 33.2829C59.4495 33.4357 58.4682 35.1673 57.0736 37.1536ZM86.9792 34.3524C81.6592 38.5797 60.8958 50.4467 60.121 49.6827C59.966 49.5808 62.4969 48.1548 65.6992 46.525C72.827 42.9598 78.5602 39.5474 83.6736 35.9313C85.7912 34.3524 87.6506 33.2319 87.7539 33.3338C87.9089 33.4357 87.5473 33.894 86.9792 34.3524ZM89.3551 34.7089C84.1901 38.6816 81.6592 40.4132 76.1843 43.8256C73.9633 45.1498 62.8585 50.5995 58.6748 52.3311C54.6461 54.0628 55.3692 53.2479 59.5012 51.3634C70.0895 46.6778 79.9031 41.2281 85.9462 36.5934C87.6506 35.2183 89.3551 34.1487 89.6133 34.0978C89.9233 34.0978 89.7683 34.3524 89.3551 34.7089ZM14.4621 37.8667C14.4621 38.7834 14.2038 39.14 13.5324 39.14C12.706 39.14 12.3961 38.0704 12.8609 36.6953C12.9126 36.6443 13.2741 36.5934 13.6873 36.5934C14.1522 36.5934 14.4621 37.0518 14.4621 37.8667ZM15.8567 42.2977C15.7534 43.2144 15.6501 42.5014 15.6501 40.6679C15.6501 38.8344 15.7534 38.1213 15.8567 38.9872C15.96 39.9039 15.96 41.4319 15.8567 42.2977ZM53.4065 48.2566C53.8197 48.6132 54.6461 48.9187 55.2142 48.9697C56.5571 49.0715 56.6088 49.6318 55.4208 49.9883C54.9043 50.0902 54.1296 50.3958 53.6647 50.5485C53.0449 50.8032 52.4767 50.3448 51.4954 48.6641C50.3074 46.525 50.3074 46.3213 51.0822 45.5573C51.8569 44.7933 51.9086 44.8443 52.2701 46.1685C52.5284 46.9834 52.9933 47.951 53.4065 48.2566ZM16.5281 46.7287C16.5281 48.3585 19.7304 51.3634 22.4679 52.2802L25.0504 53.197L24.9988 56.7621C24.9988 60.7348 23.2427 65.2677 20.7634 67.8142L19.3689 69.2912L20.9184 70.5136C21.7964 71.1757 22.9844 71.8887 23.6559 72.0415C25.6702 72.6017 24.6372 74.9955 21.8997 76.116C20.7118 76.6253 20.2469 77.0837 20.5052 77.4911C20.7118 77.8477 21.8481 79.5284 23.0877 81.26L25.3603 84.4687H23.2943C21.4865 84.4687 21.0733 84.265 20.4019 82.9408C19.6788 81.5147 19.4205 81.4128 16.7347 81.4128H13.8423L14.2038 79.834C14.4104 78.9681 14.3071 77.6439 13.9456 76.829C13.1708 74.9446 13.9456 71.0229 16.0116 66.6937L17.5611 63.536L15.2369 58.8503C13.9972 56.2528 12.6543 52.9423 12.2928 51.4144C11.673 48.715 11.673 48.715 13.1192 47.6455C13.9456 47.0852 14.8236 46.3213 15.1852 45.9647C15.9083 45.2008 16.5281 45.5573 16.5281 46.7287ZM76.959 52.3821C78.147 55.4889 79.18 58.7485 79.2316 59.6652C79.2833 61.1932 79.18 61.295 77.2689 61.4478C74.1182 61.7025 72.827 61.2441 72.827 59.7671C72.827 59.0541 72.5687 58.4938 72.2588 58.4938C71.2258 58.4938 72.0006 61.7534 73.1885 62.3136C73.9116 62.6192 74.3765 63.3323 74.4798 64.5037C74.738 66.6428 73.86 67.6614 71.7423 67.6614C70.9159 67.6614 70.2445 67.8651 70.2445 68.1707C70.2445 68.4254 71.0192 68.68 72.0006 68.68C74.2215 68.68 74.5831 69.1894 73.6017 71.0229C73.1885 71.8378 72.827 73.8241 72.827 75.403C72.827 77.6439 72.6204 78.4079 71.9489 78.7644C70.2445 79.6302 60.8441 77.8477 57.1253 75.9632C54.5428 74.639 51.0305 71.0229 49.7909 68.4254C48.2414 65.1658 48.2414 62.772 49.7909 59.3596L50.9789 56.6094L57.6934 54.0119C61.3606 52.5349 64.6662 51.3634 65.0794 51.3634C65.4926 51.3634 66.8355 51.8218 67.9719 52.3311C69.1598 52.8914 70.3994 53.0951 70.761 52.8914C71.1225 52.6877 71.4841 51.5162 71.5874 50.2939C71.7423 48.1548 73.3951 45.9138 74.3765 46.525C74.5831 46.6268 75.7194 49.2753 76.959 52.3821ZM70.2445 50.3448C70.2445 52.0765 70.2445 52.0765 68.4367 51.2616C66.8355 50.5485 66.7839 49.9374 68.3334 49.3262C70.0895 48.6132 70.2445 48.715 70.2445 50.3448ZM41.6302 52.6877C41.1137 53.4007 40.5972 53.8591 40.4422 53.7063C40.2873 53.5535 40.5455 52.8404 41.0104 52.0765C41.5269 51.3634 42.0434 50.9051 42.1983 51.0579C42.3533 51.2106 42.095 51.9237 41.6302 52.6877ZM45.4523 51.1597C45.4523 51.8727 41.7335 56.4056 40.5455 57.1696C38.4795 58.4938 38.996 57.0677 41.5785 54.3684C42.8698 53.0442 43.9028 51.669 43.9028 51.3634C43.9028 51.1088 44.2643 50.8541 44.6775 50.8541C45.0908 50.8541 45.4523 51.0069 45.4523 51.1597ZM47.3117 54.3684C46.382 56.0491 43.7478 58.4938 40.9587 60.2255C38.9444 61.4478 38.7378 61.4987 38.7378 60.6329C38.7378 60.0727 39.5642 59.1559 40.6488 58.4429C41.7335 57.7808 43.4896 55.9982 44.6259 54.5212C46.1754 52.4839 46.7952 51.9746 47.3117 52.433C47.8799 52.8914 47.8799 53.197 47.3117 54.3684ZM12.6543 56.2019C13.4291 58.1373 14.5137 60.5311 15.0819 61.4478L16.1149 63.1285L14.772 66.1335C14.0489 67.7633 13.1708 70.3608 12.8093 71.9396C12.4994 73.5185 12.0862 74.7918 11.8796 74.7918C11.673 74.7918 11.3631 72.5508 11.2081 69.8005C10.8466 64.4018 10.7433 52.0765 11.0532 52.433C11.1565 52.5349 11.8796 54.2156 12.6543 56.2019ZM35.6387 53.7063C35.6387 54.1137 35.3805 56.1 35.0706 58.0864C33.831 65.8279 31.9199 68.68 27.8395 68.68C26.1867 68.68 25.0504 68.3745 24.224 67.6614L22.9844 66.6428L24.5339 66.9993C27.1164 67.6614 29.8539 67.4068 30.9386 66.4391C32.2815 65.2167 33.4178 62.2627 34.2958 57.577C34.864 54.4193 34.864 53.91 34.2442 54.1137C32.3331 54.8777 27.2197 55.9472 26.9615 55.7435C26.4966 55.2851 26.9098 55.0814 30.732 54.0119C35.2255 52.7386 35.6387 52.6877 35.6387 53.7063ZM54.7494 53.8591C54.3362 54.1137 53.4065 54.4193 52.6833 54.623C51.5987 54.8777 51.6503 54.7758 52.9416 54.1647C54.5944 53.4007 56.0406 53.146 54.7494 53.8591ZM9.71026 64.4528C9.60696 70.3098 9.34871 75.0464 9.09046 75.0464C8.88386 75.0464 8.21241 73.3657 7.6959 71.2775C7.1794 69.1894 6.24969 66.6937 5.62989 65.726L4.59688 63.9434L6.09474 61.0913C6.9728 59.5124 7.95415 57.2715 8.31571 56.0491C8.67726 54.8777 9.14211 53.91 9.40036 53.91C9.65861 53.91 9.76192 58.6466 9.71026 64.4528ZM49.5843 54.674C49.5843 54.8268 49.0162 56.1 48.2931 57.5261C47.3117 59.3596 46.2787 60.4801 44.5226 61.5497C40.9587 63.6888 39.9257 64.8602 38.7378 68.4763C37.7564 71.3285 37.3432 71.8378 35.1222 73.2129C33.0046 74.4862 32.3331 75.352 30.7836 78.5098C29.0791 82.0749 28.2527 82.9408 26.5483 82.9408C25.3603 82.9408 25.7219 81.9731 27.6329 79.783C28.6143 78.6116 30.0089 76.4216 30.7836 74.8427C31.61 73.1111 32.7463 71.5831 33.7277 70.9719C34.709 70.3608 36.0519 68.5782 37.1882 66.49C38.7378 63.5869 39.6158 62.6192 43.128 60.1236C45.4007 58.4938 47.57 56.5584 47.9832 55.7945C48.6546 54.5721 49.5843 53.91 49.5843 54.674ZM32.798 58.0864C31.8166 64.4018 30.6287 66.1335 27.5296 66.1335C24.3273 66.1335 24.0691 65.6751 25.3087 62.6192C25.8768 61.1932 26.3417 59.4106 26.3417 58.7485C26.3417 57.7298 26.7549 57.4243 28.8209 56.8131C32.9529 55.5398 33.2112 55.5907 32.798 58.0864ZM44.8842 64.249C42.0434 66.7447 40.4939 69.1894 40.029 71.8887C39.7708 73.1111 39.151 74.1297 38.3762 74.6899C35.3805 76.7272 33.9343 78.306 32.3848 81.1582C30.9902 83.7557 30.4737 84.2141 29.1824 84.3668L27.6329 84.5196L28.8209 83.6538C29.4923 83.1954 30.732 81.3619 31.5067 79.6302C32.643 77.0837 33.5727 76.0141 35.7937 74.3843C38.4279 72.449 40.2873 69.5968 40.2873 67.4577C40.2873 66.3372 42.3016 64.1472 44.316 63.0776C47.3117 61.5497 47.4667 61.9062 44.8842 64.249ZM47.9315 66.8975C49.3261 71.7359 53.2515 75.8104 58.2616 77.6439C59.6045 78.1532 60.7408 78.5607 60.8441 78.6116C60.8958 78.6626 60.3276 80.0886 59.5528 81.7184C58.3649 84.265 58.1583 85.4364 58.1583 89.5109C58.1066 93.1779 58.2616 94.3494 58.8297 94.5531C59.3462 94.7059 59.4495 94.5022 59.2429 93.6873C58.8297 92.0575 60.0694 92.6177 60.6375 94.2984C61.0507 95.4189 60.9474 95.8773 59.9144 96.9469C58.8814 98.0164 58.2616 98.2201 55.834 98.2201C52.0635 98.1692 49.7909 97.0996 44.161 92.6686C41.5785 90.6823 37.7564 88.1867 35.6387 87.1171C33.5211 86.0985 31.6617 85.1817 31.5584 85.1308C31.4551 85.029 31.7133 84.5706 32.1265 84.1122C32.5914 83.6029 33.5211 82.0749 34.1925 80.7507C34.9156 79.2737 36.4135 77.5421 37.9114 76.4216C39.9774 74.8937 40.5972 74.0278 41.217 71.9906C41.9917 69.2403 43.3863 67.0502 45.4523 65.2677C46.9502 63.9944 47.1568 64.1472 47.9315 66.8975ZM27.3747 73.0601C27.3747 74.3334 23.9658 78.357 22.8811 78.357C21.7964 78.357 22.1063 77.5421 23.5009 76.6253C24.1724 76.1669 25.1537 75.0974 25.5669 74.2825C26.2384 72.9583 27.3747 72.1943 27.3747 73.0601ZM29.9572 73.2639C29.9572 74.1806 28.0461 77.5421 26.445 79.3756C25.257 80.7507 24.7405 81.0054 24.2757 80.547C23.7592 80.0886 24.1207 79.4775 25.7219 77.8477C26.8582 76.6253 28.0978 74.9955 28.4593 74.2315C29.0275 72.8055 29.9572 72.2452 29.9572 73.2639ZM13.1708 77.7458C14.3071 80.6489 9.76192 82.6352 8.26406 79.8849C7.5926 78.6626 8.41901 76.4725 9.65862 76.2179C10.8982 75.9632 12.7576 76.7781 13.1708 77.7458ZM34.9673 88.0848C38.3762 89.8674 48.0348 96.8959 48.0348 97.609C48.0348 97.7108 47.7249 97.609 47.415 97.3543C38.5312 90.6314 32.5914 87.0153 30.4737 87.0153C29.9572 87.0153 29.3374 86.7606 29.1824 86.506C28.4593 85.3855 31.1452 86.0985 34.9673 88.0848ZM64.8212 87.4737C65.1311 88.5432 64.408 90.8351 63.5299 91.3444C62.7035 91.8537 58.6231 87.8302 59.088 87.0662C59.2946 86.7606 60.5859 86.506 61.9804 86.506C63.9948 86.506 64.5629 86.7097 64.8212 87.4737ZM23.6042 88.8997C24.0174 89.9693 24.8438 91.4972 25.412 92.2612C26.2384 93.3817 26.29 93.84 25.8252 94.4003C24.8438 95.5208 23.346 95.3171 22.4163 93.891C21.6415 92.7196 21.6415 92.5668 22.4679 91.8028C22.9328 91.3444 23.191 90.5805 23.0361 90.1221C22.2613 87.5755 22.1063 87.0153 22.4163 87.0153C22.6229 87.0153 23.1394 87.8811 23.6042 88.8997ZM27.8912 87.5755C30.6803 88.1358 30.9902 88.696 29.9572 91.2935C29.0275 93.6873 26.9615 92.8214 25.1021 89.2053C23.8108 86.6588 23.7592 86.7097 27.8912 87.5755ZM69.2115 88.5432C69.2115 90.4786 67.8169 91.1916 66.8355 89.8165C65.5959 88.1358 65.9058 87.0153 67.662 87.0153C69.0565 87.0153 69.2115 87.1681 69.2115 88.5432ZM17.4062 89.3581L18.1293 90.4786L15.0303 89.3581C11.0015 87.932 10.8466 87.6774 14.0489 88.0339C15.96 88.2376 16.838 88.5941 17.4062 89.3581ZM72.9303 88.0339C73.6534 88.0339 72.9819 90.5805 71.9489 91.7009C71.0709 92.6686 69.4697 92.9233 69.0049 92.1593C68.8499 91.9047 69.0565 91.5991 69.4697 91.4463C69.8313 91.2935 70.3478 90.3258 70.5544 89.3072C70.8126 87.983 71.1225 87.5246 71.639 87.7283C72.0522 87.8811 72.6204 88.0339 72.9303 88.0339ZM76.3909 89.0016C77.4755 89.6637 76.6491 92.0575 75.1513 92.7196C74.4281 93.0252 73.7567 93.1779 73.6534 93.0761C73.2402 92.6686 74.5831 88.5432 75.1513 88.5432C75.4095 88.5432 75.9777 88.7469 76.3909 89.0016ZM35.1739 90.173C37.4981 91.4463 37.5498 91.7519 36.1552 93.9928C34.9673 95.9792 33.676 96.132 32.0749 94.4512C31.0935 93.3817 30.9386 92.8724 31.2485 91.1407C31.6617 88.696 32.2815 88.5432 35.1739 90.173ZM79.8514 90.3258C80.3679 91.65 79.5415 93.6363 78.2503 94.2475C76.4942 95.0115 76.081 94.4003 77.114 92.6686C77.5788 91.8537 77.992 90.8351 77.992 90.3767C77.992 89.3581 79.4899 89.3072 79.8514 90.3258ZM60.4826 90.937C61.154 91.7519 61.1024 91.8028 60.3276 91.1407C59.8111 90.7842 59.3979 90.3767 59.3979 90.2749C59.3979 89.8674 59.8111 90.1221 60.4826 90.937ZM67.662 92.4649C67.662 92.8214 67.1971 93.5854 66.5773 94.1966C65.7509 95.0115 65.3893 95.1133 64.7695 94.604C63.8398 93.84 63.8398 93.3307 64.9245 91.9047C65.6476 90.937 66.0091 90.8351 66.7322 91.2935C67.2487 91.5991 67.662 92.1084 67.662 92.4649ZM83.2087 91.0898C83.7252 91.3954 84.1901 91.9556 84.1901 92.363C84.1901 93.6873 83.0021 95.6736 81.9691 95.9792C80.2646 96.5394 79.8514 95.4698 80.8328 92.9233C81.8658 90.3258 81.8141 90.3767 83.2087 91.0898ZM40.8554 93.9928C41.9401 94.8077 42.8698 95.7754 42.8698 96.1829C42.8698 97.558 40.8554 100.257 39.8224 100.257C38.8927 100.257 36.1552 97.609 36.1552 96.6922C36.1552 96.132 38.2213 92.6177 38.5828 92.6177C38.7378 92.6177 39.7191 93.2289 40.8554 93.9928ZM87.4957 93.2798C88.632 94.0947 88.4254 97.0996 87.1858 97.9145C85.6363 98.8313 84.5 97.2524 84.9648 94.7059C85.3264 92.5158 85.9462 92.1593 87.4957 93.2798ZM30.4737 94.655C30.732 95.0624 30.9902 95.8264 30.9902 96.2847C30.9902 97.2524 29.2341 99.2388 28.4077 99.2388C27.6846 99.2388 25.8252 97.3034 25.8252 96.5394C25.8252 94.4512 29.4407 93.0252 30.4737 94.655ZM72.0006 94.8077C71.3808 96.8959 70.1412 97.2015 69.0049 95.5717C67.9719 94.1456 68.1785 93.891 70.5027 93.7891C72.2072 93.7382 72.3105 93.7891 72.0006 94.8077ZM75.1513 95.1133C75.7194 96.8959 74.2732 98.5767 72.9303 97.7618C72.4654 97.5071 72.4654 96.9978 72.9303 95.7754C73.6534 93.9419 74.6864 93.6363 75.1513 95.1133ZM24.8955 97.4562C25.5153 98.2201 25.3603 99.4425 24.6372 100.461C22.9328 102.753 19.3172 98.6785 20.5568 95.9282L21.1766 94.604L22.8295 95.7754C23.7592 96.4375 24.6889 97.1506 24.8955 97.4562ZM91.3178 95.2661C91.8343 95.9282 92.0926 97.558 91.9893 99.5953C91.9376 101.123 90.0782 101.174 89.6133 99.7481C89.2001 98.4748 89.7683 94.655 90.3881 94.655C90.5947 94.655 91.0079 94.9605 91.3178 95.2661ZM62.4969 96.1829C62.4969 96.7941 61.8771 97.8127 61.1024 98.5257C59.3462 100.156 58.933 99.7481 60.6375 98.0673C61.3606 97.3034 61.9804 96.3866 61.9804 95.9282C61.9804 95.5208 62.0837 95.1643 62.2387 95.1643C62.3936 95.1643 62.4969 95.6226 62.4969 96.1829ZM78.4569 99.5953C77.8371 100.257 77.7338 100.257 77.114 99.4425C76.7524 98.9332 76.4425 97.9145 76.4425 97.1506C76.4425 96.081 76.7008 95.7245 77.6305 95.5717C78.5602 95.4698 78.7668 95.6736 78.9217 97.0996C79.025 98.0164 78.8184 99.1369 78.4569 99.5953ZM67.7136 96.3866C68.3334 97.2015 67.0938 99.7481 66.0608 99.7481C64.9761 99.7481 63.2717 97.558 63.6849 96.5903C63.9431 95.8264 67.2487 95.6736 67.7136 96.3866ZM18.4908 96.7941C18.8524 97.1506 19.1106 97.7618 19.1106 98.2711C19.1106 98.7294 19.5755 99.6971 20.1436 100.41C21.4349 101.989 21.4349 102.6 20.2986 103.059C19.6788 103.262 19.0073 102.957 18.2326 102.04C17.2512 100.97 17.1479 100.563 17.6644 99.7481C18.1293 99.035 18.1293 98.4748 17.6644 97.5071C17.0446 96.132 17.4578 95.7754 18.4908 96.7941ZM34.2442 97.1506C36.3618 97.9655 36.9816 101.378 35.2772 102.651C34.2442 103.415 32.9013 102.804 31.7133 101.021C30.9902 99.9518 30.9902 99.4934 31.5067 98.2201C32.2298 96.5394 32.3848 96.4885 34.2442 97.1506ZM47.2084 99.9518C46.0721 103.772 44.5226 104.587 42.7665 102.244L41.7335 100.919L43.0764 98.7804L44.4193 96.6922L45.9688 97.8127C47.1051 98.6276 47.4667 99.1878 47.2084 99.9518ZM95.5531 99.5443C95.5531 101.327 94.6234 103.313 93.797 103.313C92.8157 103.313 92.3508 101.938 92.9706 100.767C93.2805 100.257 93.4871 99.086 93.4871 98.1692C93.4871 96.5903 93.4871 96.5394 94.5201 97.4562C95.0883 97.9655 95.5531 98.8822 95.5531 99.5443ZM81.5042 101.378C81.3493 104.332 80.3679 105.147 79.5415 103.008C78.8701 101.276 80.4196 96.5394 81.1943 97.9145C81.4526 98.3729 81.6075 99.9009 81.5042 101.378ZM84.345 98.5257C85.4297 99.9518 85.1714 102.295 83.9835 102.295C83.312 102.295 82.6406 100.206 82.6406 98.1692C82.6406 96.845 83.2087 96.9978 84.345 98.5257ZM71.639 98.5257C72.0522 99.5953 70.6577 100.869 69.573 100.461C68.695 100.156 68.3851 98.6785 69.0565 98.0673C69.6763 97.4052 71.3291 97.7108 71.639 98.5257ZM65.0794 101.785C65.0794 104.026 61.7222 104.587 60.9474 102.498C60.276 100.818 60.276 100.97 61.5156 99.799L62.6519 98.7804L63.8398 99.9009C64.5113 100.512 65.0794 101.378 65.0794 101.785ZM75.926 101.123C75.926 102.498 74.9446 103.16 74.3248 102.244C73.6534 101.174 73.7567 99.3406 74.5314 99.086C75.3062 98.8313 75.926 99.6462 75.926 101.123ZM56.2989 99.7481C56.2989 100.054 55.6791 100.156 54.956 100.054C52.9416 99.6971 52.7867 99.2388 54.6461 99.2388C55.5758 99.2388 56.2989 99.4934 56.2989 99.7481ZM88.7869 100.818C89.5617 103.008 89.51 105.096 88.6836 105.758C87.444 106.777 86.6176 105.554 86.3594 102.346C86.1528 99.4934 86.2044 99.2388 87.1858 99.2388C87.9089 99.2388 88.4254 99.7481 88.7869 100.818ZM28.9242 100.257C31.0935 100.257 31.4551 103.772 29.4407 104.841C28.1494 105.554 26.9615 104.994 26.0318 103.262C25.412 102.04 25.412 101.633 25.9285 100.767C26.29 100.206 26.9098 99.8499 27.2714 100.003C27.6846 100.156 28.4077 100.257 28.9242 100.257ZM50.9789 100.308C52.9416 100.97 53.6131 103.364 52.4251 105.198C50.3591 108.305 46.8985 104.332 48.3447 100.563C48.7063 99.5953 48.9645 99.5953 50.9789 100.308ZM19.5238 106.318C19.4205 106.777 18.8007 107.184 18.1809 107.286C16.4765 107.541 15.4435 106.013 15.805 103.924C16.0116 102.957 15.8567 101.938 15.4435 101.378C15.0819 100.919 15.9083 101.633 17.2512 103.008C18.5941 104.383 19.6271 105.86 19.5238 106.318ZM68.2301 101.276C68.9016 101.633 69.2115 102.346 69.2115 103.517C69.2115 105.758 68.1268 106.675 66.6806 105.758C65.441 104.994 65.3893 104.739 66.2157 102.447C66.9389 100.563 66.8355 100.563 68.2301 101.276ZM72.827 101.734C72.827 103.415 71.8456 105.35 71.0192 105.35C69.8829 105.35 69.9862 102.346 71.1742 101.48C72.4138 100.512 72.827 100.614 72.827 101.734ZM40.3389 101.785C40.8038 101.785 41.4236 102.396 41.7851 103.11C42.3016 104.23 42.25 104.688 41.5785 105.707C40.4939 107.337 38.7894 107.082 37.6015 105.096C36.4135 103.059 36.8783 101.072 38.4279 101.48C38.996 101.633 39.8741 101.785 40.3389 101.785ZM59.3979 102.244C59.3979 104.332 58.4165 105.962 57.2286 105.758C56.1956 105.605 53.7164 102.753 53.7164 101.734C53.7164 101.48 55.0076 101.276 56.5571 101.276C59.0363 101.276 59.3979 101.429 59.3979 102.244ZM78.3019 104.637C78.5602 106.929 78.4569 107.642 77.7854 108.305C77.0107 109.068 76.8557 109.068 76.4425 108.406C75.7194 107.337 75.8227 104.281 76.5458 102.702C77.4239 100.869 77.8371 101.327 78.3019 104.637ZM24.7922 103.873C25.412 105.249 25.3603 105.554 24.3273 106.522C23.5009 107.388 23.0361 107.49 22.3646 107.082C20.5568 105.962 20.3502 104.943 21.6931 103.568C23.2943 101.887 24.0174 101.938 24.7922 103.873ZM92.1959 103.619C93.1772 105.096 92.8673 107.388 91.731 107.388C90.9563 107.388 90.3881 105.86 90.3881 103.67C90.3881 101.938 91.0596 101.887 92.1959 103.619ZM34.9156 104.128C36.0003 103.721 36.8783 106.267 36.2069 107.744C35.0189 110.291 31.5067 108.457 31.5067 105.3C31.5067 103.619 31.9199 103.211 33.1595 103.873C33.7277 104.179 34.5024 104.281 34.9156 104.128ZM85.533 105.809C85.8945 108.203 85.378 109.578 83.9835 109.832C83.3637 109.985 83.1571 109.629 83.1571 108.559C83.1571 107.795 83.0021 106.318 82.8472 105.35C82.5889 103.721 82.6405 103.568 83.8802 103.568C85.0681 103.568 85.2231 103.823 85.533 105.809ZM74.8414 106.267C74.7897 107.286 74.6348 108.712 74.4281 109.425C74.0149 110.851 72.4138 111.411 71.7423 110.342C71.0709 109.323 71.1742 106.98 72.0006 106.522C72.3621 106.318 72.9303 105.605 73.2918 104.943C74.1182 103.364 74.893 104.026 74.8414 106.267ZM12.8093 105.198C14.5654 105.503 15.0303 106.624 13.8423 107.795C12.7576 108.865 11.3631 108.457 10.3301 106.726C9.03881 104.688 9.03881 104.128 10.2268 104.587C10.6916 104.79 11.8796 105.045 12.8093 105.198ZM47.9315 105.86C49.2228 107.49 49.1195 109.119 47.6733 109.629C46.3304 110.138 44.9874 109.476 44.161 107.897C43.0247 105.758 43.1797 104.943 44.8325 104.688C45.6073 104.587 46.3304 104.485 46.4853 104.434C46.6403 104.434 47.2601 105.045 47.9315 105.86ZM63.5299 106.878C63.5299 107.642 63.1167 108.814 62.5486 109.476C61.7222 110.495 61.4123 110.596 60.276 110.087C58.4165 109.221 58.1066 107.693 59.4495 105.911C60.4309 104.587 60.6892 104.485 62.0321 104.943C63.22 105.351 63.5299 105.758 63.5299 106.878ZM56.4538 108.406C56.0406 109.883 54.9043 110.596 53.5098 110.24C51.6503 109.782 51.2888 108.101 52.6833 106.573L53.8713 105.401L55.2659 106.369C56.2989 107.082 56.6604 107.693 56.4538 108.406ZM81.8141 107.133C82.1757 109.068 81.4009 111.157 80.4196 110.8C79.7481 110.596 79.2833 107.235 79.7481 106.064C80.2646 104.688 81.5042 105.351 81.8141 107.133ZM30.7836 107.642C31.1452 109.068 30.2155 110.953 29.1308 110.953C27.6329 110.953 26.445 109.934 26.0834 108.406C25.6186 106.318 25.9285 106.064 28.356 106.267C30.0605 106.42 30.5254 106.726 30.7836 107.642ZM66.3707 106.98C67.9719 107.693 68.0751 109.272 66.5773 111.157C64.6662 113.55 61.9804 112.328 63.7365 109.832C64.2014 109.221 64.5629 108.152 64.5629 107.541C64.5629 106.165 64.6146 106.165 66.3707 106.98ZM70.2445 108.508C70.2445 109.425 69.9862 111.055 69.6763 112.073C69.2631 113.601 68.9016 114.009 67.9202 114.009C66.474 114.009 65.8025 113.245 66.7839 112.634C67.8169 112.073 68.695 110.24 68.695 108.763C68.695 108.101 68.8499 107.388 69.0565 107.235C69.7796 106.471 70.2445 106.98 70.2445 108.508ZM41.217 107.846C42.1983 107.49 42.5082 107.642 42.9731 108.712C43.4896 109.782 43.4379 110.291 42.8698 111.309C41.1137 114.314 39.0477 114.111 37.7564 110.8C36.8267 108.406 37.2399 107.235 38.8411 107.846C39.5125 108.101 40.5455 108.101 41.217 107.846ZM88.8386 108.967C88.8386 111.055 88.0122 112.481 86.7209 112.481C85.3264 112.481 84.9132 111.106 85.9462 109.985C86.411 109.476 86.7726 108.712 86.7726 108.254C86.7726 107.744 87.1858 107.388 87.8056 107.388C88.632 107.388 88.8386 107.744 88.8386 108.967ZM17.2512 108.661C18.7491 109.272 19.1106 109.731 19.1106 110.851C19.1106 112.532 18.5941 113.347 17.5611 113.499C16.0116 113.754 15.4951 113.449 14.6687 111.921C13.9972 110.596 13.9456 110.087 14.5137 109.119C14.8753 108.457 15.1852 107.897 15.2369 107.897C15.3402 107.897 16.2182 108.254 17.2512 108.661ZM23.6042 108.406C25.1021 108.406 25.6186 110.138 24.5856 111.717C24.1207 112.43 23.3976 112.99 22.9844 112.99C21.9514 112.99 20.1436 110.495 20.1436 109.018C20.1436 107.999 20.3502 107.846 21.3316 108.101C21.9514 108.254 22.9844 108.406 23.6042 108.406ZM51.1338 110.036C52.735 111.921 51.547 115.027 49.2744 115.027C48.448 115.027 47.8282 114.518 47.2601 113.499C46.2271 111.513 46.2787 110.953 47.5183 110.953C48.0865 110.953 48.8096 110.495 49.1711 109.934C49.9975 108.661 49.9975 108.661 51.1338 110.036ZM36.7234 111.666C37.1882 112.685 37.1882 113.347 36.8267 113.958C35.6387 115.842 33.5727 114.926 32.2815 111.87L31.5067 109.985L33.831 110.087C35.8453 110.189 36.2069 110.393 36.7234 111.666ZM59.088 110.902C60.2243 112.175 59.7595 113.856 58.055 114.62C57.0736 115.078 56.6088 115.027 55.7824 114.263C54.3362 112.99 54.4911 111.87 56.1956 110.851C58.0033 109.782 58.055 109.782 59.088 110.902ZM78.5085 112.328C78.5085 115.486 77.9404 116.453 76.7524 115.282C76.2359 114.773 75.926 113.601 75.926 112.175C75.926 110.138 76.0293 109.934 77.2173 109.934C78.4052 109.934 78.5085 110.087 78.5085 112.328ZM45.8139 113.398C46.6919 115.893 46.6403 117.319 45.6589 118.083C44.5226 119.051 42.25 118.134 41.6818 116.555C41.2686 115.486 41.4752 114.976 42.8181 113.55C43.6962 112.634 44.4193 111.615 44.4193 111.309C44.4193 110.393 45.0908 111.411 45.8139 113.398ZM84.0868 112.43C84.3967 114.314 83.6736 117.116 82.8472 117.421C81.5042 117.931 80.058 116.097 80.058 113.907C80.058 112.328 80.213 111.972 81.091 111.972C81.6592 111.972 82.124 111.717 82.124 111.411C82.124 110.342 83.9318 111.259 84.0868 112.43ZM31.4551 113.296C32.2298 114.976 30.9386 117.523 29.3374 117.574C28.2011 117.574 25.5669 113.041 26.1351 111.972C26.1867 111.819 27.2714 111.768 28.5626 111.87C30.4221 112.022 30.9902 112.328 31.4551 113.296ZM61.9804 112.43C61.9804 112.685 62.7035 113.143 63.5816 113.449C64.9245 113.907 65.1311 114.213 64.8728 115.129C64.7179 115.791 64.5629 116.606 64.5629 116.912C64.5629 117.268 63.9948 117.931 63.2717 118.389C61.7222 119.357 60.0694 118.949 59.2946 117.319C58.8814 116.352 58.9847 115.944 59.8628 115.078C60.4826 114.467 60.9474 113.55 60.9474 112.99C60.9474 112.43 61.2057 111.972 61.4639 111.972C61.7738 111.972 61.9804 112.175 61.9804 112.43ZM74.893 113.041C74.893 113.55 74.6348 114.569 74.3765 115.282C73.705 117.065 71.7423 116.861 71.0709 114.976C70.3478 112.939 70.9159 112.175 73.0336 112.175C74.4282 112.175 74.893 112.379 74.893 113.041ZM55.1109 115.129C56.0923 116.097 56.3505 116.81 56.0923 117.727C55.7307 119.255 53.5098 120.324 52.2185 119.611C50.9272 118.949 50.3074 116.504 51.2888 115.944C51.702 115.74 52.3218 114.824 52.735 113.958C53.1482 112.939 53.5098 112.583 53.6131 113.041C53.768 113.449 54.4395 114.365 55.1109 115.129ZM23.7592 113.805C24.9988 113.601 25.257 113.754 25.5153 114.875C25.8768 116.199 24.7405 118.593 23.7075 118.593C22.5196 118.593 21.2283 117.523 20.7118 115.995C19.8337 113.449 19.937 112.837 21.2283 113.55C21.8481 113.856 22.9844 114.009 23.7592 113.805ZM40.2356 116.097C41.062 118.542 40.9587 119.509 39.5125 120.885C37.963 122.463 37.4465 122.463 35.897 120.885C35.0189 120.07 34.6057 119.102 34.6057 117.829C34.6057 116.301 34.7607 116.046 35.8453 116.046C36.5168 116.046 37.3432 115.69 37.7048 115.282C38.7378 114.06 39.6158 114.365 40.2356 116.097ZM33.831 120.477C34.1409 121.801 33.9859 122.311 32.9013 123.38C30.2155 126.029 27.2714 124.297 26.5483 119.611C26.1867 117.574 26.2384 117.421 27.1681 117.778C29.2857 118.644 30.0089 118.694 31.2485 117.88C31.9716 117.421 32.5914 116.657 32.5914 116.148C32.643 115.69 32.8496 116.097 33.0562 117.065C33.2628 118.032 33.6244 119.56 33.831 120.477ZM68.695 117.319C68.695 118.44 68.2818 119.509 67.662 120.121C66.4223 121.343 66.1124 121.343 64.8212 120.426C63.8915 119.764 63.8915 119.713 64.9761 118.338C65.5959 117.574 66.1124 116.606 66.1124 116.25C66.1124 115.842 66.6806 115.537 67.4037 115.537C68.54 115.537 68.695 115.74 68.695 117.319ZM49.5843 117.574C49.5843 118.032 50.0492 119.051 50.6173 119.764C51.6503 121.037 51.6503 121.19 50.8756 122.667C49.9975 124.399 48.0348 125.519 46.7952 125.061C45.9172 124.704 44.6775 122.973 44.2127 121.343C43.9544 120.477 44.2127 120.121 45.4007 119.611C46.2271 119.306 47.2084 118.338 47.5183 117.574C48.1898 115.995 49.5843 115.995 49.5843 117.574ZM78.2503 116.861C79.4382 116.555 79.5415 116.657 79.5415 118.338C79.5415 119.357 79.2833 120.63 79.025 121.19C77.7854 123.431 74.893 121.445 74.893 118.287C74.893 116.403 75.3579 115.842 76.2359 116.606C76.6491 116.912 77.5272 117.014 78.2503 116.861ZM72.9819 117.778C74.0149 118.083 74.2215 121.547 73.3435 123.227C72.5687 124.602 69.9346 124.552 69.1598 123.125C68.3334 121.496 70.0379 116.453 71.2258 117.065C71.6907 117.319 72.4654 117.625 72.9819 117.778ZM59.3462 119.153C61.1024 120.885 61.1024 122.412 59.3462 123.991C58.5198 124.704 58.1066 124.755 57.0736 124.297C55.0076 123.38 54.5944 121.648 56.0923 120.07C56.7637 119.357 57.3319 118.542 57.3319 118.185C57.3319 117.268 57.5901 117.421 59.3462 119.153ZM42.8698 120.783C42.8698 121.394 43.2313 122.565 43.6962 123.431C44.7808 125.468 44.2127 127.098 42.095 128.117C39.9257 129.135 37.963 128.473 37.1882 126.436C36.3102 124.195 36.5684 123.431 38.3246 122.922C39.3059 122.616 40.4422 121.75 41.062 120.834C42.1983 119.051 42.8698 119.051 42.8698 120.783ZM63.8915 121.139C64.6146 121.699 65.5443 122.158 65.9058 122.158C66.9905 122.158 66.7839 124.908 65.5959 127.251C64.3563 129.645 62.8585 130.256 61.3606 128.932C59.6045 127.353 59.4495 126.232 60.7925 124.297C61.4123 123.329 61.9804 122.005 61.9804 121.343C61.9804 119.866 62.2387 119.815 63.8915 121.139ZM56.0923 125.163C57.3835 126.13 57.4352 126.334 56.8154 127.76C55.4208 131.122 52.4251 131.733 50.4107 129.135C48.7579 126.996 48.7579 126.385 50.3591 125.112C51.0822 124.552 52.0635 123.38 52.5284 122.514L53.3548 120.885L54.0263 122.463C54.3878 123.38 55.3175 124.552 56.0923 125.163ZM69.8829 125.163C71.4841 125.978 71.6907 127.506 70.2961 128.27C68.8499 128.983 67.1454 128.881 67.1454 128.066C67.1454 126.691 67.8169 124.144 68.1268 124.297C68.2818 124.399 69.0565 124.806 69.8829 125.163Z" fill="black"/>
<path d="M125.517 67.7034C121.341 68.6027 115.653 72.2817 112.989 75.7154C107.734 82.5011 105.286 93.4563 106.654 104.248C107.59 112.178 109.533 117.002 113.709 121.825C120.981 130.246 134.876 132.208 146.828 126.404L149.851 124.932V117.492C149.851 113.486 149.707 110.134 149.491 110.134C149.347 110.134 147.476 111.606 145.46 113.323C136.46 121.008 125.949 119.373 121.701 109.562C119.253 104.003 119.253 92.557 121.557 87.5699C126.309 77.4323 135.236 75.6336 144.452 82.8281C147.044 84.7902 149.275 86.4253 149.491 86.4253C149.707 86.4253 149.851 83.0734 149.851 79.0674V71.6276L146.684 70.0743C140.492 67.1311 132.284 66.15 125.517 67.7034Z" fill="#842031"/>
<path d="M172.817 67.867C161.658 71.4642 155.754 80.6208 155.034 95.4185C154.602 104.984 155.682 110.952 158.706 116.757C163.098 125.096 171.089 129.756 180.953 129.756C195.28 129.756 205.144 119.782 206.584 103.758C208.599 81.7654 199.456 67.9487 182.321 67.1312C178.577 66.9677 174.833 67.213 172.817 67.867ZM186.569 79.8033C188.296 80.7843 189.736 82.7465 191.248 86.0167C193.192 90.3497 193.408 91.4943 193.408 98.607C193.336 105.474 193.12 106.946 191.464 110.625C188.728 116.593 185.633 118.637 180.017 118.146C176.561 117.819 175.337 117.329 173.537 115.367C170.513 112.097 169.289 109.235 168.498 103.349C167.562 97.0536 168.786 88.3876 171.017 84.6268C174.617 78.4952 181.169 76.4513 186.569 79.8033Z" fill="#842031"/>
<path d="M215.366 98.6885V128.938H221.486H227.534L227.75 118.882L227.966 108.908L235.885 108.499C244.957 108.009 247.981 106.619 252.3 101.223C258.852 92.9657 258.348 78.822 251.22 72.6086C247.261 69.0114 244.093 68.4391 229.334 68.4391H215.366V98.6885ZM241.501 82.3375C243.373 84.7084 243.589 85.4442 243.229 89.1232C242.797 94.519 240.709 96.7264 235.309 97.4622C227.894 98.525 227.966 98.6068 227.75 89.3684C227.678 84.8719 227.75 80.7024 227.966 80.0483C228.254 79.0673 229.477 78.9038 233.869 79.2308C238.981 79.6396 239.557 79.8848 241.501 82.3375Z" fill="#842031"/>
<path d="M264.324 98.6885V128.938H270.804H277.284V118.719V108.499L284.339 108.417C292.115 108.336 294.419 107.682 299.098 103.921C303.706 100.242 305.722 95.0913 305.722 87.2428C305.722 80.0483 304.282 75.9606 300.61 72.7721C296.147 69.0114 293.771 68.5208 278.579 68.4391H264.324V98.6885ZM288.443 80.2118C291.467 81.6834 292.403 83.6456 292.403 88.3874C292.403 94.7643 288.515 97.7892 280.379 97.871H277.284V88.4691V79.0673H281.603C283.979 79.0673 287.075 79.5578 288.443 80.2118Z" fill="#842031"/>
<path d="M313.282 98.6885V128.938H331.641H350V123.215V117.492H338.121H326.242V109.725V101.959H337.401H348.56V96.2359V90.513H337.401H326.242V85.1989V79.8848H338.121H350V74.1619V68.4391H331.641H313.282V98.6885Z" fill="#842031"/>
<path d="M231.926 153.22C231.926 175.13 233.15 181.67 237.974 185.595C239.846 187.148 241.142 187.393 246.326 187.393C253.669 187.393 256.045 185.922 258.709 179.79C260.293 176.193 260.365 174.885 260.581 156.899L260.869 137.931H258.277H255.685V156.326C255.685 176.52 255.253 178.891 251.365 181.589C248.413 183.469 243.374 183.306 240.926 181.098C237.326 177.91 236.966 175.539 236.966 155.918V137.931H234.446H231.926V153.22Z" fill="#695E5E"/>
<path d="M270.805 162.458V186.984H272.965H275.124V175.13V163.275H283.404H291.684V160.414V157.552H283.404H275.124V150.603V143.654H284.484H293.844V140.793V137.931H282.324H270.805V162.458Z" fill="#695E5E"/>
<path d="M300.322 162.458V186.984H302.482H304.642V177.174V167.363H308.458L312.202 167.445L318.321 177.174L324.441 186.984H327.465H330.561L323.577 176.193C319.545 170.061 316.953 165.319 317.385 165.156C321.345 163.602 324.081 157.961 324.081 151.257C324.081 141.447 319.833 138.013 307.738 137.931H300.322V162.458ZM314.074 143.654C317.961 144.88 319.401 147.169 319.329 152.157C319.257 159.596 316.233 162.458 308.53 162.458H304.642V152.647V142.836H308.098C309.97 142.836 312.634 143.245 314.074 143.654Z" fill="#695E5E"/>
<path d="M337.04 140.384C337.04 142.837 337.04 142.837 341.072 142.837H345.031L344.815 160.823C344.599 178.155 344.527 178.809 342.943 180.608C341.288 182.57 336.824 183.142 333.656 181.834C332.144 181.18 332 181.425 332 183.96C332 187.148 333.008 187.802 338.336 187.802C342.655 187.802 345.895 185.84 347.695 182.161C349.207 179.136 349.279 177.991 349.279 158.452V137.931H343.159H337.04V140.384Z" fill="#695E5E"/>
</svg>
