<svg width="39" height="35" viewBox="0 0 39 35" fill="none" xmlns="http://www.w3.org/2000/svg">
<path fill-rule="evenodd" clip-rule="evenodd" d="M28.7616 0.625C31.276 0.625 33.6947 1.61875 35.4741 3.40188C37.2553 5.18125 38.251 7.58125 38.251 10.0938V24.9062C38.251 30.1375 33.9947 34.375 28.7616 34.375H10.2385C5.00535 34.375 0.750977 30.1375 0.750977 24.9062V10.0938C0.750977 4.8625 4.9866 0.625 10.2385 0.625H28.7616ZM31.7447 12.8875L31.8947 12.7375C32.3429 12.1937 32.3429 11.4062 31.8741 10.8625C31.6135 10.5831 31.2554 10.4125 30.8822 10.375C30.4885 10.3544 30.1135 10.4875 29.8304 10.75L21.376 17.5C20.2885 18.4019 18.7304 18.4019 17.626 17.5L9.18848 10.75C8.60535 10.3187 7.7991 10.375 7.31348 10.8812C6.80723 11.3875 6.75098 12.1937 7.18035 12.7562L7.42598 13L15.9572 19.6562C17.0072 20.4813 18.2804 20.9312 19.6135 20.9312C20.9429 20.9312 22.2385 20.4813 23.2866 19.6562L31.7447 12.8875Z" fill="#001540"/>
</svg>
