<svg width="80" height="121" viewBox="0 0 80 121" fill="none" xmlns="http://www.w3.org/2000/svg">
<path d="M38.5968 3.26818C34.5496 13.5097 28.5072 25.7274 23.13 34.6009C20.9448 38.2111 18.4367 42.1063 13.6104 49.3837C8.44217 57.1551 7.22611 59.1122 5.40201 62.6084C2.68487 67.8146 1.22179 72.2039 0.366742 77.7142C-0.0702815 80.4503 -0.127285 87.8417 0.252736 90.1598C1.63981 98.6533 5.49702 105.722 11.5773 110.947C18.8167 117.16 27.7852 120.428 38.5778 120.77C44.4301 120.96 49.8454 120.181 55.2987 118.357C67.4023 114.291 76.0858 105.323 78.9359 93.941C79.829 90.3688 80 88.8298 80 84.2695C80 77.3341 78.993 72.2229 76.4848 66.3706C74.4897 61.7343 72.8366 58.9412 65.3692 47.6926C56.9138 34.9429 53.7596 29.6226 48.9333 19.9511C45.9692 14.0418 42.188 5.51031 40.4779 0.893059C40.2879 0.399033 40.0789 7.62939e-06 40.0219 7.62939e-06C39.9459 7.62939e-06 39.2998 1.48209 38.5968 3.26818ZM49.9404 53.3929C50.2254 54.4949 50.5674 55.445 50.7004 55.54C50.8144 55.616 51.4415 55.977 52.0495 56.338L53.1706 57.0031L54.8997 56.547C55.8497 56.3 56.7808 56.034 56.9518 55.958C57.1988 55.863 57.4268 56.053 57.8638 56.737C58.1678 57.2311 58.4338 57.7441 58.4338 57.8581C58.4338 57.9721 57.7688 58.7132 56.9518 59.5302L55.4697 60.9933L55.4887 62.5134L55.5077 64.0334L56.9898 65.5345C58.4338 66.9976 58.4909 67.0546 58.2628 67.5866C58.1488 67.8716 57.8638 68.3657 57.6168 68.6507L57.1988 69.1637L55.1657 68.6127L53.1516 68.0616L52.4485 68.5367C52.0685 68.7837 51.4795 69.1257 51.1375 69.2587C50.5294 69.5247 50.4724 69.6197 49.9594 71.6338L49.4084 73.724H48.2303H47.0522L46.6722 72.4319C46.4632 71.7288 46.1972 70.7978 46.0832 70.3418C45.9312 69.7527 45.7412 69.4677 45.3611 69.2967C45.0761 69.1827 44.5061 68.8597 44.0881 68.5747L43.309 68.0616L41.2379 68.5937C40.0979 68.8977 39.0908 69.0877 39.0148 69.0497C38.9198 68.9927 38.6538 68.5367 38.3878 68.0426L37.9318 67.1306L39.4518 65.6295L40.9529 64.1284V62.6084V61.0883L39.4138 59.5112L37.8937 57.9531L38.4068 57.0031C39.0148 55.882 39.0528 55.882 41.4849 56.528L43.252 57.0221L44.3351 56.338C44.9431 55.977 45.5132 55.673 45.6272 55.673C45.7412 55.673 46.0262 54.9699 46.2542 54.0959C46.4822 53.2409 46.7672 52.2528 46.8622 51.9108L47.0712 51.2838L48.2303 51.3408L49.4084 51.3978L49.9404 53.3929ZM33.1245 70.8548L34.3216 72.9069L35.6896 73.0399C36.4497 73.0969 37.2667 73.1919 37.5327 73.2679C37.9318 73.3439 38.2738 73.1159 39.6798 71.8429C40.5919 70.9878 41.4469 70.3038 41.5799 70.3038C41.808 70.3038 43.6131 71.3298 44.5441 72.0139L44.9431 72.2989L44.3351 74.522L43.7461 76.7451L44.5061 77.7522C44.9241 78.3032 45.3992 78.9682 45.5892 79.2342C45.8742 79.6713 46.0452 79.7283 48.3063 79.8993L50.7194 80.0893L51.0425 81.1534C51.2325 81.7424 51.4225 82.5974 51.4985 83.0725L51.6315 83.9275L49.6744 85.0866L47.7173 86.2456L47.3943 88.1077L47.0902 89.9698L47.9643 90.9199C48.4393 91.4329 49.1804 92.2309 49.5794 92.668L50.3204 93.466L49.5034 94.9101C48.2683 97.0382 48.4583 96.9622 45.8742 96.2972L43.6891 95.7271L42.283 96.7912C41.5039 97.3802 40.8009 97.8552 40.7249 97.8552C40.6299 97.8552 40.5729 98.8623 40.5729 100.078C40.5729 101.313 40.4969 102.415 40.4209 102.51C40.2499 102.777 38.4068 103.328 37.3237 103.461L36.4877 103.575L35.3666 101.598L34.2266 99.6223L32.7065 99.4133C31.8514 99.2993 31.0154 99.1473 30.8444 99.0903C30.6164 98.9953 30.0463 99.4133 28.7923 100.61L27.0632 102.244L25.7711 101.541C25.0681 101.161 24.289 100.705 24.042 100.515L23.605 100.192L24.175 97.8932L24.745 95.5941L24.023 94.7201C23.624 94.2451 23.13 93.561 22.9019 93.2L22.5029 92.554L20.1848 92.497L17.8667 92.44L17.4677 91.2049C17.2586 90.5209 17.0116 89.6468 16.9546 89.2478L16.8406 88.5447L18.8737 87.3477C20.6788 86.2836 20.9068 86.0936 20.9448 85.5996C20.9828 85.2766 21.0968 84.4405 21.2109 83.7375L21.4199 82.4454L19.8428 80.7163L18.2657 79.0062L18.8737 77.8282C19.2157 77.2011 19.6718 76.4221 19.9188 76.1181L20.3748 75.548L22.6169 76.1371L24.84 76.7261L25.9041 75.8711C26.4741 75.396 27.1392 74.94 27.3672 74.826C27.7662 74.655 27.8042 74.465 27.9182 72.2419C27.9942 70.9118 28.0892 69.7907 28.1462 69.7527C28.2412 69.6577 31.4144 68.8027 31.7374 68.8027C31.8514 68.7837 32.4785 69.7147 33.1245 70.8548Z" fill="#00436C"/>
<path d="M47.0143 60.4423C46.3112 60.8603 45.7032 61.8294 45.7032 62.5324C45.7032 63.7295 46.9002 64.9835 48.0403 64.9835C49.3704 64.9835 50.6434 63.8245 50.6434 62.5894C50.6434 61.3163 49.3894 60.0433 48.1733 60.0433C47.9073 60.0433 47.3943 60.2333 47.0143 60.4423Z" fill="#00436C"/>
<path d="M32.5355 78.8543C30.5974 79.3483 28.6593 80.8114 27.7662 82.4835C26.6642 84.4786 26.4551 86.3597 27.0822 88.3928C27.7282 90.4829 29.1533 92.098 31.1864 93.0671C32.1935 93.5231 32.5165 93.5801 34.3026 93.5801C36.1267 93.5801 36.3927 93.5231 37.4377 93.029C38.9008 92.307 40.3639 90.8439 41.0479 89.3999C41.732 87.9368 41.922 85.7137 41.4469 84.1366C40.8199 81.9895 39.0148 79.9944 36.9627 79.2153C35.7656 78.7593 33.5995 78.5883 32.5355 78.8543Z" fill="#00436C"/>
</svg>
