<svg width="160" height="160" viewBox="0 0 160 160" fill="none" xmlns="http://www.w3.org/2000/svg">
<path d="M69.9054 0.38559C69.2624 0.52887 67.9764 3.25121 66.6903 7.26305L64.5469 13.8539L59.9029 15.43C57.4022 16.3614 52.8296 18.2957 49.7574 19.7285L44.256 22.3791L38.183 19.3702C34.825 17.7225 31.7528 16.3614 31.3955 16.3614C30.4667 16.3614 19.6068 26.7492 17.6777 29.4715L16.1773 31.5491L19.321 37.9251L22.3932 44.301L19.7497 49.8173C18.3207 52.8979 16.3917 57.4828 15.4629 59.9902L13.891 64.5752L7.31792 66.7961C2.45953 68.4438 0.673355 69.3751 0.387567 70.4497C-0.184008 72.5989 -0.112561 89.6493 0.530461 90.5806C0.816249 91.0105 3.88847 92.3 7.46081 93.5179L13.8196 95.5954L15.8201 101.327C16.8918 104.407 18.8209 108.992 20.1069 111.5L22.3932 116.013L19.3925 122.102C17.7492 125.398 16.3917 128.407 16.3917 128.837C16.3917 129.911 23.322 137.505 27.5374 141.087L31.5384 144.454L37.9687 141.23L44.4703 138.078L48.1141 140.012C50.1146 141.159 54.6158 143.021 58.1167 144.239L64.5469 146.46L66.7618 153.194L69.0481 160H79.9794H90.9108L93.1971 153.194L95.412 146.46L101.842 144.239C105.343 143.021 109.844 141.087 111.773 140.012L115.417 137.935L121.919 141.23L128.492 144.454L132.779 140.729C137.208 136.932 143.567 129.911 143.567 128.765C143.567 128.407 142.21 125.398 140.566 122.102L137.566 116.013L139.852 111.5C141.138 108.992 143.067 104.407 144.139 101.327L146.139 95.5954L152.498 93.5179C156.07 92.3 159.143 91.0105 159.428 90.5806C159.714 90.1508 160 85.4225 160 80.1211C160 74.8198 159.714 70.0915 159.428 69.7333C159.143 69.3035 156.07 68.014 152.498 66.7961L146.068 64.5752L144.496 59.9902C143.567 57.4828 141.638 52.8979 140.209 49.8173L137.566 44.301L140.566 38.2116C142.21 34.8445 143.567 31.764 143.567 31.4058C143.567 30.4745 133.207 19.5852 130.492 17.6509L128.42 16.1464L122.062 19.2986L115.703 22.3791L110.201 19.7285C107.129 18.2957 102.557 16.3614 100.056 15.43L95.412 13.8539L93.2686 7.26305C91.6253 2.24825 90.7679 0.60051 89.6962 0.31395C87.9815 -0.115891 71.6202 -0.115891 69.9054 0.38559ZM77.6931 21.8777C76.55 22.0209 74.8353 22.0209 73.7636 21.8777C72.6204 21.7344 73.5492 21.5911 75.6926 21.5911C77.836 21.5911 78.7648 21.7344 77.6931 21.8777ZM85.5523 21.8777C84.4092 22.0209 82.6944 22.0209 81.6227 21.8777C80.4796 21.7344 81.4084 21.5911 83.5518 21.5911C85.6952 21.5911 86.624 21.7344 85.5523 21.8777ZM68.5479 22.7373C68.5479 23.0239 67.4762 23.5254 66.2616 23.7403C64.9756 23.9552 63.2609 24.3851 62.4749 24.6716C61.6176 24.9582 61.2604 24.8866 61.6176 24.5284C61.9748 24.1702 63.5466 23.5254 65.1899 23.0239C66.8332 22.5941 68.2622 22.2359 68.405 22.1642C68.4765 22.0926 68.5479 22.3791 68.5479 22.7373ZM95.2691 23.2388C96.698 23.4538 97.8412 23.9552 97.8412 24.2418C97.8412 24.8865 91.6967 23.3105 90.9108 22.5224C90.625 22.1642 90.8394 22.0209 91.5538 22.3075C92.1969 22.5224 93.9116 22.9523 95.2691 23.2388ZM93.9116 26.8208C118.989 33.6266 136.28 57.4112 134.779 82.9868C134.279 91.7985 132.922 96.8133 128.778 105.195C125.92 110.998 124.491 113.004 118.632 118.807C111.059 126.401 104.843 130.126 94.9833 133.207C90.4821 134.639 88.053 134.926 79.9794 134.926C68.9052 134.926 63.6181 133.636 54.1871 128.765C47.9712 125.541 39.469 118.305 40.6122 117.159C40.9694 116.801 41.1838 116.085 41.0409 115.655C40.8265 115.225 41.541 113.935 42.4698 112.717C44.1845 110.64 44.256 110.64 45.2562 112.001C45.8278 112.789 46.1136 113.649 45.8993 114.007C45.3277 114.938 47.1853 116.658 48.8286 116.586C50.1861 116.514 50.1146 116.443 48.5428 116.013C47.2568 115.655 46.8281 115.01 46.8995 113.935C47.0424 113.076 46.7566 112.359 46.3994 112.359C45.9707 112.359 45.6849 111.858 45.6849 111.213C45.6849 110.425 46.1136 110.21 47.3282 110.497L48.9 110.926L47.3282 110.138C46.3994 109.637 45.6849 109.064 45.6849 108.777C45.6849 108.419 51.3292 108.347 53.7584 108.706C54.8301 108.849 54.1871 110.067 53.1154 109.923C51.1863 109.78 50.2575 112.001 51.6865 113.434C52.3295 114.15 53.1154 114.508 53.3297 114.222C53.6155 114.007 53.1868 113.362 52.4724 112.789C50.9005 111.643 51.6865 109.995 53.6155 110.568C54.5443 110.855 54.973 110.712 54.973 109.923C54.973 108.419 53.6155 107.703 50.6862 107.703C49.3287 107.703 48.1141 107.344 48.0427 106.986C47.8998 106.556 48.257 106.27 48.8286 106.27C49.3287 106.27 50.329 105.768 51.0434 105.195C52.1151 104.264 52.4009 104.336 53.2583 105.553C53.8299 106.27 54.4729 106.7 54.6872 106.413C55.4017 105.768 57.1879 107.344 56.6877 108.204C56.4734 108.562 56.6877 109.35 57.1879 109.923C57.8309 110.712 57.8309 111.428 57.2593 112.574C56.9021 113.434 56.3305 114.723 56.1162 115.44C55.8304 116.371 55.2588 116.658 54.2586 116.299C53.4726 116.013 52.8296 116.156 52.8296 116.586C52.8296 116.944 50.8291 117.446 48.3999 117.589C44.1845 117.804 44.256 117.804 49.6859 117.947C54.973 118.09 55.6875 118.305 58.5454 120.455C60.2601 121.672 62.2606 123.177 62.9751 123.75C65.3328 125.541 74.0493 126.616 81.98 126.186C86.0524 125.971 88.9818 125.541 88.6245 125.254C88.1244 124.968 88.1958 124.323 88.9103 123.392C89.7677 122.317 90.0535 122.246 90.625 122.962C91.4824 124.323 93.9116 123.678 93.8402 122.174C93.6973 121.243 94.0545 121.028 95.1262 121.386C96.1979 121.672 96.4122 121.601 96.055 120.956C95.1262 119.523 90.6965 120.67 88.2673 123.034L86.0524 125.183L82.2657 123.463C78.5505 121.744 77.4788 119.881 79.6937 119.022C80.4796 118.735 81.2655 119.093 81.8371 119.881C82.6944 121.028 82.8373 121.028 82.8373 120.096C82.8373 118.09 79.908 117.661 78.4791 119.452C76.9787 121.314 76.7643 121.314 74.1922 119.452C73.0491 118.664 72.1203 118.377 72.1203 118.807C72.1203 119.237 74.7638 120.813 78.0504 122.389L83.909 125.111L80.3367 125.326C76.1928 125.541 70.477 125.254 70.0483 124.825C69.834 124.681 70.1198 124.108 70.5485 123.678C71.0486 123.177 71.4058 121.816 71.4058 120.598C71.4058 119.452 71.8345 117.589 72.4061 116.586L73.4063 114.652L71.4058 115.798C69.6196 116.873 69.2624 116.873 67.4762 115.655C65.9759 114.652 65.6901 114.007 66.0473 112.574C66.3331 111.428 66.1902 110.998 65.6901 111.285C64.2611 112.144 64.9756 115.082 66.9761 116.514C69.4053 118.377 68.405 119.738 64.9041 119.38C62.9751 119.237 62.4749 118.879 62.6178 117.732C62.6893 116.586 67.1904 104.264 70.3341 96.4551C70.6199 95.7387 70.5485 95.1656 70.1198 95.1656C69.6911 95.1656 68.8337 97.0282 68.1907 99.2491C67.5477 101.542 65.6901 106.556 64.1182 110.425C62.5464 114.294 61.4747 117.876 61.689 118.52C61.9034 119.093 62.8322 119.81 63.6895 120.168L65.3328 120.741L63.6895 121.243C62.0463 121.816 59.9743 120.813 57.5451 118.449C55.9733 116.873 56.7592 114.222 59.5456 111.285C61.689 109.135 69.3339 94.9507 69.2624 93.3746C69.2624 92.9447 67.5477 95.9536 65.4757 99.8939C63.4038 103.906 61.2603 107.703 60.7602 108.347C59.6171 109.709 56.8306 109.923 57.3308 108.562C57.4737 108.132 57.1879 107.201 56.6163 106.485C55.6875 105.482 56.1162 104.622 60.403 98.9625C63.0465 95.5238 65.4757 92.3716 65.7615 92.0851C65.9758 91.7269 67.4048 91.7985 68.8337 92.1567C71.4058 92.8731 71.4058 92.8731 73.192 89.5777L74.9067 86.2106L74.9782 89.2195C74.9782 91.8701 75.1925 92.3 76.7643 92.7298C78.7648 93.2313 79.3364 95.882 77.4074 95.882C76.4071 95.882 76.3357 95.7387 77.193 94.6641C78.0504 93.5895 78.0504 93.5179 77.0501 93.8761C76.4071 94.1626 75.5497 94.0194 75.1925 93.6612C74.6924 93.1597 74.3351 94.1626 74.0494 96.5268C73.6207 100.395 70.9057 107.344 69.9054 107.344C69.0481 107.344 69.0481 110.712 69.9054 111.213C70.2627 111.5 70.4056 110.926 70.1912 110.138C69.834 108.777 69.9769 108.634 71.6202 108.921C72.6919 109.135 73.3349 108.992 73.1205 108.706C72.9062 108.347 73.2634 108.061 73.9065 108.061C74.6209 108.061 74.9782 108.491 74.7638 108.992C74.5495 109.637 75.907 110.497 79.0506 111.714C82.0514 112.789 84.1948 114.15 85.1236 115.44C86.4097 117.231 88.4816 118.305 87.4814 116.658C86.7669 115.511 87.8386 115.798 89.6962 117.302C90.625 118.019 91.1252 118.807 90.9108 119.093C90.625 119.308 89.9106 119.093 89.339 118.52C88.6245 117.876 87.7672 117.661 87.1956 118.019C86.5526 118.449 86.8384 118.807 88.4102 119.38C90.1964 120.025 90.7679 119.881 92.4112 118.377C94.4832 116.443 94.9118 113.434 93.1971 112.789C91.9825 112.359 91.6253 107.344 92.8399 107.344C93.9116 107.344 95.8407 110.783 96.8409 114.365C97.6268 117.231 97.7697 117.446 97.7697 115.583C97.8412 113.076 95.5549 108.061 93.9116 107.13C93.34 106.843 92.8399 105.84 92.8399 105.052C92.8399 103.548 92.8399 103.548 94.6975 105.267C97.0553 107.416 98.4842 110.21 99.2701 114.007L99.9131 117.016L99.7702 113.935C99.6274 111.285 99.7702 110.926 101.199 110.926C104.557 110.926 103.986 118.95 100.413 122.317L98.77 123.893L98.9843 121.887L99.2701 119.881L98.4842 121.887C97.7697 123.75 96.8409 124.252 92.4827 124.753C90.6965 124.968 90.7679 125.04 93.1257 125.183C96.3408 125.254 104.7 122.962 106.772 121.314C107.915 120.455 107.987 120.311 106.986 120.67C105.843 121.028 105.7 120.67 105.7 117.804C105.7 114.723 105.843 114.508 107.058 115.225C108.844 116.156 109.987 116.156 109.987 115.225C109.987 114.867 109.773 114.58 109.487 114.58C108.13 114.795 107.129 114.437 107.129 113.792C107.129 113.362 107.915 113.076 108.915 113.076C110.059 113.076 110.702 112.646 110.702 111.929C110.702 111.356 111.059 111.07 111.416 111.285C111.845 111.571 111.988 112.789 111.702 114.15C111.416 115.655 111.63 116.658 112.131 117.016C112.774 117.374 112.845 117.088 112.488 116.013C111.773 113.649 112.774 112.789 114.417 114.294C115.846 115.583 115.917 115.583 115.06 114.007C113.702 111.428 110.63 109.709 103.557 107.631C99.5559 106.556 95.8407 104.98 94.6261 103.906L92.4827 102.115L92.2683 104.049C91.9111 106.986 90.3392 105.84 90.1249 102.473C89.982 100.825 89.6248 99.464 89.2675 99.464C88.9103 99.464 87.7672 100.61 86.6955 101.971C85.6952 103.333 84.6235 104.479 84.3377 104.479C83.3375 104.479 81.194 97.0282 80.6939 91.7269C80.2652 86.9986 80.1938 86.7121 80.0509 89.7926L79.908 93.3746L78.9792 91.1537C77.0501 86.7121 76.9072 85.8524 78.3362 85.8524C79.1221 85.8524 80.0509 85.4942 80.551 84.9927C81.194 84.3479 81.6227 84.3479 82.2657 84.9927C83.5518 86.2822 87.91 85.9957 90.4107 84.4912C91.6253 83.7748 93.0542 82.1271 93.5544 80.8376C94.3403 78.9033 94.3403 78.2585 93.34 76.1093C92.6256 74.7481 92.1254 73.5303 92.1254 73.387C92.1254 72.5989 108.987 66.5095 111.202 66.5095C111.63 66.5095 112.202 67.0826 112.345 67.7274C112.559 68.5871 112.631 68.4438 112.488 67.5125C112.416 66.1513 113.131 65.7931 119.418 64.3603C123.276 63.429 126.42 62.4977 126.42 62.2827C126.349 61.3514 117.703 55.7635 116.989 56.1933C116.56 56.4799 116.417 56.4082 116.632 55.9068C116.918 55.4769 114.345 53.3994 110.559 51.0352C106.915 48.7427 101.842 45.4473 99.2701 43.6563C92.697 39.2146 90.8394 38.5698 84.4806 38.7131L78.9077 38.7847L85.338 39.2146C90.6965 39.6444 92.2683 40.0026 94.9833 41.722C96.7695 42.8682 98.3413 43.8712 98.4128 44.0145C98.5556 44.0861 98.0555 45.5906 97.2696 47.3099C95.6978 50.8203 91.411 54.9754 86.9812 57.2679C85.2665 58.1276 82.1229 60.4201 79.9794 62.426C76.0499 66.008 68.1907 71.5243 66.9761 71.5243C65.7615 71.5243 59.2598 64.4319 59.2598 63.1424C59.2598 60.3484 60.8317 56.4799 63.6895 52.1098C65.3328 49.6024 66.6189 46.9517 66.5474 46.307C66.476 44.5876 70.8342 41.4354 72.6204 41.8653C73.4778 42.0802 74.3351 41.9369 74.5495 41.5071C74.9067 41.0056 74.5495 40.8623 73.7636 41.1489C72.6204 41.5071 72.6919 41.3638 73.9065 40.3608C74.6924 39.7161 77.0501 38.7131 79.1935 38.0683C83.6232 36.7788 88.0529 37.137 93.4829 39.0713C96.9838 40.2892 97.0553 40.2892 101.056 38.6415C104.343 37.2803 105.415 37.137 106.843 37.7818C107.772 38.2116 108.558 38.4265 108.558 38.2833C108.558 37.7101 103.343 34.9162 102.985 35.346C102.771 35.5609 103.057 35.7042 103.628 35.7042C104.2 35.7042 103.557 36.349 102.271 37.137L99.8417 38.6415L95.6263 37.137C93.34 36.349 90.8394 35.7042 90.1249 35.7758C89.4819 35.7758 90.4107 36.2057 92.1969 36.7072C95.3405 37.6385 98.77 39.2146 97.6268 39.2862C97.2696 39.2862 94.769 38.5698 91.9825 37.7818C85.4809 35.7759 80.1938 36.2057 74.1208 39.143C68.9766 41.6504 64.8327 45.2324 65.4043 46.6652C65.6186 47.2383 65.1185 48.4562 64.3326 49.3875C63.5467 50.3188 62.9036 50.677 62.8322 50.1755C62.8322 49.1009 61.4032 49.7457 61.4032 50.8203C61.4032 51.2501 61.7605 51.3218 62.1177 51.1069C62.5464 50.8919 62.8322 50.9636 62.8322 51.3934C62.8322 52.468 61.4032 53.1128 61.4032 52.0382C61.3318 51.4651 60.9746 51.6083 60.3315 52.468C58.6883 54.6172 59.0455 52.8979 60.8317 50.0323C61.689 48.5278 62.4749 47.8831 62.6893 48.4562C62.9036 49.1726 63.1894 49.1726 63.9753 48.5278C64.5469 48.098 64.9756 47.3816 64.9756 47.0234C64.9756 46.5935 64.4755 46.6652 63.9039 47.1666C63.2609 47.6681 62.8322 47.7398 62.8322 47.3099C62.8322 46.092 71.5487 38.4265 74.2637 37.2803C75.6212 36.7072 79.4793 35.9908 82.8373 35.7042C88.9103 35.2027 88.9103 35.2027 84.3377 35.0595C81.7656 35.0595 77.7646 35.5609 75.4068 36.2057C71.6202 37.2803 70.3341 38.14 66.0473 42.51C60.6888 47.8831 57.5451 53.0411 54.2586 62.0678C52.4009 67.011 52.1866 67.2975 52.1151 65.0767C52.0437 63.5006 51.1863 66.2946 49.8288 72.2407C48.1856 79.6913 47.3996 82.1987 46.185 83.13C44.3274 84.6345 43.2557 84.7778 43.7559 83.4882C45.1848 80.0495 45.1848 79.9062 44.1845 80.2644C43.613 80.4794 43.1843 81.0525 43.1843 81.6256C43.1128 83.4166 42.0411 85.8524 41.2552 85.8524C40.8265 85.8524 40.6122 86.0673 40.8265 86.2822C41.0409 86.4971 42.8985 85.8524 44.8276 84.8494C48.3285 83.0584 48.4714 82.8435 49.2573 78.9033C50.8291 71.0945 51.3292 69.7333 53.4012 68.3722C54.7587 67.5125 55.7589 65.9364 56.2591 63.9305C57.3308 59.9186 60.6173 52.5397 61.1175 53.1128C61.3318 53.3277 60.9746 54.474 60.3315 55.7635C59.6885 56.9814 58.974 59.5604 58.7597 61.4947L58.331 65.0051L62.7607 69.2318C66.5474 72.8855 67.119 73.8168 67.119 76.1093C67.119 78.6883 67.119 78.76 68.6908 77.6854C70.7628 76.1809 71.4058 76.2526 71.4773 77.757C71.5487 78.6167 71.7631 78.4018 72.0488 77.2555C72.8348 74.6049 72.2632 74.175 70.1912 75.8227C69.191 76.6108 68.1193 77.1123 67.9049 76.8257C67.4762 76.4675 69.9054 74.3183 72.3346 72.8855C73.2634 72.3124 73.5492 72.4557 73.6207 73.4586C73.6921 74.3183 73.835 74.175 74.1922 72.9571C75.0496 70.0915 74.3351 69.9482 71.3344 72.384C69.191 74.1034 68.3336 74.4616 67.6906 73.8168C67.2619 73.387 66.9761 72.8855 67.1905 72.7422C67.3333 72.6706 69.2624 71.4527 71.4058 70.1632C73.5492 68.8736 77.6217 65.8648 80.3367 63.5006C83.1231 61.1365 87.4099 57.9843 89.982 56.5515C93.5544 54.474 95.1262 52.9695 96.9124 50.0323C98.1984 47.9547 99.3416 45.8771 99.4845 45.5189C99.6274 45.0891 100.699 45.4473 102.057 46.3786C104.7 48.3129 104.629 48.9577 101.842 47.8831C100.127 47.2383 99.7702 47.3816 98.6985 49.3875C95.6978 54.8322 94.4117 56.1933 89.8391 58.6291C83.6947 61.8529 82.7659 62.8559 88.0529 60.4917C94.0545 57.841 96.2693 56.05 98.1984 52.1098L99.9846 48.5994L103.2 48.886C106.058 49.1726 111.916 51.8949 111.202 52.6113C111.13 52.7546 109.344 52.3248 107.344 51.68C102.557 50.1755 100.771 50.7487 98.2699 54.6889C95.9121 58.5574 92.7684 60.7066 86.8383 62.6409C82.9802 63.9305 82.7659 64.1454 83.9805 65.0767C84.6949 65.6498 85.0522 65.7931 84.7664 65.2916C84.4092 64.7901 85.5523 64.0737 87.9815 63.2141C93.34 61.4947 96.9124 58.844 98.9843 55.3336C101.128 51.68 102.628 51.0352 106.272 52.1815C109.344 53.1844 123.348 60.4917 123.919 61.4947C124.348 62.1395 123.848 62.3544 117.989 63.6439C115.917 64.1454 113.774 64.2887 113.131 64.0737C112.416 63.7872 112.202 63.9305 112.559 64.5036C112.916 65.0767 112.416 65.1483 110.987 64.7901C109.344 64.4319 109.13 64.5036 109.987 65.1484C110.845 65.7215 110.559 65.7931 108.915 65.5065C107.272 65.1483 106.986 65.22 107.844 65.8647C108.701 66.4379 108.415 66.5095 106.772 66.223C105.129 65.8647 104.843 65.9364 105.7 66.5812C106.558 67.1543 106.272 67.2259 104.629 66.9394C102.985 66.5812 102.7 66.6528 103.557 67.2975C104.414 67.8707 104.129 67.9423 102.485 67.6558C100.842 67.2976 100.556 67.3692 101.414 68.014C102.271 68.5871 101.985 68.6587 100.342 68.3722C98.6985 68.014 98.4128 68.0856 99.2701 68.7304C100.127 69.3035 99.9131 69.3751 98.1984 69.0886C97.0553 68.8736 96.4837 68.8736 96.9838 69.0886C97.4839 69.3035 95.2691 70.7363 92.054 72.3124L86.2668 75.1063L82.6944 71.8825C79.6937 69.1602 77.1216 67.799 77.1216 68.9453C77.1216 69.0886 76.9072 69.8766 76.6929 70.593C76.3356 71.8109 76.3357 71.8109 77.1216 70.593C78.0504 69.1602 78.4791 69.0886 80.2652 70.4497C81.5513 71.381 81.5513 71.5243 80.0509 73.8885C79.265 75.2496 78.5505 76.969 78.5505 77.757C78.5505 78.5451 77.836 79.548 76.8358 79.9779C75.6926 80.4793 74.9067 81.6972 74.3351 84.0614C73.835 85.924 73.3349 87.2852 73.0491 87.0703C72.8348 86.8553 73.0491 85.6374 73.4778 84.3479C73.9065 83.0584 74.2637 81.554 74.1922 80.9092C74.1922 80.2644 73.6921 81.339 73.0491 83.345C72.4775 85.2793 71.5487 87.4285 70.9771 88.0732C70.4056 88.6463 69.9769 89.506 69.9769 89.8642C69.9769 90.2224 70.6199 89.7209 71.4058 88.718C72.3346 87.5717 72.8348 87.2852 72.7633 88.0016C72.7633 88.5747 72.3346 89.6493 71.763 90.4373C70.8342 91.6552 70.4056 91.6552 67.1905 90.8672C65.1899 90.3657 63.5467 89.7209 63.5467 89.4344C63.5467 89.0762 64.5469 89.1478 65.7615 89.5777C68.7623 90.6523 69.191 89.7209 66.3331 88.3598C64.1182 87.3568 64.1182 87.2852 65.9044 87.6434C67.5477 88.0016 68.0478 87.6434 69.2624 85.7091C70.0483 84.4196 70.6914 82.9868 70.6914 82.6286C70.6199 82.1987 69.9769 83.0584 69.2624 84.5628C68.1907 86.5688 67.5477 87.0703 66.4045 86.7837C65.3328 86.4971 65.047 85.9957 65.4043 85.2076C65.6186 84.5628 65.9758 83.4166 66.1902 82.6286C66.3331 81.8405 65.7615 82.7718 64.9756 84.7778C64.1897 86.7121 62.8322 88.9329 61.9748 89.5777C60.5459 90.7955 60.9746 91.2254 63.4038 90.9388C64.9756 90.7239 64.3326 91.9418 59.4027 98.8909C54.5443 105.697 54.5443 105.768 52.9725 104.479C51.2578 103.046 50.9005 101.183 52.3295 100.682C52.9011 100.395 52.8296 100.252 52.1151 100.252C51.5436 100.252 48.257 103.977 44.8276 108.491L38.6117 116.729L35.7538 112.932C32.2529 108.276 28.2519 99.8939 26.6086 93.7328C24.8939 87.3568 24.8939 72.9571 26.68 66.5812C32.6101 44.8025 50.1861 29.0417 72.4775 25.388C76.4071 24.8149 89.5533 25.603 93.9116 26.8208ZM55.4732 27.5372C53.5441 28.5402 51.8294 29.185 51.615 28.97C51.1149 28.5402 56.4734 25.7462 57.8309 25.7462C58.4025 25.7462 57.3308 26.5343 55.4732 27.5372ZM105.7 27.179C107.558 28.2536 107.772 28.4686 106.415 28.1104C103.914 27.4656 100.842 25.7462 102.128 25.7462C102.7 25.7462 104.343 26.391 105.7 27.179ZM115.346 33.1252C116.56 34.1281 117.203 34.9162 116.775 34.9162C116.417 34.9162 114.774 33.7699 113.202 32.4088C110.059 29.6148 111.916 30.2596 115.346 33.1252ZM48.5428 30.976C48.5428 31.5491 43.3986 35.1311 43.1128 34.7729C42.8985 34.558 43.9702 33.555 45.4706 32.552C48.1856 30.6178 48.5428 30.4745 48.5428 30.976ZM37.4685 40.5758C35.9681 42.0086 35.1822 42.5817 35.6824 41.7936C37.54 39.1429 39.469 37.137 39.8977 37.4952C40.1121 37.7101 39.0404 39.0713 37.4685 40.5758ZM122.49 39.2862C123.634 40.4325 124.348 41.5787 124.205 41.7936C123.991 41.9369 122.705 41.0056 121.419 39.6444C120.061 38.2833 119.347 37.137 119.704 37.137C120.133 37.137 121.347 38.0684 122.49 39.2862ZM128.921 47.6681C129.921 49.1726 130.707 50.677 130.707 51.1069C130.707 51.7516 130.064 50.8919 127.492 46.9517C125.634 44.0145 126.849 44.6592 128.921 47.6681ZM31.3241 48.886C30.4667 50.3188 29.6094 51.3934 29.4665 51.1785C29.2521 50.9636 29.8237 49.6741 30.6811 48.2413C32.753 44.8742 33.3246 45.4473 31.3241 48.886ZM114.274 54.4023L116.06 55.8351L113.774 54.6889C112.488 54.1158 111.416 53.3994 111.416 53.2561C111.416 52.5397 112.559 52.9695 114.274 54.4023ZM57.9023 56.9814C57.1164 58.4858 56.4734 59.4888 56.402 59.2739C56.402 58.2709 58.6168 53.471 58.974 53.8292C59.1884 54.0441 58.6883 55.4053 57.9023 56.9814ZM133.922 56.9097C135.422 60.635 135.136 61.7096 133.565 58.2709C132.136 55.262 131.921 54.3307 132.493 54.3307C132.707 54.3307 133.35 55.4769 133.922 56.9097ZM26.4657 58.2709C25.8227 60.0619 25.1082 61.4947 24.8224 61.4947C24.2508 61.4947 25.1082 58.9156 26.3942 56.4082C27.6803 54.1158 27.6803 54.9038 26.4657 58.2709ZM55.616 63.3573C55.1874 64.8618 54.5443 66.4379 54.1157 66.8677C53.3297 67.6558 53.7584 65.5782 55.1159 61.9962C56.1876 59.2022 56.4734 59.9902 55.616 63.3573ZM137.423 68.6587C137.709 70.7363 137.637 71.381 137.28 70.4497C136.28 68.1572 135.565 63.9305 136.351 64.7185C136.708 65.1483 137.208 66.8677 137.423 68.6587ZM23.1791 69.0169L22.1074 72.5989L22.5361 69.3751C22.9648 66.1513 23.4649 64.7185 23.9651 65.22C24.0365 65.3633 23.7507 67.0826 23.1791 69.0169ZM82.8373 74.3899C80.9797 77.9003 82.7659 81.554 86.3382 81.554C89.0532 81.554 90.1249 80.0495 89.8391 76.8257C89.5533 73.4586 90.6965 73.0288 92.3398 75.8227C95.1262 80.4794 90.3393 85.924 84.4806 84.7778C80.2652 83.9897 78.4076 77.9719 81.1226 73.8885C82.4086 71.8825 83.909 72.384 82.8373 74.3899ZM84.9807 75.1063C84.9807 75.5362 85.8381 75.7511 86.9812 75.6795C88.5531 75.5362 88.9818 75.7511 89.1246 77.1123C89.4104 79.2615 88.1244 80.8376 85.981 80.8376C83.9805 80.8376 82.5515 78.4734 83.1231 76.1093C83.5518 74.3899 84.9807 73.6735 84.9807 75.1063ZM138.352 80.6226C138.209 81.7689 138.066 80.8376 138.066 78.6883C138.066 76.5391 138.209 75.6078 138.352 76.6824C138.494 77.8287 138.494 79.548 138.352 80.6226ZM21.8931 81.339C21.7502 82.4853 21.6073 81.554 21.6073 79.4048C21.6073 77.2555 21.7502 76.3242 21.8931 77.3988C22.036 78.5451 22.036 80.2644 21.8931 81.339ZM79.9794 82.5569C79.9794 83.9897 78.1933 85.2076 76.8358 84.7061C75.4783 84.2046 75.3354 82.1987 76.55 80.9808C77.5502 79.9779 79.9794 81.1241 79.9794 82.5569ZM76.1928 87.4285C75.9784 88.0016 75.7641 87.7867 75.7641 86.9986C75.6926 86.2106 75.907 85.7807 76.1213 86.0673C76.3357 86.2822 76.4071 86.927 76.1928 87.4285ZM23.3935 92.3V94.091L22.8219 92.3C22.5361 91.297 22.2503 89.506 22.2503 88.3598V86.2106L22.8219 88.3598C23.1077 89.506 23.3935 91.297 23.3935 92.3ZM137.851 89.4344C137.566 91.0821 137.066 92.5866 136.78 92.8731C136.494 93.1597 136.423 92.5866 136.637 91.5836C136.923 90.5806 137.137 89.0762 137.137 88.1449C137.137 87.2852 137.423 86.5688 137.78 86.5688C138.066 86.5688 138.137 87.8583 137.851 89.4344ZM77.4074 89.8642C78.1933 91.7985 77.9075 92.5149 76.7643 91.5836C75.6212 90.5806 75.3354 88.718 76.3356 88.718C76.6929 88.718 77.193 89.2195 77.4074 89.8642ZM77.5502 99.1058C77.193 100.18 76.9072 100.18 75.907 99.3924C75.1925 98.8192 74.9067 98.7476 75.1925 99.2491C75.4783 99.6789 75.4068 100.252 74.9782 100.539C74.6209 100.754 74.2637 100.467 74.2637 99.8939C74.2637 99.3207 74.8353 98.461 75.5497 98.1028C76.1928 97.673 76.3356 97.3148 75.907 97.3148C75.4068 97.3148 74.9782 96.7417 74.9782 96.0969C74.9782 95.0223 75.1925 95.0223 76.4785 96.3835C77.4788 97.3148 77.836 98.3894 77.5502 99.1058ZM81.194 105.912C81.0511 107.416 80.6939 107.703 78.6934 107.703C77.4074 107.703 76.4785 107.344 76.6214 106.986C76.7643 106.556 77.3359 104.479 77.836 102.33C78.3362 100.18 78.9077 97.8879 79.1221 97.3148C79.5508 95.9536 81.4798 103.548 81.194 105.912ZM134.636 101.183C132.993 104.98 132.636 104.049 134.136 99.9655C134.779 98.0312 135.422 96.9566 135.565 97.4581C135.637 98.0312 135.279 99.6789 134.636 101.183ZM26.8229 103.548C26.3943 103.977 25.4654 101.828 24.6795 98.7476C24.4652 97.7446 24.9653 98.3894 25.7512 100.037C26.5371 101.757 27.0373 103.333 26.8229 103.548ZM77.1216 101.9C77.1216 103.476 76.1928 103.762 74.7638 102.688C73.7636 101.971 73.6921 101.685 74.4066 101.398C76.1213 100.682 77.1216 100.897 77.1216 101.9ZM88.696 102.473C88.1958 102.974 87.8386 103.046 87.8386 102.616C87.8386 101.613 88.696 100.754 89.1961 101.255C89.339 101.47 89.1247 102.043 88.696 102.473ZM85.1951 111.428C84.1234 112.288 83.909 112.216 83.4089 110.926C83.1231 110.138 82.6944 107.846 82.4086 105.768L81.98 101.971L84.1948 106.27C86.3382 110.282 86.4097 110.568 85.1951 111.428ZM50.4004 104.192C50.1861 104.837 49.9717 105.482 49.9717 105.625C49.9717 105.84 49.6859 105.84 49.2573 105.553C48.4714 105.052 49.1144 103.046 50.1146 103.046C50.5433 103.046 50.6148 103.548 50.4004 104.192ZM74.7638 103.476C74.5495 103.691 73.9065 103.762 73.4063 103.548C72.8348 103.333 73.0491 103.118 73.835 103.118C74.6209 103.046 75.0496 103.261 74.7638 103.476ZM89.2675 104.98C89.2675 105.553 89.7677 106.127 90.3392 106.341C91.7682 106.915 91.8396 112.359 90.4107 112.359C89.0532 112.359 84.9807 107.416 84.9807 105.84C84.9807 104.55 85.7666 104.049 87.91 104.049C88.6245 104.049 89.2675 104.479 89.2675 104.98ZM76.2642 105.697C76.0499 106.915 71.4058 107.989 71.4058 106.771C71.4058 105.553 72.3346 105.195 73.4063 106.127C74.3351 106.843 74.478 106.771 74.0494 105.697C73.6921 104.765 73.9779 104.479 75.0496 104.479C76.0499 104.479 76.4071 104.837 76.2642 105.697ZM131.135 108.562C129.849 111.07 127.92 113.577 127.849 112.861C127.849 112.144 131.35 106.628 131.778 106.628C131.993 106.628 131.707 107.488 131.135 108.562ZM31.3241 111.07C32.2529 112.574 32.753 113.792 32.5387 113.792C32.0386 113.792 28.5377 108.347 28.5377 107.559C28.5377 106.843 29.5379 108.061 31.3241 111.07ZM101.414 108.777C102.057 109.995 101.985 110.21 100.771 110.21C99.9846 110.21 98.9843 109.565 98.5556 108.777C97.9126 107.559 97.9841 107.344 99.1987 107.344C99.9846 107.344 100.985 107.989 101.414 108.777ZM82.4086 109.923C82.9802 112.144 82.7659 112.574 81.1226 111.929C79.4793 111.285 79.6937 108.061 81.4798 108.061C81.7656 108.061 82.1943 108.921 82.4086 109.923ZM106.343 109.207C106.415 109.279 106.343 109.709 106.058 110.138C105.629 110.855 102.842 111.285 102.842 110.64C102.842 110.497 102.628 109.78 102.414 109.135C102.057 108.204 102.271 108.061 103.986 108.491C105.129 108.777 106.2 109.064 106.343 109.207ZM79.265 109.995C79.265 110.712 78.9792 110.998 78.6934 110.568C78.4076 110.138 77.9075 109.637 77.5502 109.279C77.193 108.992 77.4074 108.777 78.0504 108.777C78.7648 108.777 79.265 109.35 79.265 109.995ZM109.13 110.353C110.416 111.643 110.201 112.359 108.558 112.359C107.629 112.359 107.129 111.858 107.129 110.926C107.129 109.279 107.844 109.064 109.13 110.353ZM88.5531 112.717C89.6248 114.007 88.9103 115.225 87.1241 115.225C85.5523 115.225 84.6949 114.15 85.2665 112.717C85.7667 111.356 87.4099 111.356 88.5531 112.717ZM106.058 112.359C106.272 112.717 105.986 113.076 105.343 113.076C104.7 113.076 104.414 112.717 104.629 112.359C104.843 111.929 105.2 111.643 105.343 111.643C105.486 111.643 105.843 111.929 106.058 112.359ZM92.8399 114.15C93.34 114.723 93.5544 115.726 93.2686 116.299C92.8399 117.446 90.9823 117.732 90.4107 116.729C90.1249 116.371 90.625 116.228 91.411 116.443C92.1969 116.658 92.8399 116.443 92.8399 116.013C92.8399 115.583 92.4827 115.296 91.9825 115.368C91.5538 115.511 90.9823 115.01 90.8394 114.294C90.5536 112.789 91.6253 112.717 92.8399 114.15ZM104.7 121.314C104.557 121.816 103.771 122.389 102.985 122.532C101.556 122.962 101.556 122.89 102.914 119.953C103.628 118.377 104.271 116.228 104.414 115.225C104.486 114.222 104.629 115.01 104.772 116.944C104.914 118.879 104.914 120.813 104.7 121.314ZM123.205 119.38L120.49 122.031L122.848 118.95C124.134 117.231 125.348 116.085 125.563 116.299C125.777 116.514 124.777 117.876 123.205 119.38ZM37.4685 118.807C38.6117 119.953 39.3261 121.099 39.1833 121.314C38.9689 121.458 37.6829 120.526 36.3968 119.165C35.0393 117.804 34.3249 116.658 34.6821 116.658C35.1108 116.658 36.3254 117.589 37.4685 118.807ZM69.0481 123.607C68.3336 124.395 67.3333 124.538 65.7615 124.18C62.6178 123.535 62.4035 122.604 65.1185 121.458C66.4045 120.884 67.9764 119.881 68.5479 119.165C69.5482 117.947 69.6196 118.019 69.834 120.24C69.9769 121.601 69.6911 123.034 69.0481 123.607ZM92.9828 122.532C92.5541 122.962 91.8396 123.034 91.411 122.747C90.7679 122.317 90.7679 122.102 91.4824 121.601C92.697 120.884 93.9116 121.601 92.9828 122.532ZM47.8283 128.55C47.8283 129.051 45.6135 127.69 43.7559 126.043C40.9694 123.678 41.9697 123.607 44.9705 125.971C46.5423 127.189 47.8283 128.407 47.8283 128.55ZM116.417 125.971C115.06 127.117 113.631 128.12 113.202 128.12C112.845 128.12 113.631 127.189 114.988 125.971C116.346 124.825 117.846 123.893 118.204 123.893C118.632 123.893 117.775 124.825 116.417 125.971ZM54.973 132.06C56.7592 132.992 57.7595 133.78 57.2593 133.851C56.2591 133.851 50.6862 131.129 50.6862 130.628C50.6862 129.983 51.7579 130.341 54.973 132.06ZM109.273 130.628C109.273 131.201 103.414 133.995 103.057 133.565C102.842 133.421 103.914 132.562 105.486 131.774C108.272 130.341 109.273 129.983 109.273 130.628ZM65.1899 135.786C66.2616 136.001 67.3333 136.502 67.5477 136.86C67.762 137.218 67.119 137.29 65.9044 137.003C62.8322 136.287 60.6888 135.356 60.6888 134.854C60.6888 134.639 61.2603 134.639 61.9748 134.926C62.6178 135.141 64.0468 135.571 65.1899 135.786ZM99.8417 134.998C99.0558 135.714 92.8399 137.362 92.8399 136.789C92.8399 136.502 94.0545 135.929 95.5549 135.499C98.6985 134.639 100.413 134.424 99.8417 134.998ZM78.1933 138.221C78.5505 138.723 77.6217 138.794 75.264 138.436C70.6913 137.792 70.4056 137.433 74.478 137.433C76.2642 137.433 77.9789 137.792 78.1933 138.221ZM89.1961 137.72C89.0532 137.863 87.3385 138.221 85.4094 138.436C83.0517 138.794 82.1229 138.723 82.4801 138.221C82.6944 137.792 84.4092 137.433 86.1953 137.433C88.0529 137.433 89.339 137.577 89.1961 137.72Z" fill="#F8F7FF"/>
<path d="M72.8347 32.8386C70.6913 34.3431 68.6908 35.4177 68.4765 35.2744C68.1907 35.1311 65.9758 37.137 63.6181 39.7161C59.4027 44.3727 58.4739 44.9458 59.9743 42.0802C60.403 41.3638 60.5459 40.719 60.3315 40.719C59.76 40.719 56.2591 46.5219 56.6163 46.9517C56.8306 47.1667 57.4022 46.5935 57.8309 45.7339C58.4025 44.7309 58.9026 44.3727 59.1884 44.8742C59.4742 45.3757 60.6888 44.3011 62.1177 42.2951C63.5466 40.4325 65.6186 38.4982 66.7617 37.9251C67.9763 37.352 70.1912 35.9908 71.6916 34.8446C73.6207 33.4834 74.6924 33.0535 75.0496 33.6267C75.4068 34.1998 75.8355 34.1998 76.8358 33.555C77.9789 32.8386 77.9789 32.767 76.9787 33.1252C75.4783 33.555 75.4068 33.2685 76.4071 31.3342C76.8358 30.6178 77.0501 29.973 76.9787 30.0447C76.8358 30.1163 74.9781 31.3342 72.8347 32.8386Z" fill="#F8F7FF"/>
<path d="M82.9088 31.4774C81.1226 31.8356 79.3364 32.2655 78.9792 32.4088C78.1218 32.767 84.4806 32.2655 88.4102 31.6924C90.1964 31.4058 90.6965 31.5491 90.2678 32.1938C89.9106 32.8386 90.3392 32.9102 92.1254 32.6237C93.4115 32.3371 94.9833 32.0506 95.6263 32.0506C97.6268 31.9073 91.1966 30.761 88.5531 30.8327C87.1956 30.8327 84.6235 31.1192 82.9088 31.4774Z" fill="#F8F7FF"/>
<path d="M94.3403 33.1251C94.4832 33.2684 95.9121 33.555 97.484 33.7699C99.4845 34.1281 99.9132 34.0565 98.9129 33.555C97.5554 32.9819 93.6973 32.552 94.3403 33.1251Z" fill="#F8F7FF"/>
<path d="M76.4071 40.0027C75.8356 40.3609 75.6927 40.7191 76.0499 40.7191C76.4786 40.7191 77.2645 40.3609 77.8361 40.0027C78.4076 39.6445 78.622 39.2863 78.1933 39.2863C77.8361 39.2863 76.9787 39.6445 76.4071 40.0027Z" fill="#F8F7FF"/>
<path d="M54.6873 47.6681C54.0442 50.3904 50.972 55.4052 47.4711 59.2738C45.9707 60.9215 44.899 62.2111 45.1134 62.2111C46.1851 62.2111 51.0435 59.1305 51.0435 58.4141C51.1149 57.3395 54.4729 50.4621 55.6161 49.0293C56.2591 48.3129 56.3305 47.5965 55.8304 46.7368C55.2588 45.6622 55.0445 45.8055 54.6873 47.6681Z" fill="#F8F7FF"/>
<path d="M117.846 60.7783C116.346 61.2798 116.346 61.3515 117.489 61.4231C118.275 61.4231 119.418 61.1365 119.99 60.7783C121.276 59.9903 120.347 59.9903 117.846 60.7783Z" fill="#F8F7FF"/>
<path d="M47.0424 63.3573C44.7561 65.7931 44.7561 65.9364 46.3994 65.4349C48.0426 64.9334 48.1141 64.9334 47.1853 66.223C46.6137 66.9394 46.8995 66.7961 47.8997 65.8648C49.1143 64.6469 49.3287 64.0737 48.6857 63.8588C47.9712 63.5723 48.0426 63.2141 48.9714 62.1395C51.1863 59.7037 49.6145 60.7067 47.0424 63.3573Z" fill="#F8F7FF"/>
<path d="M113.417 61.9962C113.845 62.1395 114.703 62.1395 115.203 61.9962C115.631 61.7813 115.274 61.638 114.274 61.638C113.274 61.638 112.917 61.7813 113.417 61.9962Z" fill="#F8F7FF"/>
<path d="M109.844 62.7126C110.273 62.8559 111.13 62.8559 111.63 62.7126C112.059 62.4977 111.702 62.3544 110.702 62.3544C109.701 62.3544 109.344 62.4977 109.844 62.7126Z" fill="#F8F7FF"/>
<path d="M106.986 63.4289C107.487 63.6439 108.13 63.5722 108.344 63.3573C108.63 63.1424 108.201 62.9275 107.415 62.9991C106.629 62.9991 106.415 63.214 106.986 63.4289Z" fill="#F8F7FF"/>
<path d="M102.485 64.7185C100.699 65.5782 100.628 65.7215 102.128 65.3633C104.128 64.8618 106.415 63.7156 105.343 63.7156C104.986 63.7156 103.7 64.1454 102.485 64.7185Z" fill="#F8F7FF"/>
<path d="M97.8412 66.5095C97.2696 66.8677 97.1267 67.2259 97.4839 67.2259C97.9126 67.2259 98.6985 66.8677 99.2701 66.5095C99.8417 66.1513 100.056 65.7931 99.6274 65.7931C99.2701 65.7931 98.4128 66.1513 97.8412 66.5095Z" fill="#F8F7FF"/>
<path d="M81.2655 67.3692C82.1228 67.7991 83.5518 69.2319 84.3377 70.593C85.1236 71.8825 86.1239 72.9572 86.4811 72.9572C86.8383 72.9572 86.5526 72.2408 85.8381 71.3811C83.3374 68.2289 81.4798 66.5095 80.551 66.5812C80.0509 66.5812 80.3367 66.9394 81.2655 67.3692Z" fill="#F8F7FF"/>
<path d="M92.1254 68.6587C90.3392 69.3751 89.4104 70.0199 89.982 70.0199C91.1966 69.9483 97.1981 67.3692 96.055 67.2976C95.6977 67.2976 93.9116 67.9423 92.1254 68.6587Z" fill="#F8F7FF"/>
<path d="M42.8985 69.3035C42.1126 69.805 42.2555 70.0199 43.4701 70.2348C45.0419 70.4497 45.0419 70.5214 42.827 73.9601C41.3267 76.2526 40.9694 77.3272 41.6839 77.0406C43.613 76.2526 42.9699 77.3988 39.469 80.9808L36.0396 84.4912L38.3973 83.6315C39.6834 83.2017 40.6122 82.6286 40.3978 82.4136C40.1835 82.1987 41.0409 80.6943 42.3984 79.1182C44.5418 76.3959 47.8283 70.8079 47.8283 69.6617C47.8283 69.4468 47.1853 69.9482 46.3994 70.8796C44.899 72.7422 44.5418 72.2407 45.6849 70.0199C46.3279 68.9453 46.185 68.6587 45.1848 68.6587C44.4703 68.6587 43.4701 68.9453 42.8985 69.3035Z" fill="#F8F7FF"/>
<path d="M112.988 75.966C112.845 81.6256 112.559 82.7718 109.701 89.0045L106.486 95.882H101.699C94.769 95.882 92.697 94.3775 89.6962 87.2852C89.4819 86.712 89.4104 86.9986 89.5533 87.9299C89.7677 88.9329 89.4819 90.0075 88.9103 90.4373C88.1244 91.0821 88.0529 92.0851 88.4816 95.1656C88.9103 97.8879 89.1246 98.3894 89.1961 96.7417C89.2675 95.2372 89.6248 94.4492 90.3392 94.4492C91.1252 94.4492 91.411 95.3089 91.411 98.1745C91.411 101.685 91.4824 101.756 92.697 100.682C93.4115 99.9655 94.4117 99.464 94.8404 99.464C95.3405 99.464 96.055 98.8192 96.5551 98.0312C97.341 96.8133 98.2699 96.5984 102.128 96.5984H106.772L110.201 89.9359L113.631 83.3449L113.417 76.5391L113.131 69.7333L112.988 75.966ZM91.2681 92.5149C91.411 93.2313 91.0537 93.7328 90.4107 93.7328C89.6962 93.7328 89.2675 93.088 89.2675 92.2283C89.2675 90.509 90.9108 90.7239 91.2681 92.5149ZM92.9828 96.0253C92.3398 96.67 92.1254 96.5268 92.1254 95.1656C92.1254 93.8044 92.3398 93.6611 92.9828 94.3059C93.6258 94.9507 93.6258 95.3805 92.9828 96.0253ZM96.1979 96.8133C95.7692 98.2461 94.2688 98.1745 94.2688 96.67C94.2688 95.6671 94.6261 95.3089 95.3405 95.6671C95.9836 95.882 96.3408 96.3835 96.1979 96.8133ZM93.5544 98.676C93.5544 99.1058 93.2686 99.6073 92.8399 99.8222C92.4827 100.037 92.1254 99.7506 92.1254 99.1774C92.1254 98.5327 92.4827 98.0312 92.8399 98.0312C93.2686 98.0312 93.5544 98.3178 93.5544 98.676Z" fill="#F8F7FF"/>
<path d="M75.0496 74.4616C74.6209 75.7511 74.2637 77.3988 74.3351 78.2585C74.3351 79.1182 74.7638 78.1152 75.3354 76.1809C76.4071 72.0975 76.2642 71.0228 75.0496 74.4616Z" fill="#F8F7FF"/>
<path d="M72.9062 77.6854C72.9062 78.4734 73.1205 78.6883 73.3349 78.1152C73.5492 77.6137 73.4778 76.969 73.2634 76.7541C73.0491 76.4675 72.8347 76.8973 72.9062 77.6854Z" fill="#F8F7FF"/>
<path d="M70.7627 80.551C70.7627 81.3391 70.9771 81.554 71.1914 80.9809C71.4058 80.4794 71.3343 79.8346 71.12 79.6197C70.9056 79.3332 70.6913 79.763 70.7627 80.551Z" fill="#F8F7FF"/>
<path d="M72.1917 80.551C72.1917 81.3391 72.4061 81.554 72.6204 80.9809C72.8348 80.4794 72.7633 79.8346 72.549 79.6197C72.3346 79.3332 72.1203 79.763 72.1917 80.551Z" fill="#F8F7FF"/>
<path d="M60.6173 93.5179C59.6885 94.6641 59.76 94.7358 60.9031 93.8044C61.5462 93.303 62.1177 92.7298 62.1177 92.5866C62.1177 92.0134 61.5462 92.3716 60.6173 93.5179Z" fill="#F8F7FF"/>
<path d="M56.6877 98.5327C55.1873 100.395 54.33 101.685 54.7587 101.398C55.7589 100.754 60.2601 95.1656 59.76 95.1656C59.5456 95.1656 58.1881 96.6701 56.6877 98.5327Z" fill="#F8F7FF"/>
<path d="M67.1904 112.503C67.1189 114.723 69.1909 115.726 71.1914 114.58C72.3346 113.935 72.1917 113.864 70.477 113.792C69.1195 113.792 68.3335 113.291 67.8334 112.144C67.2618 110.64 67.1904 110.64 67.1904 112.503Z" fill="#F8F7FF"/>
<path d="M48.5428 112.288C48.5428 113.004 50.6148 114.867 50.972 114.437C51.0435 114.294 50.5434 113.577 49.8289 112.861C49.1144 112.216 48.5428 111.929 48.5428 112.288Z" fill="#F8F7FF"/>
<path d="M72.8347 112.717C73.835 113.291 74.9781 113.72 75.3354 113.72C75.7641 113.72 75.2639 113.291 74.2637 112.717C73.2634 112.144 72.1917 111.715 71.763 111.715C71.4058 111.715 71.8345 112.144 72.8347 112.717Z" fill="#F8F7FF"/>
<path d="M101.271 114.294C101.771 114.508 102.414 114.437 102.628 114.222C102.914 114.007 102.485 113.792 101.699 113.864C100.913 113.864 100.699 114.079 101.271 114.294Z" fill="#F8F7FF"/>
<path d="M76.4071 82.6285C76.4071 83.2016 76.55 83.7031 76.6929 83.7031C76.8358 83.7031 77.1216 83.2016 77.4074 82.6285C77.6217 82.0554 77.4788 81.5539 77.1216 81.5539C76.6929 81.5539 76.4071 82.0554 76.4071 82.6285Z" fill="#F8F7FF"/>
<path d="M85.6952 113.935C85.6952 114.723 87.6957 114.652 88.1958 113.864C88.4102 113.434 87.91 113.219 87.1241 113.291C86.3382 113.362 85.6952 113.649 85.6952 113.935Z" fill="#F8F7FF"/>
</svg>
