<svg width="300" height="202" viewBox="0 0 300 202" fill="none" xmlns="http://www.w3.org/2000/svg">
<path d="M208.2 1.11217C205.246 1.90575 199.575 4.28651 195.44 6.49091C188.351 10.2825 187.879 10.3707 186.343 8.78349C185.398 7.90173 184.57 6.93179 184.57 6.57909C184.57 6.13821 182.326 4.72739 179.608 3.22839C175.591 1.02399 173.583 0.583107 168.148 0.583107C160.468 0.583107 151.962 3.22839 145.346 7.54903C140.265 10.8997 139.32 10.8997 137.312 8.07809C134.358 3.93381 127.978 1.11217 120.771 0.75946C111.556 0.2304 103.049 3.49293 90.998 11.9578C75.0481 23.068 59.5709 38.7634 42.4395 61.1601C32.6333 73.9457 15.9746 97.5769 17.6286 96.2542C18.2194 95.7252 22.9453 90.7873 28.0256 85.2322C41.0218 70.8595 54.6087 57.9858 67.3686 48.0219C85.0906 34.2664 96.9053 29.5931 105.885 32.7674C108.247 33.6492 110.492 34.7073 110.847 35.1482C111.201 35.589 107.539 40.5269 102.695 46.2584C90.2891 60.8074 65.1238 94.9316 66.7778 94.9316C67.0141 94.9316 69.7315 92.0218 72.9215 88.4947C103.285 55.076 130.459 33.8255 145.464 31.8856C150.19 31.2684 157.515 32.9438 159.169 34.9718C159.641 35.5009 157.987 38.1462 155.506 40.9678C145.818 51.9016 134.122 66.9797 124.67 80.8234C119.235 88.8474 115.454 94.6671 116.281 93.7853C117.108 92.9035 123.37 86.3785 130.105 79.2362C146.173 62.2182 154.443 54.7233 167.557 45.0239C179.254 36.3826 190.005 31.4448 196.976 31.4448C208.436 31.4448 215.761 41.585 219.424 62.4828L220.133 66.7152H234.429H248.724L248.015 54.106C245.534 14.0741 231.239 -4.97199 208.2 1.11217Z" fill="#00436C"/>
<path d="M33.3423 122.266V141.665H36.8867H40.4311L40.6674 126.851L41.0218 112.126L45.0388 126.851L49.174 141.665H53.3091H57.5624L60.9887 128.615C62.8791 121.473 64.8876 114.86 65.3601 113.89C65.8327 112.92 66.3053 118.739 66.3053 126.851L66.4235 141.665H69.9679H73.5123V122.707V103.749H67.2505H60.8706L57.4443 116.094C55.5539 122.884 53.7817 128.439 53.3091 128.439C52.9547 128.439 51.0643 122.884 49.174 116.182L45.8659 103.926L41.6126 103.397C32.6334 102.25 33.3423 100.663 33.3423 122.266Z" fill="#00436C"/>
<path d="M155.152 105.866C151.962 109.569 152.081 109.922 155.625 109.922C157.279 109.922 159.051 109.216 159.878 108.07L161.178 106.218L162.832 108.07C163.895 109.128 165.904 109.922 167.558 109.922C170.984 109.922 170.984 109.922 167.912 106.042C165.904 103.397 164.722 102.868 161.532 102.868C158.342 102.868 157.161 103.397 155.152 105.866Z" fill="#00436C"/>
<path d="M220.369 103.485C219.542 103.749 218.833 105.248 218.833 106.924C218.833 109.745 219.069 109.922 223.086 109.922C227.221 109.922 227.221 109.833 226.867 106.571C226.513 103.308 224.622 102.427 220.369 103.485Z" fill="#00436C"/>
<path d="M87.0992 115.388C82.7277 117.945 80.6011 122.09 80.6011 127.909C80.6011 138.843 88.5169 144.486 100.095 141.665C104.349 140.607 108.602 136.374 107.184 134.611C106.003 133.112 101.159 133.641 98.9139 135.492C97.7324 136.462 96.0783 137.256 95.1332 137.256C92.7702 137.256 88.8714 133.993 88.8714 131.965C88.8714 130.378 89.6984 130.202 98.9139 130.202H108.956V127.733C108.956 123.5 106.475 118.474 103.049 115.917C98.7957 112.743 91.9432 112.478 87.0992 115.388ZM98.5594 120.238C99.7409 121.032 100.686 122.619 100.686 123.765C100.686 125.617 100.213 125.793 94.7787 125.793C89.4621 125.793 88.8714 125.617 88.8714 123.853C88.8714 121.649 92.0613 118.739 94.5424 118.739C95.6058 118.739 97.378 119.356 98.5594 120.238Z" fill="#00436C"/>
<path d="M121.126 115.213C110.965 119.798 112.383 138.315 123.134 141.665C130.459 143.958 139.32 141.048 141.919 135.317C143.219 132.671 142.865 132.407 137.902 131.79C136.248 131.525 135.067 132.231 134.122 133.906C131.404 138.667 123.961 136.551 122.425 130.555C120.299 122.002 128.096 115.124 133.295 121.032C134.949 122.796 135.894 123.148 138.375 122.707C142.51 121.914 142.628 121.826 140.856 118.74C138.021 113.625 128.333 111.862 121.126 115.213Z" fill="#00436C"/>
<path d="M154.206 114.33C151.961 115.036 147.117 120.238 148.181 120.943C148.417 121.031 149.953 121.384 151.725 121.737C154.206 122.178 155.269 121.913 156.215 120.502C157.278 119.092 158.459 118.739 161.295 118.915C164.367 119.092 165.194 119.621 165.43 121.561C165.784 123.765 165.312 124.029 158.932 125.44C149.716 127.38 147.354 129.232 147.354 134.258C147.354 137.609 147.944 138.667 150.662 140.43C154.679 142.987 159.641 143.164 163.658 140.783C166.139 139.284 166.73 139.196 167.32 140.342C167.675 141.047 169.447 141.665 171.219 141.665H174.527L174.173 130.907C173.818 118.827 172.755 115.917 168.502 114.418C165.076 113.272 157.869 113.184 154.206 114.33ZM165.903 132.054C165.312 136.639 159.523 138.931 156.215 135.933C153.97 133.905 155.269 131.613 159.759 130.025C165.076 127.997 166.375 128.35 165.903 132.054Z" fill="#00436C"/>
<path d="M192.959 115.741C189.415 117.946 189.297 117.946 189.297 116.182C189.297 114.683 188.588 114.33 185.752 114.33H182.208V127.998V141.665H186.343H190.478V132.142C190.478 122.002 191.896 118.739 196.386 118.739C201.23 118.739 202.293 120.944 202.293 131.613V141.665H206.546H210.8L210.327 129.673C209.854 117.857 209.854 117.593 206.664 115.565C202.293 112.831 197.449 112.831 192.959 115.741Z" fill="#00436C"/>
<path d="M240.926 115.212C236.082 118.034 234.192 121.561 234.192 127.557C234.192 136.375 238.209 141.224 246.479 142.282C253.804 143.164 260.893 139.461 261.72 134.435C261.956 132.759 261.366 132.318 258.412 132.142C255.695 131.966 254.631 132.318 253.686 133.906C252.268 136.375 247.07 137.08 244.589 135.14C242.344 133.465 241.163 127.998 242.226 124.03C242.817 122.002 244.234 120.503 246.361 119.621C249.551 118.387 249.787 118.387 252.505 120.767C254.749 122.707 256.049 123.06 258.53 122.619C261.129 122.09 261.484 121.737 260.775 119.709C259.594 116.006 256.167 114.154 249.905 113.713C245.298 113.361 243.644 113.625 240.926 115.212Z" fill="#00436C"/>
<path d="M273.299 114.683C270.818 115.741 267.392 119.092 267.274 120.591C267.274 120.944 268.692 121.384 270.582 121.649C272.827 122.002 274.363 121.561 275.899 120.415C278.616 118.21 283.342 118.21 284.996 120.415C287.005 123.236 286.414 123.765 280.625 124.912C271.055 126.851 268.692 128.086 267.274 131.877C265.738 136.11 267.156 139.196 271.409 141.312C274.835 142.988 280.625 142.459 284.051 140.254C285.941 138.932 286.177 138.932 286.886 140.254C287.359 141.136 289.013 141.665 291.14 141.665C294.566 141.665 294.684 141.489 293.975 138.932C293.621 137.433 293.266 132.054 293.266 126.94C293.266 118.386 293.03 117.593 290.313 115.653C288.068 113.89 286.296 113.449 281.806 113.449C278.734 113.537 274.835 114.066 273.299 114.683ZM286.177 130.908C286.177 134.523 282.988 137.433 279.443 137.08C272.354 136.463 273.063 131.525 280.388 129.585C286.059 128.086 286.177 128.174 286.177 130.908Z" fill="#00436C"/>
<path d="M218.833 127.998V141.665H222.968H227.103V127.998V114.33H222.968H218.833V127.998Z" fill="#00436C"/>
<path d="M51.9177 173.005V155.825H58.3982C59.5388 155.825 60.4099 155.88 61.0114 155.989C61.8552 156.13 62.5622 156.399 63.1325 156.798C63.7029 157.188 64.1599 157.739 64.5036 158.45C64.8552 159.161 65.031 159.942 65.031 160.794C65.031 162.255 64.5661 163.493 63.6364 164.509C62.7068 165.516 61.0271 166.02 58.5974 166.02H54.1911V173.005H51.9177ZM54.1911 163.993H58.6325C60.1013 163.993 61.1443 163.719 61.7614 163.173C62.3786 162.626 62.6872 161.856 62.6872 160.864C62.6872 160.145 62.5036 159.532 62.1364 159.024C61.7771 158.509 61.3005 158.169 60.7068 158.005C60.3239 157.903 59.6169 157.852 58.5857 157.852H54.1911V163.993ZM68.0708 166.782C68.0708 164.477 68.7114 162.77 69.9927 161.661C71.063 160.739 72.3677 160.278 73.9068 160.278C75.6177 160.278 77.0161 160.841 78.1021 161.966C79.188 163.083 79.731 164.63 79.731 166.606C79.731 168.208 79.4888 169.469 79.0044 170.391C78.5278 171.305 77.8286 172.016 76.9068 172.524C75.9927 173.032 74.9927 173.286 73.9068 173.286C72.1646 173.286 70.7544 172.727 69.6763 171.61C68.606 170.493 68.0708 168.884 68.0708 166.782ZM70.2388 166.782C70.2388 168.376 70.5864 169.571 71.2818 170.368C71.9771 171.157 72.8521 171.552 73.9068 171.552C74.9536 171.552 75.8247 171.153 76.52 170.356C77.2153 169.559 77.563 168.344 77.563 166.712C77.563 165.173 77.2114 164.009 76.5083 163.219C75.813 162.423 74.9458 162.024 73.9068 162.024C72.8521 162.024 71.9771 162.419 71.2818 163.208C70.5864 163.997 70.2388 165.188 70.2388 166.782ZM83.3685 173.005V155.825H85.4779V173.005H83.3685ZM89.9708 158.251V155.825H92.0802V158.251H89.9708ZM89.9708 173.005V160.559H92.0802V173.005H89.9708ZM101.108 171.118L101.413 172.981C100.819 173.106 100.288 173.169 99.8193 173.169C99.0536 173.169 98.4599 173.048 98.038 172.805C97.6161 172.563 97.3193 172.247 97.1474 171.856C96.9755 171.458 96.8896 170.626 96.8896 169.36V162.2H95.3427V160.559H96.8896V157.477L98.9872 156.212V160.559H101.108V162.2H98.9872V169.477C98.9872 170.079 99.0224 170.466 99.0927 170.637C99.1708 170.809 99.2919 170.946 99.456 171.048C99.6279 171.149 99.87 171.2 100.183 171.2C100.417 171.2 100.726 171.173 101.108 171.118ZM112.902 168.997L115.082 169.266C114.738 170.54 114.101 171.528 113.172 172.231C112.242 172.934 111.054 173.286 109.609 173.286C107.789 173.286 106.343 172.727 105.273 171.61C104.211 170.485 103.679 168.911 103.679 166.887C103.679 164.794 104.218 163.169 105.297 162.012C106.375 160.856 107.773 160.278 109.492 160.278C111.156 160.278 112.515 160.844 113.57 161.977C114.625 163.11 115.152 164.704 115.152 166.759C115.152 166.884 115.148 167.071 115.14 167.321H105.859C105.937 168.688 106.324 169.735 107.019 170.462C107.715 171.188 108.582 171.552 109.621 171.552C110.394 171.552 111.054 171.348 111.601 170.942C112.148 170.536 112.582 169.887 112.902 168.997ZM105.976 165.587H112.926C112.832 164.54 112.566 163.755 112.129 163.231C111.457 162.419 110.586 162.012 109.515 162.012C108.547 162.012 107.73 162.337 107.066 162.985C106.41 163.634 106.047 164.501 105.976 165.587ZM108.25 159.012L109.808 155.731H112.574L109.996 159.012H108.25ZM127.063 168.446L129.137 168.716C128.911 170.145 128.329 171.266 127.391 172.079C126.461 172.884 125.317 173.286 123.958 173.286C122.254 173.286 120.883 172.731 119.844 171.622C118.813 170.505 118.297 168.907 118.297 166.829C118.297 165.485 118.52 164.309 118.965 163.302C119.411 162.294 120.086 161.54 120.993 161.04C121.907 160.532 122.899 160.278 123.969 160.278C125.321 160.278 126.426 160.622 127.286 161.309C128.145 161.989 128.696 162.958 128.938 164.216L126.887 164.532C126.692 163.696 126.344 163.067 125.844 162.645C125.352 162.223 124.754 162.012 124.051 162.012C122.989 162.012 122.126 162.395 121.461 163.161C120.797 163.919 120.465 165.122 120.465 166.77C120.465 168.442 120.786 169.657 121.426 170.415C122.067 171.173 122.903 171.552 123.934 171.552C124.762 171.552 125.454 171.298 126.008 170.79C126.563 170.282 126.915 169.501 127.063 168.446ZM132.142 173.005V160.559H134.04V162.329C134.954 160.962 136.275 160.278 138.001 160.278C138.751 160.278 139.439 160.415 140.064 160.688C140.697 160.954 141.169 161.305 141.482 161.743C141.794 162.18 142.013 162.7 142.138 163.302C142.216 163.692 142.255 164.376 142.255 165.352V173.005H140.146V165.434C140.146 164.575 140.064 163.934 139.9 163.512C139.736 163.083 139.443 162.743 139.021 162.493C138.607 162.235 138.118 162.106 137.556 162.106C136.658 162.106 135.88 162.391 135.224 162.962C134.576 163.532 134.251 164.614 134.251 166.208V173.005H132.142ZM146.713 158.251V155.825H148.822V158.251H146.713ZM146.713 173.005V160.559H148.822V173.005H146.713ZM161.366 168.446L163.44 168.716C163.214 170.145 162.632 171.266 161.694 172.079C160.765 172.884 159.62 173.286 158.261 173.286C156.558 173.286 155.186 172.731 154.147 171.622C153.116 170.505 152.601 168.907 152.601 166.829C152.601 165.485 152.823 164.309 153.268 163.302C153.714 162.294 154.39 161.54 155.296 161.04C156.21 160.532 157.202 160.278 158.272 160.278C159.624 160.278 160.729 160.622 161.589 161.309C162.448 161.989 162.999 162.958 163.241 164.216L161.19 164.532C160.995 163.696 160.647 163.067 160.147 162.645C159.655 162.223 159.058 162.012 158.354 162.012C157.292 162.012 156.429 162.395 155.765 163.161C155.101 163.919 154.768 165.122 154.768 166.77C154.768 168.442 155.089 169.657 155.729 170.415C156.37 171.173 157.206 171.552 158.237 171.552C159.065 171.552 159.757 171.298 160.311 170.79C160.866 170.282 161.218 169.501 161.366 168.446ZM174.566 171.469C173.785 172.134 173.031 172.602 172.304 172.876C171.586 173.149 170.812 173.286 169.984 173.286C168.617 173.286 167.566 172.954 166.832 172.29C166.097 171.618 165.73 170.762 165.73 169.723C165.73 169.114 165.867 168.559 166.14 168.059C166.422 167.552 166.785 167.145 167.23 166.841C167.683 166.536 168.191 166.305 168.754 166.149C169.168 166.04 169.793 165.934 170.629 165.833C172.332 165.63 173.586 165.387 174.39 165.106C174.398 164.817 174.402 164.634 174.402 164.555C174.402 163.696 174.203 163.091 173.804 162.739C173.265 162.262 172.465 162.024 171.402 162.024C170.41 162.024 169.676 162.2 169.199 162.552C168.73 162.895 168.383 163.509 168.156 164.391L166.093 164.11C166.281 163.227 166.59 162.516 167.019 161.977C167.449 161.43 168.07 161.012 168.883 160.723C169.695 160.427 170.636 160.278 171.707 160.278C172.769 160.278 173.633 160.403 174.297 160.653C174.961 160.903 175.449 161.219 175.761 161.602C176.074 161.977 176.293 162.454 176.418 163.032C176.488 163.391 176.523 164.04 176.523 164.977V167.79C176.523 169.751 176.566 170.993 176.652 171.516C176.746 172.032 176.926 172.528 177.191 173.005H174.988C174.769 172.567 174.629 172.055 174.566 171.469ZM174.39 166.759C173.625 167.071 172.476 167.337 170.945 167.555C170.078 167.68 169.465 167.821 169.105 167.977C168.746 168.134 168.468 168.364 168.273 168.669C168.078 168.966 167.98 169.298 167.98 169.665C167.98 170.227 168.191 170.696 168.613 171.071C169.043 171.446 169.668 171.634 170.488 171.634C171.301 171.634 172.023 171.458 172.656 171.106C173.289 170.747 173.754 170.259 174.051 169.641C174.277 169.165 174.39 168.462 174.39 167.532V166.759ZM188.064 167.848V165.727H194.544V167.848H188.064ZM218.483 166.981L220.757 167.555C220.28 169.423 219.421 170.848 218.179 171.833C216.944 172.809 215.433 173.298 213.643 173.298C211.792 173.298 210.284 172.923 209.12 172.173C207.964 171.415 207.081 170.321 206.472 168.891C205.87 167.462 205.569 165.927 205.569 164.286C205.569 162.497 205.909 160.938 206.589 159.61C207.276 158.274 208.249 157.262 209.507 156.575C210.772 155.88 212.163 155.532 213.679 155.532C215.397 155.532 216.843 155.969 218.015 156.844C219.186 157.719 220.003 158.95 220.464 160.536L218.226 161.063C217.827 159.813 217.249 158.903 216.491 158.333C215.733 157.762 214.78 157.477 213.632 157.477C212.311 157.477 211.206 157.794 210.315 158.427C209.433 159.059 208.811 159.911 208.452 160.981C208.093 162.044 207.913 163.141 207.913 164.274C207.913 165.735 208.124 167.012 208.546 168.106C208.976 169.192 209.64 170.005 210.538 170.544C211.436 171.083 212.409 171.352 213.456 171.352C214.729 171.352 215.808 170.985 216.69 170.251C217.573 169.516 218.171 168.427 218.483 166.981ZM224.078 164.637C224.078 161.786 224.843 159.555 226.375 157.946C227.906 156.329 229.883 155.52 232.304 155.52C233.89 155.52 235.32 155.899 236.593 156.657C237.867 157.415 238.836 158.473 239.5 159.833C240.172 161.184 240.508 162.719 240.508 164.438C240.508 166.18 240.156 167.739 239.453 169.114C238.75 170.489 237.754 171.532 236.465 172.243C235.176 172.946 233.785 173.298 232.293 173.298C230.676 173.298 229.23 172.907 227.957 172.126C226.683 171.344 225.718 170.278 225.062 168.927C224.406 167.575 224.078 166.145 224.078 164.637ZM226.422 164.673C226.422 166.743 226.976 168.376 228.086 169.571C229.203 170.759 230.601 171.352 232.281 171.352C233.992 171.352 235.398 170.751 236.5 169.548C237.609 168.344 238.164 166.637 238.164 164.427C238.164 163.028 237.926 161.809 237.449 160.77C236.98 159.723 236.289 158.915 235.375 158.344C234.468 157.766 233.449 157.477 232.316 157.477C230.707 157.477 229.32 158.032 228.156 159.141C227 160.243 226.422 162.087 226.422 164.673ZM244.649 173.005V155.825H251.129C252.27 155.825 253.141 155.88 253.743 155.989C254.586 156.13 255.293 156.399 255.864 156.798C256.434 157.188 256.891 157.739 257.235 158.45C257.586 159.161 257.762 159.942 257.762 160.794C257.762 162.255 257.297 163.493 256.368 164.509C255.438 165.516 253.758 166.02 251.329 166.02H246.922V173.005H244.649ZM246.922 163.993H251.364C252.833 163.993 253.876 163.719 254.493 163.173C255.11 162.626 255.418 161.856 255.418 160.864C255.418 160.145 255.235 159.532 254.868 159.024C254.508 158.509 254.032 158.169 253.438 158.005C253.055 157.903 252.348 157.852 251.317 157.852H246.922V163.993ZM261.857 173.005V155.825H268.337C269.478 155.825 270.349 155.88 270.951 155.989C271.794 156.13 272.501 156.399 273.072 156.798C273.642 157.188 274.099 157.739 274.443 158.45C274.794 159.161 274.97 159.942 274.97 160.794C274.97 162.255 274.505 163.493 273.576 164.509C272.646 165.516 270.966 166.02 268.536 166.02H264.13V173.005H261.857ZM264.13 163.993H268.572C270.04 163.993 271.083 163.719 271.701 163.173C272.318 162.626 272.626 161.856 272.626 160.864C272.626 160.145 272.443 159.532 272.076 159.024C271.716 158.509 271.24 158.169 270.646 158.005C270.263 157.903 269.556 157.852 268.525 157.852H264.13V163.993ZM279.111 173.005V155.825H291.533V157.852H281.385V163.114H290.889V165.13H281.385V170.977H291.932V173.005H279.111ZM241.386 183.825H243.66V193.751C243.66 195.477 243.465 196.848 243.074 197.864C242.683 198.88 241.976 199.708 240.953 200.348C239.937 200.981 238.601 201.298 236.945 201.298C235.336 201.298 234.019 201.02 232.996 200.466C231.972 199.911 231.242 199.11 230.804 198.063C230.367 197.009 230.148 195.571 230.148 193.751V183.825H232.422V193.739C232.422 195.231 232.558 196.333 232.832 197.044C233.113 197.747 233.59 198.29 234.261 198.673C234.941 199.055 235.769 199.247 236.746 199.247C238.418 199.247 239.609 198.868 240.32 198.11C241.031 197.352 241.386 195.895 241.386 193.739V183.825ZM248.692 201.005V183.825H256.309C257.84 183.825 259.004 183.981 259.801 184.294C260.598 184.598 261.235 185.141 261.711 185.923C262.188 186.704 262.426 187.567 262.426 188.512C262.426 189.731 262.032 190.759 261.243 191.594C260.454 192.43 259.235 192.962 257.586 193.188C258.188 193.477 258.645 193.762 258.958 194.044C259.622 194.653 260.251 195.415 260.844 196.329L263.833 201.005H260.973L258.7 197.43C258.036 196.399 257.489 195.61 257.059 195.063C256.629 194.516 256.243 194.134 255.899 193.915C255.563 193.696 255.219 193.544 254.868 193.458C254.61 193.403 254.188 193.376 253.602 193.376H250.965V201.005H248.692ZM250.965 191.407H255.852C256.891 191.407 257.704 191.302 258.29 191.091C258.876 190.872 259.321 190.528 259.626 190.059C259.93 189.583 260.083 189.067 260.083 188.512C260.083 187.7 259.786 187.032 259.192 186.509C258.606 185.985 257.676 185.723 256.403 185.723H250.965V191.407ZM267.318 201.005V183.825H278.908V185.852H269.591V191.173H277.654V193.2H269.591V201.005H267.318ZM281.912 196.13L283.963 195.848C284.018 197.161 284.264 198.059 284.701 198.544C285.139 199.028 285.744 199.27 286.518 199.27C287.088 199.27 287.58 199.141 287.994 198.884C288.408 198.618 288.693 198.262 288.85 197.817C289.006 197.364 289.084 196.645 289.084 195.661V183.825H291.358V195.532C291.358 196.969 291.182 198.083 290.83 198.872C290.486 199.661 289.936 200.262 289.178 200.677C288.428 201.091 287.545 201.298 286.529 201.298C285.022 201.298 283.865 200.864 283.061 199.997C282.264 199.13 281.881 197.841 281.912 196.13Z" fill="black"/>
<path d="M148.589 94.8086V77.6289H161.011V79.6562H150.862V84.918H160.366V86.9336H150.862V92.7812H161.409V94.8086H148.589ZM164.28 94.8086V82.3633H166.179V84.1328C167.093 82.7656 168.413 82.082 170.14 82.082C170.89 82.082 171.577 82.2188 172.202 82.4922C172.835 82.7578 173.308 83.1094 173.62 83.5469C173.933 83.9844 174.151 84.5039 174.276 85.1055C174.354 85.4961 174.394 86.1797 174.394 87.1562V94.8086H172.284V87.2383C172.284 86.3789 172.202 85.7383 172.038 85.3164C171.874 84.8867 171.581 84.5469 171.159 84.2969C170.745 84.0391 170.257 83.9102 169.694 83.9102C168.796 83.9102 168.019 84.1953 167.362 84.7656C166.714 85.3359 166.39 86.418 166.39 88.0117V94.8086H164.28ZM177.253 95.8398L179.304 96.1445C179.39 96.7773 179.628 97.2383 180.019 97.5273C180.542 97.918 181.257 98.1133 182.163 98.1133C183.14 98.1133 183.894 97.918 184.425 97.5273C184.956 97.1367 185.315 96.5898 185.503 95.8867C185.612 95.457 185.663 94.5547 185.655 93.1797C184.733 94.2656 183.585 94.8086 182.21 94.8086C180.499 94.8086 179.175 94.1914 178.237 92.957C177.3 91.7227 176.831 90.2422 176.831 88.5156C176.831 87.3281 177.046 86.2344 177.476 85.2344C177.905 84.2266 178.526 83.4492 179.339 82.9023C180.159 82.3555 181.12 82.082 182.222 82.082C183.69 82.082 184.901 82.6758 185.854 83.8633V82.3633H187.8V93.1211C187.8 95.0586 187.601 96.4297 187.202 97.2344C186.812 98.0469 186.187 98.6875 185.327 99.1562C184.476 99.625 183.425 99.8594 182.175 99.8594C180.69 99.8594 179.491 99.5234 178.577 98.8516C177.663 98.1875 177.222 97.1836 177.253 95.8398ZM178.999 88.3633C178.999 89.9961 179.323 91.1875 179.972 91.9375C180.62 92.6875 181.433 93.0625 182.409 93.0625C183.378 93.0625 184.19 92.6914 184.847 91.9492C185.503 91.1992 185.831 90.0273 185.831 88.4336C185.831 86.9102 185.491 85.7617 184.812 84.9883C184.14 84.2148 183.327 83.8281 182.374 83.8281C181.437 83.8281 180.64 84.2109 179.983 84.9766C179.327 85.7344 178.999 86.8633 178.999 88.3633ZM199.519 90.8008L201.698 91.0703C201.354 92.3438 200.718 93.332 199.788 94.0352C198.858 94.7383 197.671 95.0898 196.226 95.0898C194.405 95.0898 192.96 94.5312 191.89 93.4141C190.827 92.2891 190.296 90.7148 190.296 88.6914C190.296 86.5977 190.835 84.9727 191.913 83.8164C192.991 82.6602 194.39 82.082 196.108 82.082C197.772 82.082 199.132 82.6484 200.187 83.7812C201.241 84.9141 201.769 86.5078 201.769 88.5625C201.769 88.6875 201.765 88.875 201.757 89.125H192.476C192.554 90.4922 192.94 91.5391 193.636 92.2656C194.331 92.9922 195.198 93.3555 196.237 93.3555C197.011 93.3555 197.671 93.1523 198.218 92.7461C198.765 92.3398 199.198 91.6914 199.519 90.8008ZM192.593 87.3906H199.542C199.448 86.3438 199.183 85.5586 198.745 85.0352C198.073 84.2227 197.202 83.8164 196.132 83.8164C195.163 83.8164 194.347 84.1406 193.683 84.7891C193.026 85.4375 192.663 86.3047 192.593 87.3906ZM204.358 94.8086V82.3633H206.257V84.1328C207.171 82.7656 208.491 82.082 210.218 82.082C210.968 82.082 211.655 82.2188 212.28 82.4922C212.913 82.7578 213.386 83.1094 213.698 83.5469C214.011 83.9844 214.229 84.5039 214.354 85.1055C214.433 85.4961 214.472 86.1797 214.472 87.1562V94.8086H212.362V87.2383C212.362 86.3789 212.28 85.7383 212.116 85.3164C211.952 84.8867 211.659 84.5469 211.237 84.2969C210.823 84.0391 210.335 83.9102 209.772 83.9102C208.874 83.9102 208.097 84.1953 207.44 84.7656C206.792 85.3359 206.468 86.418 206.468 88.0117V94.8086H204.358ZM217.718 94.8086V77.6289H219.827V83.793C220.812 82.6523 222.054 82.082 223.554 82.082C224.476 82.082 225.276 82.2656 225.956 82.6328C226.636 82.9922 227.12 83.4922 227.409 84.1328C227.706 84.7734 227.854 85.7031 227.854 86.9219V94.8086H225.745V86.9219C225.745 85.8672 225.515 85.1016 225.054 84.625C224.601 84.1406 223.956 83.8984 223.12 83.8984C222.495 83.8984 221.905 84.0625 221.351 84.3906C220.804 84.7109 220.413 85.1484 220.179 85.7031C219.944 86.2578 219.827 87.0234 219.827 88V94.8086H217.718ZM239.198 93.2734C238.417 93.9375 237.663 94.4062 236.937 94.6797C236.218 94.9531 235.444 95.0898 234.616 95.0898C233.249 95.0898 232.198 94.7578 231.464 94.0938C230.729 93.4219 230.362 92.5664 230.362 91.5273C230.362 90.918 230.499 90.3633 230.772 89.8633C231.054 89.3555 231.417 88.9492 231.862 88.6445C232.315 88.3398 232.823 88.1094 233.386 87.9531C233.8 87.8438 234.425 87.7383 235.261 87.6367C236.964 87.4336 238.218 87.1914 239.022 86.9102C239.03 86.6211 239.034 86.4375 239.034 86.3594C239.034 85.5 238.835 84.8945 238.437 84.543C237.897 84.0664 237.097 83.8281 236.034 83.8281C235.042 83.8281 234.308 84.0039 233.831 84.3555C233.362 84.6992 233.015 85.3125 232.788 86.1953L230.726 85.9141C230.913 85.0312 231.222 84.3203 231.651 83.7812C232.081 83.2344 232.702 82.8164 233.515 82.5273C234.327 82.2305 235.269 82.082 236.339 82.082C237.401 82.082 238.265 82.207 238.929 82.457C239.593 82.707 240.081 83.0234 240.394 83.4062C240.706 83.7812 240.925 84.2578 241.05 84.8359C241.12 85.1953 241.155 85.8438 241.155 86.7812V89.5938C241.155 91.5547 241.198 92.7969 241.284 93.3203C241.378 93.8359 241.558 94.332 241.823 94.8086H239.62C239.401 94.3711 239.261 93.8594 239.198 93.2734ZM239.022 88.5625C238.257 88.875 237.108 89.1406 235.577 89.3594C234.71 89.4844 234.097 89.625 233.737 89.7812C233.378 89.9375 233.101 90.168 232.905 90.4727C232.71 90.7695 232.612 91.1016 232.612 91.4688C232.612 92.0312 232.823 92.5 233.245 92.875C233.675 93.25 234.3 93.4375 235.12 93.4375C235.933 93.4375 236.655 93.2617 237.288 92.9102C237.921 92.5508 238.386 92.0625 238.683 91.4453C238.909 90.9688 239.022 90.2656 239.022 89.3359V88.5625ZM244.413 94.8086V82.3633H246.312V84.25C246.796 83.3672 247.241 82.7852 247.647 82.5039C248.062 82.2227 248.515 82.082 249.007 82.082C249.718 82.082 250.44 82.3086 251.175 82.7617L250.448 84.7188C249.933 84.4141 249.417 84.2617 248.901 84.2617C248.44 84.2617 248.026 84.4023 247.659 84.6836C247.292 84.957 247.03 85.3398 246.874 85.832C246.64 86.582 246.522 87.4023 246.522 88.293V94.8086H244.413ZM252.44 80.0547V77.6289H254.55V80.0547H252.44ZM252.44 94.8086V82.3633H254.55V94.8086H252.44ZM265.894 93.2734C265.112 93.9375 264.358 94.4062 263.632 94.6797C262.913 94.9531 262.14 95.0898 261.312 95.0898C259.944 95.0898 258.894 94.7578 258.159 94.0938C257.425 93.4219 257.058 92.5664 257.058 91.5273C257.058 90.918 257.194 90.3633 257.468 89.8633C257.749 89.3555 258.112 88.9492 258.558 88.6445C259.011 88.3398 259.519 88.1094 260.081 87.9531C260.495 87.8438 261.12 87.7383 261.956 87.6367C263.659 87.4336 264.913 87.1914 265.718 86.9102C265.726 86.6211 265.729 86.4375 265.729 86.3594C265.729 85.5 265.53 84.8945 265.132 84.543C264.593 84.0664 263.792 83.8281 262.729 83.8281C261.737 83.8281 261.003 84.0039 260.526 84.3555C260.058 84.6992 259.71 85.3125 259.483 86.1953L257.421 85.9141C257.608 85.0312 257.917 84.3203 258.347 83.7812C258.776 83.2344 259.397 82.8164 260.21 82.5273C261.022 82.2305 261.964 82.082 263.034 82.082C264.097 82.082 264.96 82.207 265.624 82.457C266.288 82.707 266.776 83.0234 267.089 83.4062C267.401 83.7812 267.62 84.2578 267.745 84.8359C267.815 85.1953 267.851 85.8438 267.851 86.7812V89.5938C267.851 91.5547 267.894 92.7969 267.979 93.3203C268.073 93.8359 268.253 94.332 268.519 94.8086H266.315C266.097 94.3711 265.956 93.8594 265.894 93.2734ZM265.718 88.5625C264.952 88.875 263.804 89.1406 262.272 89.3594C261.405 89.4844 260.792 89.625 260.433 89.7812C260.073 89.9375 259.796 90.168 259.601 90.4727C259.405 90.7695 259.308 91.1016 259.308 91.4688C259.308 92.0312 259.519 92.5 259.94 92.875C260.37 93.25 260.995 93.4375 261.815 93.4375C262.628 93.4375 263.351 93.2617 263.983 92.9102C264.616 92.5508 265.081 92.0625 265.378 91.4453C265.604 90.9688 265.718 90.2656 265.718 89.3359V88.5625Z" fill="black"/>
</svg>
