<svg width="98" height="83" viewBox="0 0 98 83" fill="none" xmlns="http://www.w3.org/2000/svg">
<path d="M17 4.28339C17 7.31672 17.05 7.83339 17.3167 8.43339C17.7 9.28339 18.55 9.95005 19.3333 10.0334L19.9167 10.0834L20.0167 12.2501C20.1333 15.1001 20.6 16.4167 21.7833 17.3167C22.0333 17.5001 22.3333 17.7167 22.4167 17.8001C22.5167 17.8667 23.05 18.0501 23.6333 18.2167C24.6 18.4834 24.75 18.4834 25.7 18.2501C26.8667 17.9334 27.3833 17.6501 28.0833 16.9167C28.9667 16.0001 29.15 15.3334 29.2 12.7501C29.2333 11.4667 29.3167 10.3167 29.3833 10.2001C29.4833 10.0501 30.4667 10.0001 33.3333 10.0001C35.4167 10.0001 37.25 10.0501 37.4 10.1001C37.6167 10.1834 37.6667 10.5167 37.6667 12.1001C37.6667 14.3667 37.8833 15.5501 38.4667 16.3334C39.3 17.4667 39.9 17.8834 41.2833 18.2334C42.1667 18.4667 42.3833 18.4667 43.2333 18.2501C43.7667 18.1167 44.35 17.9167 44.5333 17.8167C45.0333 17.5501 46.1667 16.4834 46.1667 16.2834C46.1667 16.1834 46.3 15.9667 46.45 15.8001C46.6833 15.5334 46.75 15.0334 46.8 12.8667C46.85 11.1834 46.9333 10.2001 47.0667 10.1334C47.3833 9.91672 50.75 9.98339 50.9667 10.2001C51.1 10.3334 51.1667 11.0501 51.1667 12.3001C51.1667 14.9334 51.45 15.9501 52.5 17.0167C53.05 17.5834 53.7333 17.9334 54.8167 18.2501C55.6333 18.4667 55.8167 18.4667 56.7333 18.2334C58.3167 17.8167 59.1667 17.2001 59.8667 15.9001C60.15 15.3501 60.2167 14.8667 60.2833 12.7501C60.35 11.1667 60.45 10.2001 60.5667 10.1334C60.7833 9.98339 68.0333 9.95005 68.4 10.1001C68.6167 10.1834 68.6667 10.5001 68.6667 11.9001C68.6667 12.8334 68.75 14.0501 68.85 14.5834C69.1833 16.4001 70.4 17.7001 72.2167 18.2167C73.25 18.5167 73.3333 18.5167 74.35 18.2334C75.5667 17.9001 76.6333 17.1334 77.3 16.1001C77.7167 15.4501 77.75 15.2834 77.8 12.9167C77.8333 11.5334 77.95 10.3167 78.0333 10.2001C78.1333 10.1001 78.4333 10.0001 78.7 10.0001C79.2 10.0001 79.8667 9.65005 80.4167 9.10005C80.7333 8.78339 80.75 8.50005 80.8 4.80005L80.85 0.833387H48.9333H17V4.28339ZM42.9167 11.3334C42.9667 11.4167 43.1333 11.5001 43.2833 11.5001C43.4167 11.5001 43.7333 11.6501 43.9667 11.8501C44.7333 12.4501 45 13.0001 45 14.0501C45 14.8501 44.9167 15.1334 44.5667 15.6001C43.3333 17.2167 41.3833 17.2834 40.0667 15.7501C39.2667 14.8167 39.4 12.9667 40.3333 12.0834C41.1 11.3501 42.65 10.9001 42.9167 11.3334ZM56.4167 11.3334C56.4667 11.4167 56.6333 11.5001 56.7833 11.5001C57.1167 11.5001 57.8333 12.0834 58.2 12.6334C58.6667 13.3334 58.6 14.7667 58.0833 15.5334C57.1167 16.9501 55.4333 17.2667 54.15 16.2834C52.7167 15.2001 52.5667 13.3167 53.7833 12.1334C54.5833 11.3667 56.1333 10.8834 56.4167 11.3334ZM25.25 11.8334C25.3 11.9167 25.4833 12.0001 25.65 12.0001C26.1 12.0001 26.7833 12.7167 27.1 13.4834C27.4833 14.4667 27.1667 15.5001 26.2333 16.2667C24.9833 17.3001 23.3833 16.9501 22.5333 15.4834C22.1 14.7501 22.05 13.6334 22.4167 13.2667C22.55 13.1334 22.6667 12.9667 22.6667 12.8834C22.6667 12.2834 24.95 11.3501 25.25 11.8334ZM74.2 11.9834C75.7167 12.6334 76.2833 14.2167 75.4833 15.5667C74.7333 16.8501 73.15 17.2167 71.95 16.4167C71.1833 15.8834 70.6 14.6834 70.7333 13.9167C70.9167 12.9334 72.2167 11.8001 73.2833 11.6834C73.3833 11.6834 73.8 11.8001 74.2 11.9834Z" fill="#C44814"/>
<path d="M36.7667 18.3834C36.6 18.6668 36.2167 19.3834 35.9 19.9501C35.6 20.5334 35.1667 21.2834 34.95 21.6168C34.7333 21.9668 34.5 22.3668 34.45 22.5001C34.3833 22.6334 34.1833 22.9668 34 23.2501C33.8167 23.5168 33.6 23.9001 33.5167 24.1001C33.3667 24.4168 32.2167 26.4001 31.8333 27.0001C31.7333 27.1334 31.5833 27.4501 31.4833 27.7001C31.3833 27.9668 31.2333 28.1668 31.15 28.1668C31.0667 28.1668 31 28.2334 31 28.3334C31 28.4168 30.6833 29.0334 30.2833 29.7001C29.8833 30.3667 29.5167 31.0334 29.45 31.1667C29.3833 31.3001 29.1833 31.6334 29 31.9167C28.8167 32.1834 28.6 32.5667 28.5167 32.7667C28.4333 32.9501 28.0667 33.6001 27.7167 34.1834C27.35 34.7667 27.0167 35.3667 26.95 35.5001C26.8833 35.6334 26.6833 35.9667 26.5 36.2501C26.3167 36.5167 26.0833 36.9501 25.9833 37.2167C25.7333 37.8334 25.15 37.9501 24.45 37.5167C24.1333 37.3167 23.6833 37.1667 23.4667 37.1667C23.0833 37.1667 22.5 37.6167 22.5 37.9001C22.5 37.9834 22.1333 38.6501 21.6833 39.4001C20.2833 41.7167 20.1833 41.9001 20.0167 42.2501C19.9333 42.4501 19.4667 43.2667 18.9667 44.0834C18.4667 44.9167 18.0167 45.7001 17.95 45.8334C17.8833 45.9667 17.6833 46.3001 17.5 46.5834C17.3167 46.8501 17.0667 47.3001 16.9333 47.5834C16.8 47.8501 16.45 48.4501 16.1833 48.9167C15.9 49.3667 15.6 49.9001 15.5167 50.1001C15.3333 50.5001 14.3167 52.2167 14.1667 52.3334C14.1167 52.3834 13.9167 52.7501 13.7 53.1667C13.4833 53.5834 13.1667 54.1334 13 54.4167C12.8167 54.6834 12.6 55.0667 12.5167 55.2501C12.4333 55.4501 11.9667 56.2667 11.4667 57.0834C10.9667 57.9167 10.5167 58.7001 10.45 58.8334C10.2167 59.2834 9.91666 59.8001 9.68333 60.0667C9.54999 60.2167 9.49999 60.3834 9.54999 60.4334C9.59999 60.4834 10.8833 60.5167 12.4 60.5001C15.2667 60.4834 15.3333 60.5001 16.9667 61.3001C17.2667 61.4334 17.7833 61.8501 18.0833 62.2001C18.75 62.9334 18.95 62.9834 19.1667 62.4501C19.2667 62.2501 19.4 61.9667 19.4833 61.8334C19.85 61.2501 21.1167 59.0667 21.2167 58.8334C21.2833 58.7001 21.4833 58.3501 21.65 58.0834C21.8333 57.8001 22.1167 57.3167 22.2833 57.0001C22.85 55.9667 23.35 55.1001 23.6833 54.5834C23.85 54.3001 24.0667 53.9334 24.15 53.7334C24.2333 53.5501 24.6 52.9001 24.95 52.3167C25.3167 51.7334 25.65 51.1334 25.7167 51.0001C25.7833 50.8667 25.9833 50.5167 26.1667 50.2501C26.35 49.9667 26.55 49.6334 26.6167 49.5001C26.6833 49.3667 27.05 48.7001 27.45 48.0334C27.85 47.3501 28.1667 46.7834 28.1667 46.7501C28.1667 46.7167 28.3667 46.3667 28.6333 45.9667C29.4167 44.7167 29.5 44.6001 29.6833 44.1667C29.7667 43.9501 29.9 43.7167 29.9667 43.6667C30.1667 43.5167 30.8333 42.0501 30.8333 41.7667C30.8333 41.3667 30.5333 40.8334 30.2833 40.8334C30.1667 40.8167 29.8667 40.6334 29.5833 40.4167L29.0833 40.0001L29.4 39.4667C29.5667 39.1667 29.85 38.6501 30.0333 38.3334C30.2167 38.0167 30.5 37.5167 30.6833 37.2501C30.85 36.9667 31.0667 36.6001 31.15 36.4001C31.2333 36.2167 31.6 35.5667 31.95 34.9834C32.3167 34.4001 32.65 33.8001 32.7167 33.6667C32.7833 33.5334 32.9833 33.1834 33.1667 32.9167C33.35 32.6334 33.5667 32.2667 33.65 32.0834C33.7833 31.7667 35.4333 28.9668 35.8333 28.3334C35.9333 28.2001 36.0667 27.9334 36.15 27.7334C36.2833 27.4168 37.4167 25.5001 37.8333 24.8334C37.9333 24.7001 38.0667 24.4334 38.15 24.2501C38.2333 24.0501 38.7167 23.2001 39.2333 22.3668C39.75 21.5168 40.1667 20.7668 40.1667 20.6834C40.1667 20.6001 40.2833 20.4501 40.4167 20.3334C40.8667 19.9668 40.6833 19.7168 39.7667 19.4334C39.2333 19.2668 38.5333 18.8668 38.1167 18.4834C37.7 18.1334 37.3 17.8334 37.2167 17.8334C37.15 17.8334 36.95 18.0834 36.7667 18.3834Z" fill="#C44814"/>
<path d="M60.1167 18.3167C59.65 18.7834 59.05 19.1334 58.05 19.5C57.75 19.6167 57.5 19.8167 57.5 19.9334C57.5 20.0667 57.8 20.6667 58.1833 21.2667C58.55 21.8834 58.9333 22.55 59.0167 22.7334C59.1 22.9334 59.2333 23.2 59.3333 23.3334C59.75 24 60.8833 25.9167 61.0167 26.2334C61.1 26.4334 61.2667 26.7334 61.3667 26.9167C62.1167 28.0834 63.0667 29.7 63.4333 30.4167C63.5667 30.6834 63.8167 31.1334 64 31.4167C64.1833 31.6834 64.4 32.0667 64.5 32.25C64.6 32.4334 64.7667 32.7334 64.8833 32.9167C65 33.1 65.3833 33.7667 65.75 34.4167C66.1167 35.05 66.5 35.7334 66.6167 35.9167C66.7333 36.1 66.9 36.4 67 36.5834C67.1 36.7667 67.4 37.2834 67.6833 37.75C67.9667 38.2 68.2667 38.7834 68.3833 39.0334C68.4833 39.3 68.6333 39.5 68.7 39.5C68.7667 39.5 68.8333 39.6334 68.8333 39.8C68.8333 40.1167 68.1833 40.8334 67.9 40.8334C67.8 40.8334 67.55 41.0667 67.35 41.35C66.9667 41.85 66.9667 41.8667 67.2833 42.2167C67.4667 42.4167 67.7167 42.85 67.8333 43.1667C67.95 43.4834 68.15 43.8667 68.2833 44.0167C68.4 44.15 68.5 44.3667 68.5 44.4667C68.5 44.5834 68.5667 44.6667 68.65 44.6667C68.7333 44.6667 69.0833 45.2167 69.4333 45.8667C70.3 47.55 70.6333 48.1667 71.0167 48.75C71.1833 49.0167 71.3833 49.3667 71.45 49.5C71.5167 49.6334 71.85 50.2334 72.2167 50.8167C72.5667 51.4 72.9333 52.05 73.0167 52.2334C73.1 52.4334 73.3167 52.8 73.4833 53.0834C73.8167 53.6 74.2167 54.2834 74.7667 55.3334C74.95 55.65 75.1333 55.95 75.2 56C75.2667 56.05 75.4 56.2834 75.5 56.5C75.5833 56.7334 75.8167 57.1334 76 57.4167C76.1667 57.6834 76.4833 58.25 76.7 58.6667C76.9167 59.0834 77.1333 59.45 77.1833 59.5C77.2333 59.55 77.55 60.0667 77.9 60.6667C78.2333 61.2667 78.6 61.8667 78.6833 62C78.7667 62.1334 78.8833 62.3834 78.9333 62.5334C79.0833 62.95 79.4167 62.9 79.7333 62.4167C80.1 61.8667 81.1667 61.1667 82.2167 60.8C82.9 60.55 83.6 60.5 85.7833 60.5C87.2833 60.5 88.5 60.4667 88.5 60.4167C88.5 60.3834 88.2333 59.9334 87.9167 59.4167C87.6 58.9167 87.25 58.3334 87.1667 58.1334C87.0667 57.9167 86.9333 57.6334 86.8333 57.5C86.4167 56.8667 85.2833 54.9167 85.15 54.6C85.0667 54.4 84.85 54.0167 84.6667 53.75C84.4833 53.4667 84.2833 53.1334 84.2167 53C84.15 52.8667 83.8167 52.2667 83.45 51.6834C83.1 51.1 82.7333 50.45 82.65 50.2667C82.5667 50.0667 82.35 49.6834 82.1667 49.4167C81.9833 49.1334 81.7667 48.7667 81.6667 48.5834C81.5833 48.4 81.4333 48.1334 81.3333 48C80.9167 47.3334 79.7833 45.4167 79.65 45.1C79.5667 44.9 79.4333 44.6334 79.3333 44.5C78.9167 43.8667 77.7833 41.9167 77.65 41.6C77.5667 41.4 77.35 41.0167 77.1833 40.75C77 40.4667 76.7 39.9667 76.5 39.6C76.3167 39.25 75.8833 38.55 75.5667 38.05C75 37.1667 74.95 37.1334 74.3833 37.2167C74.0667 37.2834 73.6667 37.4334 73.5 37.5834C73.0833 37.9667 72.4167 37.9 72.2 37.45C72.0833 37.25 71.75 36.6334 71.4167 36.0834C71.1 35.5334 70.7833 34.9667 70.7167 34.8334C70.65 34.7 70.3167 34.1 69.95 33.5167C69.6 32.9334 69.2333 32.2834 69.15 32.1C69.0667 31.9 68.85 31.5167 68.6833 31.25C68.35 30.7334 67.95 30.05 67.4 29C67.2167 28.6834 67.0333 28.3834 66.9833 28.3334C66.9167 28.2834 66.6833 27.8667 66.4333 27.4167C66.1833 26.95 65.9167 26.4667 65.8333 26.3334C65.1 25.15 63.7667 22.8667 63.65 22.5834C63.5667 22.4 63.4333 22.1334 63.3333 22C63.25 21.8667 62.8333 21.15 62.4167 20.4167C61.9833 19.6834 61.5667 18.9667 61.4833 18.8334C61.4 18.7 61.2667 18.4167 61.1667 18.2C60.95 17.7167 60.6833 17.7334 60.1167 18.3167Z" fill="#C44814"/>
<path d="M27.8333 18.7501C27.4167 19.0668 26.95 19.3168 26.7833 19.3168C26.35 19.3334 26.2833 19.7001 26.5833 20.5168C26.7333 20.9168 26.9 21.4334 26.95 21.6668C27 21.9001 27.15 22.2334 27.2667 22.4168C27.4 22.6001 27.5 22.8834 27.5 23.0334C27.5 23.2001 27.5667 23.4668 27.6667 23.6334C27.8667 23.9834 28.3333 25.2668 28.45 25.8334C28.5 26.0668 28.65 26.4001 28.7667 26.5834C28.9 26.7668 29 27.0834 29 27.3001C29 27.7834 29.3333 27.7168 29.6333 27.1501C29.75 26.9334 30 26.5168 30.1667 26.2501C31.0167 24.9168 31.0667 24.7168 30.7833 23.8668C30.35 22.5668 30.1167 21.9501 29.8833 21.3834C29.7667 21.1001 29.6667 20.7501 29.6667 20.6168C29.6667 20.4668 29.6 20.3168 29.5167 20.2668C29.4333 20.2168 29.3 19.8501 29.2 19.4668C29.1 19.0668 28.9167 18.6334 28.8 18.4834C28.6 18.2334 28.5167 18.2501 27.8333 18.7501Z" fill="#C44814"/>
<path d="M69.0166 18.8668C68.7166 19.8501 68.3333 20.9168 68.1666 21.2001C68.0666 21.3668 68 21.5834 68 21.6834C68 21.7834 67.9 22.1001 67.7833 22.3834C67.0166 24.1834 66.8833 24.8668 67.2333 25.1501C67.3833 25.2834 67.5 25.4334 67.5 25.5168C67.5 25.5834 67.7666 26.1001 68.1 26.6501C68.75 27.7335 69.05 27.8001 69.2166 26.8668C69.2666 26.6168 69.4666 26.0001 69.6666 25.5001C69.8666 25.0001 70.1 24.3168 70.2 24.0001C70.2833 23.6834 70.4333 23.3501 70.5166 23.2501C70.6 23.1668 70.6666 22.9501 70.6666 22.7501C70.6666 22.5501 70.7833 22.2501 70.9166 22.0668C71.05 21.9001 71.1666 21.6001 71.1666 21.4001C71.1666 21.2168 71.2833 20.9168 71.4166 20.7334C71.75 20.2834 71.75 19.3334 71.4 19.3334C71.1 19.3334 69.95 18.6834 69.8666 18.4668C69.8333 18.4001 69.6666 18.3334 69.5 18.3334C69.2833 18.3334 69.1333 18.5168 69.0166 18.8668Z" fill="#C44814"/>
<path d="M22.2667 19.8834C22.0167 20.4834 21.7167 21.5834 21.5167 22.5834C21.45 22.9501 21.3167 23.5168 21.2167 23.8334C21.0333 24.4001 20.7167 25.5168 20.2333 27.3334C20.1 27.8334 19.8833 28.5834 19.75 29.0001C19.6333 29.4168 19.4833 30.0668 19.4167 30.4501C19.35 30.8501 19.2333 31.2001 19.15 31.2668C19.0667 31.3168 19 31.6001 19 31.8834C19 32.1834 18.8833 32.6334 18.75 32.9001C18.6167 33.1501 18.5 33.5334 18.5 33.7334C18.5 33.9168 18.4 34.4168 18.2667 34.8334C18.05 35.5501 17.6333 36.9668 17.4167 37.7834C17.3 38.2001 17.0833 38.2501 16.4333 38.0001C16.2 37.9168 15.9 37.8834 15.7833 37.9334C15.5 38.0334 15 39.0501 15 39.5001C15 39.6834 14.9 40.1168 14.7667 40.4501C14.5 41.2001 14.05 42.9168 13.5 45.2501C13.3833 45.7001 13.2333 46.1501 13.15 46.2501C13.0667 46.3334 13 46.6334 13 46.9168C13 47.1834 12.8833 47.6334 12.75 47.9001C12.6167 48.1501 12.5 48.5334 12.5 48.7334C12.5 49.0668 12.4167 49.3501 11.75 51.4668C11.3 52.9001 11.6833 52.8001 12.5 51.2501C12.7 50.8834 13 50.3501 13.1667 50.0834C13.3333 49.8001 13.6833 49.2001 13.9167 48.7501C14.15 48.2834 14.4833 47.6834 14.6667 47.4168C14.85 47.1334 15.0667 46.7668 15.1667 46.5834C15.25 46.4001 15.4 46.1334 15.4833 46.0001C15.85 45.4168 17.1167 43.2334 17.2167 43.0001C17.2833 42.8668 17.4833 42.5168 17.6667 42.2501C17.85 41.9668 18.1 41.5168 18.2333 41.2501C18.3667 40.9668 18.7167 40.3668 18.9833 39.9168C19.2667 39.4501 19.5667 38.9334 19.6667 38.7501C19.7667 38.5668 20.0167 38.1168 20.2333 37.7501C20.45 37.3834 20.6833 36.7668 20.75 36.3834C20.8 35.9834 20.9167 35.6334 21.0167 35.5834C21.1 35.5168 21.1667 35.2834 21.1667 35.0334C21.1667 34.7834 21.2667 34.2501 21.4 33.8334C21.6333 33.1001 21.9333 32.0168 22.4167 30.2001C22.9667 28.2001 23.2 27.3834 23.4333 26.6501C23.55 26.2168 23.6667 25.7001 23.6667 25.4834C23.6667 25.2668 23.7833 24.8668 23.9167 24.6001C24.05 24.3501 24.1667 23.9668 24.1667 23.7668C24.1667 23.5834 24.2667 23.0834 24.4 22.6668C24.5333 22.2501 24.75 21.5334 24.9 21.0668C25.2833 19.8501 25.2833 19.8334 24.3 19.8334C23.8167 19.8334 23.2 19.7168 22.95 19.5834C22.5 19.3501 22.4833 19.3668 22.2667 19.8834Z" fill="#C44814"/>
<path d="M75.2167 19.5167C75.1 19.6334 74.55 19.7667 73.9667 19.8167C72.7167 19.9334 72.7167 19.8167 73.7667 23.1667C73.9 23.5834 74 24.0834 74 24.2667C74 24.4667 74.1167 24.8501 74.25 25.1001C74.3833 25.3667 74.5 25.8167 74.5 26.1001C74.5 26.3667 74.5667 26.6667 74.6667 26.7667C74.75 26.8501 74.9 27.2667 74.9833 27.6667C75.1833 28.5834 75.45 29.6501 75.7667 30.7834C75.9 31.2667 76.1167 32.1001 76.2667 32.6167C76.4167 33.1501 76.6333 33.9167 76.7667 34.3334C76.9 34.7501 77 35.2501 77 35.4334C77 35.6334 77.1167 36.0167 77.25 36.2667C77.3833 36.5334 77.5 36.9167 77.5 37.1001C77.5 37.3001 77.6167 37.5501 77.75 37.6667C77.8833 37.7834 78 37.9334 78 38.0167C78 38.1001 78.3 38.6667 78.6833 39.2667C79.05 39.8834 79.4333 40.5501 79.5167 40.7334C79.6 40.9334 79.8167 41.3001 80 41.5834C80.1833 41.8501 80.4 42.2334 80.5 42.4167C80.5833 42.6001 80.9333 43.2001 81.25 43.7501C81.5667 44.3001 81.9 44.9001 82 45.0834C82.1 45.2667 82.3167 45.6334 82.5 45.9167C82.6833 46.1834 82.8833 46.5334 82.95 46.6667C83.0667 46.9001 84.35 49.1501 84.6667 49.6667C84.75 49.8001 84.9667 50.2001 85.15 50.5334C85.6833 51.5167 86.35 52.5334 86.4167 52.4667C86.5 52.4001 86.0833 50.7167 85.85 50.1167C85.75 49.8501 85.6667 49.4667 85.6667 49.2501C85.6667 49.0501 85.55 48.6501 85.4167 48.4001C85.2833 48.1334 85.1667 47.7334 85.1667 47.5167C85.1667 47.3001 85.05 46.7834 84.9333 46.3501C84.65 45.4834 84.1667 43.7667 83.4 40.9167C82.6 37.9001 82.4333 37.6501 81.6 38.0167C80.8333 38.3667 80.7833 38.2834 79.9333 35.3501C79.7833 34.8667 79.6667 34.2834 79.6667 34.0667C79.6667 33.8667 79.6 33.6501 79.5167 33.5834C79.4167 33.5334 79.3 33.1334 79.2333 32.7001C79.1833 32.2667 79.0667 31.8334 79 31.7501C78.9333 31.6501 78.8167 31.3167 78.7667 31.0001C78.7 30.6834 78.55 30.0167 78.4 29.5501C78.2667 29.0667 78.05 28.2667 77.9167 27.8001C77.4333 25.9834 77.1333 24.9001 76.9 24.1667C76.7667 23.7501 76.6667 23.2834 76.6667 23.1001C76.6667 22.9334 76.55 22.4501 76.4167 22.0167C76.2833 21.6001 76.05 20.8167 75.9 20.2834C75.6333 19.3001 75.5333 19.2001 75.2167 19.5167Z" fill="#C44814"/>
<path d="M34.3167 34.5334C34.1833 34.7334 34.0167 35.0501 33.9167 35.2001C32.75 37.1667 32.6667 37.7167 33.2833 38.9501C33.5333 39.4001 33.5333 39.5167 33.3167 39.7667C33.1833 39.9167 32.8333 40.1501 32.55 40.2834C31.9333 40.5334 31.8333 40.9834 32.2333 41.7834C32.5667 42.4334 32.7833 42.9667 33.0167 43.7501C33.1333 44.1167 33.3 44.4834 33.3667 44.5667C33.4333 44.6667 33.5 44.9334 33.5 45.1834C33.5 45.4334 33.6167 45.7167 33.75 45.8334C33.8833 45.9501 34 46.2167 34 46.4167C34 46.6334 34.1167 47.0167 34.25 47.2667C34.3833 47.5334 34.5 47.8667 34.5 48.0001C34.5 48.1501 34.5667 48.3334 34.65 48.4167C34.7333 48.5167 34.8833 48.8501 34.9667 49.1667C35.0667 49.4834 35.3 50.1667 35.5 50.6667C35.7 51.1667 35.9 51.7667 35.95 52.0001C36 52.2334 36.1 52.4834 36.1667 52.5834C36.2333 52.6667 36.3833 53.0167 36.4667 53.3334C36.5667 53.6501 36.8 54.3334 37 54.8334C37.7667 56.8334 37.8667 57.1001 37.95 57.5001C38 57.7334 38.1 57.9834 38.1667 58.0834C38.2333 58.1667 38.3833 58.5167 38.4667 58.8334C38.5667 59.1501 38.8 59.8334 39 60.3334C39.2 60.8334 39.4 61.4334 39.45 61.6667C39.5 61.9001 39.65 62.2334 39.7667 62.4167C39.9 62.6001 40 62.9001 40 63.1167C40 63.3167 40.0833 63.5334 40.1833 63.5834C40.2667 63.6501 41.8667 63.7001 43.7167 63.7001C47.4667 63.6834 47.45 63.6834 46.9333 62.5834C46.7833 62.2834 46.6667 61.9167 46.6667 61.7834C46.6667 61.6334 46.5667 61.3167 46.4333 61.0501C45.9833 60.1501 45.6667 59.3167 45.6667 59.0334C45.6667 58.8834 45.55 58.6001 45.4167 58.4334C45.2833 58.2501 45.1667 57.9501 45.1667 57.7501C45.1667 57.5501 45.1 57.3334 45.0167 57.2501C44.9333 57.1501 44.7833 56.8167 44.7 56.5001C44.6 56.1834 44.3667 55.5001 44.1667 55.0001C43.9667 54.5001 43.7667 53.9001 43.7167 53.6667C43.6667 53.4334 43.5167 53.1001 43.4 52.9167C43.2667 52.7334 43.1667 52.4501 43.1667 52.3001C43.1667 52.1334 43.1 51.8667 43 51.7001C42.8 51.3501 42.3333 50.0667 42.2167 49.5001C42.1667 49.2667 42.0167 48.9334 41.9 48.7501C41.7667 48.5667 41.6667 48.3001 41.6667 48.1501C41.6667 48.0001 41.55 47.6501 41.4167 47.4001C41.2833 47.1334 41.1667 46.8001 41.1667 46.6501C41.1667 46.5001 41.05 46.2834 40.9167 46.1667C40.7833 46.0501 40.6667 45.7501 40.6667 45.5167C40.6667 45.2667 40.55 44.9167 40.4167 44.7334C40.2833 44.5667 40.1667 44.2667 40.1667 44.0667C40.1667 43.8834 40.0833 43.6501 39.9833 43.5501C39.8833 43.4501 39.75 43.1167 39.6667 42.8167C39.45 41.8834 38.3667 39.0001 38.15 38.7334C37.9167 38.4501 37.4333 38.4334 36.95 38.6834C36.65 38.8501 36.55 38.8167 36.2333 38.4167C36.0333 38.1501 35.7833 37.6834 35.6833 37.3501C35.4833 36.6001 34.6667 34.2667 34.5833 34.2001C34.55 34.1667 34.4333 34.3167 34.3167 34.5334Z" fill="#C44814"/>
<path d="M63.2666 34.7334C62.95 35.4834 62.9 35.9501 63.0833 36.3834C63.1833 36.6334 63.15 36.6834 62.9 36.6334C62.6333 36.6001 62.5833 36.6834 62.6 37.1167C62.6166 37.5001 62.55 37.6667 62.3166 37.7167C62.1166 37.7667 62 37.9501 62 38.2334C62 38.8334 61.4333 39.1167 60.9166 38.7667C60.4166 38.4334 60.1833 38.4334 60.0666 38.7334C59.9 39.1501 60.5333 39.6167 61.4166 39.7501C62.2166 39.8667 62.2333 39.8834 61.7833 40.0334C61.1833 40.2501 60.6666 40.1167 60.1166 39.6001L59.6666 39.1834L59.3333 39.9501C59.15 40.3667 59 40.8501 59 41.0001C59 41.1667 58.8833 41.5334 58.75 41.8167C58.6166 42.1001 58.3833 42.5667 58.25 42.8501C58.1166 43.1334 58 43.5334 58 43.7334C58 43.9334 57.9333 44.1667 57.85 44.2667C57.7666 44.3501 57.6166 44.7167 57.5 45.0834C57.2833 45.8001 56.9167 46.7334 56.6667 47.2001C56.5667 47.3667 56.5 47.5834 56.5 47.6834C56.5 47.7834 56.4 48.1001 56.2667 48.3834C56.1333 48.6834 56 49.0667 55.95 49.2501C55.9 49.4334 55.7 50.0001 55.5 50.5001C55.3 51.0001 55.0667 51.6834 54.9667 52.0001C54.8833 52.3167 54.7333 52.6501 54.6667 52.7501C54.6 52.8334 54.5 53.1001 54.45 53.3334C54.4 53.5667 54.2 54.1667 54.0167 54.6667C53.3833 56.2834 53.15 56.9001 52.9667 57.5001C52.8833 57.8167 52.7333 58.1501 52.6667 58.2501C52.6 58.3334 52.5 58.6001 52.45 58.8334C52.4 59.0667 52.2 59.6667 52 60.1667C51.8 60.6667 51.5667 61.3501 51.4667 61.6667C51.3833 61.9834 51.2333 62.3167 51.1667 62.4167C51.1 62.5001 50.9833 62.8167 50.9167 63.1167L50.8167 63.6501L54.2 63.7001C57.4166 63.7501 57.6 63.7334 57.8666 63.4167C58.0333 63.2334 58.1666 62.9334 58.1666 62.7501C58.1666 62.5667 58.2666 62.2667 58.4 62.0834C58.5166 61.9001 58.6666 61.5667 58.7166 61.3334C58.8333 60.7667 59.3 59.4834 59.5 59.1334C59.6 58.9667 59.6666 58.7501 59.6666 58.6501C59.6666 58.5501 59.7666 58.2334 59.9 57.9501C60.0333 57.6501 60.1666 57.2667 60.2166 57.0834C60.2666 56.9001 60.4666 56.3334 60.6666 55.8334C60.8666 55.3334 61.1 54.6501 61.2 54.3334C61.2833 54.0167 61.4333 53.6834 61.5166 53.5834C61.6 53.5001 61.6666 53.2834 61.6666 53.0834C61.6666 52.8834 61.7833 52.5834 61.9166 52.4001C62.05 52.2334 62.1666 51.9501 62.1666 51.8001C62.1666 51.5167 62.4833 50.6834 62.9333 49.7834C63.0666 49.5167 63.1666 49.1834 63.1666 49.0334C63.1666 48.8834 63.2666 48.5501 63.4 48.3001C63.5333 48.0501 63.6833 47.6334 63.75 47.3501C63.8166 47.0667 63.9333 46.8001 64.0166 46.7501C64.1 46.6834 64.1666 46.4501 64.1666 46.2001C64.1833 45.9501 64.2833 45.5667 64.4166 45.3334C64.55 45.1001 64.65 44.7667 64.6666 44.5667C64.6666 44.3834 64.75 44.1501 64.85 44.0501C65.15 43.7501 66.0166 41.0001 65.9166 40.6834C65.8666 40.5167 65.5833 40.2834 65.2833 40.1501C64.65 39.8667 64.5333 39.4167 64.9166 38.6001C65.3 37.8001 65.2666 37.2001 64.7666 36.3334C64.5333 35.9167 64.1666 35.2501 63.9333 34.8334L63.5333 34.0834L63.2666 34.7334Z" fill="#C44814"/>
<path d="M8.91666 62.6501C7.66666 63.3334 6.64999 64.4834 6.41666 65.5001C6.34999 65.8167 6.23332 67.5834 6.18332 69.4167L6.08332 72.7501L4.99999 72.7834C3.06666 72.8667 1.63332 73.5667 0.816656 74.8334C0.34999 75.5501 0.166656 76.9167 0.166656 79.5001C0.166656 81.9501 0.166656 82.0001 0.54999 82.0834C0.74999 82.1334 22.7 82.1501 49.3333 82.1334L97.75 82.0834V78.8001C97.7333 75.9501 97.7 75.4834 97.45 75.2001C97.3 75.0334 97.1667 74.8001 97.1667 74.7001C97.1667 74.4334 95.85 73.4167 95.1667 73.1667C94.85 73.0334 93.9833 72.9001 93.25 72.8501L91.9167 72.7501L91.8 69.0501L91.6833 65.3501L91.1167 64.4667C90.4667 63.4501 90.35 63.3501 89.2667 62.7667C88.5 62.3667 88.3167 62.3334 86.1 62.3334C84.15 62.3334 83.6333 62.3834 83.15 62.6334C82.0833 63.1834 81.5333 63.6667 80.9833 64.5501L80.4333 65.4167L80.3833 68.9167C80.35 70.8334 80.3 72.5167 80.25 72.6167C80.2 72.7834 77.8333 72.8334 69.2167 72.8334C63.1833 72.8334 58.1667 72.7667 58.05 72.7001C57.9167 72.6167 57.8333 71.6667 57.8 69.6667C57.75 66.3001 57.6333 66.0001 56.3833 65.6834C55.35 65.4167 42.2667 65.4667 41.5167 65.7334C40.3833 66.1334 40.25 66.5167 40.2 69.6667C40.1667 71.7167 40.0833 72.5334 39.9333 72.6501C39.7833 72.7834 36.3833 72.8167 28.7333 72.8001L17.75 72.7501L17.6667 69.1667C17.5833 65.8501 17.55 65.5334 17.2 64.8167C16.75 63.9167 15.7167 62.9001 15.1 62.7334C14.85 62.6834 14.6167 62.5667 14.5667 62.4834C14.5167 62.4001 13.3333 62.3501 11.95 62.3501C9.94999 62.3667 9.31666 62.4334 8.91666 62.6501ZM12.8333 64.3834C14.1833 64.8501 15 65.9667 15 67.3334C15 68.3667 14.6167 69.0834 13.6667 69.8334C13.1167 70.2667 12.9 70.3334 11.9667 70.3334C11.0333 70.3334 10.7833 70.2667 10.2 69.8334C9.43332 69.2834 8.83332 68.2167 8.83332 67.4001C8.83332 66.1834 9.83332 64.8334 11.05 64.3834C11.75 64.1334 12.1333 64.1334 12.8333 64.3834ZM87.2 64.4834C88.6167 65.1001 89.3167 66.3834 89.0833 67.9167C88.8333 69.4167 87.6833 70.3334 86.0167 70.3334C85.2667 70.3334 84.8833 70.2334 84.45 69.9501C82.3833 68.6001 82.6333 65.5167 84.9167 64.4834C85.7833 64.1001 86.3167 64.1001 87.2 64.4834ZM46.3667 66.8001C47.25 67.3834 47.55 67.9501 47.55 69.0501C47.55 70.0001 47.5333 70.0834 46.8667 70.6834C46.2333 71.2834 46.1 71.3334 45.2 71.3334C44.35 71.3334 44.1333 71.2667 43.7 70.8667C43.1333 70.3501 42.6667 69.5167 42.6667 69.0001C42.6667 68.3667 43.2 67.4834 43.8833 66.9834C44.6667 66.4167 45.6667 66.3334 46.3667 66.8001ZM54.25 67.0667C55.5667 68.1501 55.6167 69.7501 54.3833 70.8501C53.9 71.2667 53.6833 71.3334 52.8333 71.3334C51.9833 71.3334 51.7667 71.2667 51.2833 70.8501C50.9833 70.5667 50.6167 70.0501 50.5 69.6667C50.1833 68.7001 50.5333 67.7667 51.4833 67.0334C52.4667 66.2834 53.3 66.3001 54.25 67.0667Z" fill="#C44814"/>
</svg>
