<svg width="110" height="101" viewBox="0 0 110 101" fill="none" xmlns="http://www.w3.org/2000/svg">
<path d="M26.309 0.144112C25.9205 0.225883 25.0926 0.379211 24.4691 0.491653C23.8557 0.593872 22.7007 0.808533 21.9136 0.951637C21.1265 1.09474 19.3581 1.42184 17.9782 1.67738C16.5983 1.93293 14.513 2.31113 13.3273 2.52579C12.1518 2.75067 9.98475 3.14932 8.52303 3.41509C7.06131 3.68085 5.84492 3.91596 5.82447 3.9364C5.79381 3.95685 6.14135 4.3555 6.59111 4.81548L7.39863 5.65366L6.50933 4.79504L5.63026 3.9364L5.05784 4.04884C3.28947 4.40661 1.83797 5.8581 1.45976 7.65714C1.25533 8.63844 1.17355 8.08646 2.59438 15.7733C3.06459 18.3083 3.56545 21.0068 4.12765 24.0836C4.44453 25.7906 4.78185 27.4159 4.89429 27.7123C5.33383 28.8674 6.448 29.8998 7.73595 30.3291C8.57414 30.6153 9.48388 30.6051 11.1603 30.2882C11.9065 30.1553 13.1331 29.9202 13.8895 29.7771C14.6459 29.6442 15.3001 29.5216 15.3308 29.5216C15.3614 29.5216 15.617 29.8078 15.893 30.1553C17.3547 32.0259 19.4297 33.5183 21.6172 34.2747C22.5985 34.6223 22.6189 34.6325 22.854 35.1129C22.9767 35.3787 23.7842 37.0244 24.6326 38.7723C25.481 40.51 26.5339 42.6771 26.9734 43.5766C27.4129 44.4761 28.292 46.2956 28.9462 47.6142C29.5902 48.9328 31.2972 52.4184 32.7283 55.3521L35.3451 60.6981L35.0793 61.3319C34.3842 63.0491 34.0367 65.4512 34.2309 67.2605C34.3229 68.1294 34.6091 69.4275 35.0077 70.787L35.0691 71.0221H22.4962C10.2607 71.0221 9.90298 71.0323 9.27944 71.2266C7.3373 71.8296 5.76314 73.7513 5.12939 76.2864C4.96584 76.9201 4.9454 77.6459 4.9454 82.9305C4.9454 86.1913 4.97606 89.0738 5.01695 89.3294L5.0885 89.7996L4.40364 89.8507C2.98281 89.9529 1.84819 90.5356 0.989558 91.6191C0.212701 92.5799 0.0593739 93.0808 0.00826481 94.9003C-0.053066 97.1184 0.212701 97.9975 1.28599 99.1423C1.8073 99.6943 2.87037 100.287 3.64723 100.451C4.03566 100.532 12.1824 100.563 32.6261 100.563C63.1075 100.563 61.38 100.594 62.576 100.062C63.1586 99.8067 64.099 98.9481 64.4568 98.3348C64.9576 97.4864 65.1007 96.7913 65.1007 95.1967C65.1007 93.5408 64.9372 92.7844 64.3852 91.9564C63.5981 90.7707 62.2182 89.9529 60.828 89.8609L60.0307 89.7996L60.1227 89.0738C60.1636 88.6752 60.1841 85.7211 60.1636 82.5217C60.1329 76.869 60.1227 76.6748 59.9081 75.949C59.6116 74.978 59.3356 74.3953 58.7939 73.5469L58.3339 72.862L58.7939 71.9114C59.7752 69.9182 60.1125 68.4565 60.1227 66.2179C60.1329 64.4291 59.9694 63.3864 59.4685 61.9452C58.3237 58.6742 56.0136 56.037 52.9879 54.5343C52.4768 54.289 51.8533 54.0028 51.5875 53.9006L51.1071 53.7268L50.1769 51.8153C49.6556 50.7727 48.6436 48.6875 47.9077 47.1849C47.141 45.6209 46.5277 44.4761 46.4664 44.517C46.4051 44.5476 46.3948 44.5272 46.4357 44.4556C46.497 44.3534 39.0045 28.8061 38.3094 27.5999C38.2072 27.4159 38.1152 27.191 38.1152 27.099C38.1152 26.9764 38.616 25.2386 38.6774 25.1467C38.6876 25.1364 39.3111 25.0138 40.0675 24.8707C40.8239 24.7378 41.9177 24.5333 42.5105 24.4209C43.1034 24.3085 44.5958 24.0325 45.8326 23.7974C47.0695 23.5725 48.6539 23.2761 49.3592 23.133C50.0645 22.9899 51.2604 22.765 52.0168 22.6321C52.7732 22.489 54.7563 22.121 56.4122 21.8041C58.0681 21.4975 59.5707 21.2113 59.7343 21.1806C60.1125 21.1193 63.9048 20.4037 68.1162 19.6064C69.8641 19.2793 71.52 18.9727 71.8062 18.942L72.3378 18.8705L72.9102 19.6167C73.2169 20.0358 73.5848 20.506 73.7075 20.6797C74.3821 21.5588 77.05 24.8604 78.1233 26.1382C78.8082 26.9457 79.5033 27.7737 79.6668 27.9883C80.0757 28.4994 81.9974 30.7686 82.58 31.4228C82.8356 31.7091 83.3876 32.3428 83.8066 32.8437C85.7386 35.1129 89.858 39.7843 89.9602 39.8252C90.1953 39.9274 89.9397 40.1523 89.0402 40.6531C85.5444 42.5953 84.931 43.1575 84.931 44.3739C84.931 45.2018 85.5546 45.672 86.6483 45.672H87.0879L86.8119 46.132C86.5154 46.6533 86.4439 47.3995 86.6585 47.788C86.8527 48.1559 87.4967 48.4319 88.1714 48.4319C88.8869 48.4217 89.5104 48.1764 90.8495 47.3791C91.381 47.0622 91.8308 46.8169 91.8512 46.8373C91.8717 46.8578 91.7081 47.1746 91.4832 47.5426C91.1255 48.1355 91.0641 48.3093 91.013 49.0452L90.9517 49.8732L91.9841 52.4491C92.5565 53.8699 93.0778 55.0659 93.1392 55.1272C93.2107 55.1783 93.3436 55.3623 93.4458 55.5156C93.548 55.6792 93.7934 55.8734 93.9876 55.9552C94.1716 56.037 95.572 56.6707 97.095 57.376C98.618 58.0813 99.8753 58.6537 99.906 58.6537C99.9264 58.6537 99.9264 58.572 99.9162 58.4697C99.8958 58.3777 99.8447 57.7338 99.8038 57.0591L99.7322 55.8223L97.4425 54.8717C96.1853 54.3504 95.112 53.8699 95.0609 53.8086C95.0098 53.7473 94.8769 53.4611 94.7644 53.1851C94.652 52.8989 94.2636 51.9176 93.8854 50.9976C93.5174 50.0776 93.2107 49.2803 93.2107 49.2292C93.2107 49.1883 93.3845 48.8612 93.5991 48.5035C94.8564 46.4693 95.6639 45.161 95.9195 44.7521L96.2057 44.2921L95.8582 44.5988L95.5106 44.9054L95.8071 44.5681C95.9808 44.3943 96.1546 44.241 96.2057 44.241C96.3079 44.241 97.4221 43.6175 98.4238 43.0144L98.8838 42.7282L101.756 42.6566L104.639 42.5851L105.896 44.1899C106.591 45.0792 107.286 45.9685 107.439 46.1831L107.715 46.5716L107.419 49.0555C107.245 50.415 107.143 51.57 107.184 51.6109C107.235 51.6518 107.746 52.0198 108.339 52.4184L109.412 53.1442L109.484 52.7558C109.525 52.5411 109.678 50.9976 109.821 49.3314C110.138 45.6618 110.199 45.9583 108.574 43.873C107.961 43.0961 107.194 42.0944 106.857 41.6651C106.489 41.1847 106.141 40.8473 105.988 40.8065C105.845 40.7656 105.538 40.6225 105.303 40.4896C104.925 40.2647 104.772 40.2443 104.046 40.2749C103.596 40.2954 103.228 40.2851 103.228 40.2545C103.228 40.2238 103.709 39.9376 104.281 39.6105C106.254 38.4861 106.806 37.9239 106.877 36.9528C106.949 35.9818 106.284 35.3787 105.221 35.4707L104.69 35.5116L104.986 35.0414C105.538 34.1623 105.344 33.1708 104.557 32.8539C103.586 32.4655 102.789 32.6903 100.662 33.9374C98.6078 35.1436 98.4034 35.256 98.3727 35.2254C98.3625 35.2049 97.9127 33.9067 97.371 32.3326C94.6315 24.2982 93.9262 22.305 91.8921 16.8465C91.105 14.7306 90.8495 14.0662 90.6553 13.6267C90.6144 13.5142 90.4917 13.2076 90.3895 12.9418C90.2975 12.676 90.1851 12.4818 90.1339 12.5125C90.0828 12.5432 90.0726 12.4921 90.1033 12.4103C90.2055 12.1445 88.0998 7.27893 87.047 5.34702C85.6466 2.80178 83.776 1.69783 81.0979 1.86137C80.5357 1.89204 79.9019 1.97382 79.677 2.03515L79.2886 2.14758L79.5237 2.41335L79.7588 2.68934L79.4726 2.41335C79.1864 2.14758 79.1762 2.14758 78.6651 2.30091C77.9189 2.51557 76.4878 3.10844 75.895 3.44576C74.5764 4.1715 73.7893 4.64171 73.1249 5.10169L72.4093 5.59234L70.6716 5.50034C69.721 5.43901 66.818 5.30612 64.2319 5.19369C61.6458 5.08125 58.2419 4.91769 56.6677 4.83592C54.2656 4.71326 51.0866 4.55994 41.8461 4.12039C34.7113 3.77286 32.2274 3.63997 32.1763 3.57864C32.1354 3.53775 32.0536 3.3231 31.9821 3.09821C31.655 2.05559 30.6941 0.972076 29.6822 0.501877C28.568 -0.0296555 27.6583 -0.121658 26.309 0.144112ZM81.3534 6.2772C83.6329 6.99272 85.1968 8.8122 85.6159 11.2041C86.0555 13.78 84.8084 16.4172 82.5391 17.6643C80.3517 18.8705 77.7553 18.7171 75.7621 17.2656C74.3821 16.2639 73.4724 14.7 73.2475 12.9623C72.7671 9.0882 76.0074 5.69456 79.9224 5.99099C80.2903 6.01143 80.9343 6.14431 81.3534 6.2772ZM28.7111 9.64017C31.1439 10.1819 33.4847 11.4801 35.1611 13.228C37.4507 15.6199 38.7285 18.7989 38.7285 22.1006C38.7285 24.8502 37.8801 27.3648 36.1117 29.8282C35.2224 31.0651 33.2291 32.6903 31.6243 33.4672C29.7231 34.3974 27.7605 34.796 25.5015 34.704C22.1896 34.5814 19.2253 33.2525 16.8947 30.8402C15.1161 28.9901 14.0939 27.0172 13.5828 24.4209C13.3886 23.4294 13.3579 23.041 13.4091 21.661C13.4499 20.322 13.5011 19.8824 13.7566 18.8909C14.329 16.7341 15.3716 14.8737 16.9151 13.2689C18.8675 11.245 21.1367 10.049 24.0091 9.52773C25.021 9.35396 27.6685 9.41529 28.7111 9.64017ZM104.7 33.2934C105.078 33.641 105.119 34.0192 104.864 34.6223C104.516 35.4298 104.352 35.5422 99.446 38.3634C98.3523 38.9972 96.5532 40.0296 95.4595 40.6634C94.3658 41.2971 93.1187 42.0126 92.6996 42.2477C92.2805 42.4931 91.1766 43.1268 90.2464 43.6788C87.6705 45.1814 87.3741 45.3143 86.4848 45.3143C85.7897 45.3143 85.7079 45.2938 85.483 45.0281C84.931 44.3841 85.3297 43.2904 86.3928 42.5748C86.9039 42.2273 89.2651 40.8473 91.013 39.8661C91.4628 39.6207 92.0761 39.2527 92.3725 39.0688C92.669 38.8745 92.9347 38.7212 92.9654 38.7212C92.9961 38.7212 93.4458 38.4759 93.9569 38.1692C94.7951 37.6786 96.1239 36.912 98.1172 35.7569C98.4852 35.5525 99.4971 34.9596 100.376 34.4485C102.717 33.0788 102.942 32.9766 103.76 33.0174C104.312 33.0481 104.496 33.0992 104.7 33.2934ZM106.09 35.9204C106.499 36.1964 106.601 36.3804 106.601 36.8302C106.601 37.3719 106.162 38.0875 105.559 38.4861C105.099 38.803 102.165 40.5305 100.468 41.4811C98.1581 42.7793 97.0132 43.4744 96.635 43.8219C96.4101 44.0263 96.3181 44.0774 96.4306 43.9343L96.635 43.689L96.3795 43.8423C96.2364 43.9343 95.4084 44.4045 94.5396 44.9054C93.6707 45.4063 92.1988 46.2547 91.2686 46.7964C89.2958 47.9413 88.8767 48.1253 88.2122 48.1253C87.5274 48.1253 87.0981 47.9515 86.9243 47.604C86.7199 47.2155 86.7301 46.9804 86.9856 46.4387C87.2412 45.8867 87.742 45.4676 89.0198 44.7316C89.5513 44.425 90.2668 44.0059 90.6041 43.8117C90.9415 43.6072 91.4219 43.3312 91.6774 43.1881C91.933 43.045 92.6894 42.6157 93.364 42.2171C94.0387 41.8286 95.2142 41.154 95.9706 40.7145C96.727 40.2749 98.107 39.4776 99.0371 38.9461C99.9673 38.4043 101.051 37.791 101.439 37.5662C101.838 37.3413 102.594 36.9017 103.126 36.5746C103.657 36.2578 104.281 35.9409 104.506 35.8898C105.14 35.716 105.814 35.7364 106.09 35.9204ZM49.0321 53.4611C49.0116 53.5326 49.216 53.6144 49.5534 53.6655C49.86 53.7166 50.596 53.9108 51.1889 54.1153C56.3815 55.8427 59.8876 60.739 59.8876 66.2383C59.8876 67.8738 59.3356 70.1839 58.5894 71.6865C57.6899 73.4958 56.126 75.3459 54.5723 76.4499C51.0049 78.9849 46.6504 79.5164 42.4697 77.9321C41.6621 77.6254 41.6519 77.6254 41.7541 77.789C41.795 77.8605 41.6724 77.7787 41.4781 77.605C41.2839 77.421 40.9671 77.1961 40.7728 77.1041C38.9329 76.1739 36.4797 73.4754 35.5802 71.3799C34.8135 69.5808 34.5375 68.344 34.4966 66.4223C34.4047 62.8242 35.7539 59.5635 38.3707 57.0285C40.9057 54.5752 44.238 53.3077 47.693 53.4713C48.3472 53.5019 48.8685 53.4815 48.9094 53.4304C48.9912 53.2975 49.0525 53.318 49.0321 53.4611ZM7.63373 94.3687C7.86883 94.7776 8.06305 95.1456 8.06305 95.1967C8.06305 95.2376 7.86883 95.6158 7.63373 96.0247L7.20442 96.7811H6.54C5.95736 96.7811 5.8347 96.8117 5.56893 97.0571L5.25205 97.3433L5.49738 97.0673L5.73248 96.8015L5.49738 96.7606C5.32361 96.7402 5.13961 96.5153 4.82274 95.9838L4.37298 95.2274L4.81251 94.4198L5.25205 93.6123H6.22312H7.1942L7.63373 94.3687ZM16.2201 94.4198L16.6494 95.2274L16.2814 95.8713C15.7499 96.822 15.8214 96.7811 14.7686 96.7811H13.8384L13.4091 96.0247C13.1637 95.6158 12.9695 95.2478 12.9695 95.2069C12.9695 95.166 13.1637 94.798 13.4091 94.379L13.8384 93.6123H14.8094H15.7805L16.2201 94.4198ZM24.7553 94.3994L25.2152 95.1763L24.8984 95.7589C24.2748 96.8629 24.3566 96.822 22.8642 96.7913L22.394 96.7811L21.9954 96.0349C21.5558 95.2376 21.4127 94.9003 21.5354 94.982C21.5763 95.0025 21.7909 94.7061 21.9954 94.3176L22.3838 93.6123H23.3447H24.2953L24.7553 94.3994ZM33.178 94.1439C33.8016 95.1763 33.7913 95.1456 33.3314 95.9838L32.9225 96.73L31.9514 96.7606L30.9701 96.7913L30.5408 96.0451C30.3057 95.6362 30.1115 95.2478 30.1115 95.1865C30.1115 95.1149 30.3057 94.7367 30.5408 94.3381L30.9803 93.6123H31.9207H32.8612L33.178 94.1439ZM41.795 94.2461C41.9892 94.5936 42.1937 94.9616 42.2448 95.0536C42.3061 95.1865 42.2039 95.442 41.887 96.0042L41.4475 96.7811H40.4968H39.5462L39.3111 96.3927C39.1782 96.1882 38.9636 95.8305 38.8409 95.6056L38.616 95.1967L39.0556 94.4096L39.4951 93.6123H40.4662H41.4373L41.795 94.2461ZM50.2076 93.9905C50.3405 94.2052 50.5551 94.5732 50.6675 94.8083L50.8924 95.2376L50.4529 95.9838L50.0031 96.73L49.0423 96.7606L48.0712 96.7913L47.6419 96.0349C47.4068 95.6158 47.2126 95.2376 47.2126 95.1865C47.2126 95.1456 47.4068 94.7674 47.6419 94.3585L48.0712 93.6123H49.0218H49.9725L50.2076 93.9905ZM59.0188 94.4301C59.2641 94.8492 59.4379 95.2376 59.4072 95.2785C59.3765 95.3194 59.4174 95.442 59.4992 95.534C59.6116 95.6873 59.6116 95.6976 59.4685 95.5749C59.3152 95.4625 59.2539 95.5238 58.9472 96.086L58.5894 96.73L57.6184 96.7606L56.6371 96.7913L56.2078 96.0451C55.7171 95.1967 55.7171 95.1558 56.3304 94.1541L56.6677 93.6021L57.6286 93.6328L58.5792 93.6634L59.0188 94.4301Z" fill="#6DA544"/>
<path d="M78.2664 8.92451C76.8661 9.45604 76.0279 10.652 75.9972 12.1444C75.9768 13.2381 76.2936 14.015 77.0194 14.6998C77.8269 15.4562 78.338 15.6607 79.4624 15.6709C80.2597 15.6709 80.4539 15.63 80.9548 15.3847C81.6601 15.0371 82.3041 14.3625 82.6618 13.5959C83.0503 12.7577 83.04 11.6231 82.6414 10.7951C82.3041 10.0796 81.6703 9.42537 80.9854 9.07783C80.5766 8.8734 80.3108 8.82229 79.5646 8.80184C78.9615 8.7814 78.5118 8.82229 78.2664 8.92451Z" fill="#6DA544"/>
<path d="M25.1335 12.114C22.2202 12.39 19.6648 13.8926 17.8351 16.3663C17.4262 16.9183 16.7107 18.4106 16.4654 19.2079C15.9543 20.8537 15.9543 23.266 16.4551 24.8913C17.9475 29.7057 22.5576 32.6496 27.4845 31.9239C31.2461 31.3821 34.3842 28.7244 35.5393 25.1264C36.173 23.1638 36.1526 20.7003 35.4881 18.84C34.5477 16.2334 32.902 14.3526 30.4999 13.1464C28.8644 12.3184 26.8814 11.9402 25.1335 12.114Z" fill="#6DA544"/>
<path d="M46.3948 56.1595C44.4118 56.3844 42.6741 57.059 41.1511 58.1834C39.4236 59.4611 38.0538 61.5055 37.4916 63.6316C37.185 64.7765 37.1134 66.831 37.3383 67.9657C38.1356 71.9113 41.1204 74.988 45.0149 75.8876C46.2108 76.1636 48.2961 76.1431 49.492 75.8467C53.1106 74.9472 55.8705 72.2384 56.8415 68.6403C57.1789 67.4035 57.1789 64.8991 56.8415 63.6623C55.6865 59.3793 52.0373 56.4048 47.6215 56.1697C47.141 56.139 46.5891 56.139 46.3948 56.1595Z" fill="#6DA544"/>
</svg>
